<?xml version="1.0" encoding="UTF-8" standalone="no"?>
<svg
   height="100%"
   style="fill-rule:evenodd;clip-rule:evenodd;stroke-linejoin:round;stroke-miterlimit:2;"
   version="1.1"
   viewBox="0 0 512 512"
   width="100%"
   xml:space="preserve"
   id="svg1"
   sodipodi:docname="github_light.svg"
   inkscape:version="1.3.2 (091e20e, 2023-11-25, custom)"
   xmlns:inkscape="http://www.inkscape.org/namespaces/inkscape"
   xmlns:sodipodi="http://sodipodi.sourceforge.net/DTD/sodipodi-0.dtd"
   xmlns="http://www.w3.org/2000/svg"
   xmlns:svg="http://www.w3.org/2000/svg"><defs
     id="defs1"><inkscape:path-effect
       effect="powerclip"
       id="path-effect44"
       is_visible="true"
       lpeversion="1"
       inverse="true"
       flatten="false"
       hide_clip="false"
       message="Use fill-rule evenodd on &lt;b&gt;fill and stroke&lt;/b&gt; dialog if no flatten result after convert clip to paths." /><inkscape:path-effect
       effect="powerclip"
       id="path-effect4"
       is_visible="true"
       lpeversion="1"
       inverse="true"
       flatten="false"
       hide_clip="false"
       message="Use fill-rule evenodd on &lt;b&gt;fill and stroke&lt;/b&gt; dialog if no flatten result after convert clip to paths." /><clipPath
       id="clip0_1_2"><rect
         width="1200"
         height="1227"
         fill="white"
         id="rect1" /></clipPath><clipPath
       clipPathUnits="userSpaceOnUse"
       id="clipPath44"><path
         clip-rule="evenodd"
         d="m 257.22098,67.34289 c -101.33971,0 -183.50828,82.16857 -183.50828,183.53122 0,81.07865 52.56861,149.86988 125.51301,174.14644 9.17828,1.67503 12.06944,-3.7631 12.06944,-8.62759 0,-4.35968 0.0918,-16.54385 0,-31.86011 -51.04272,11.09425 -61.62069,-24.1733 -61.62069,-24.1733 -8.34077,-21.20183 -20.36432,-26.84648 -20.36432,-26.84648 -16.65858,-11.38107 1.25054,-11.16308 1.25054,-11.16308 18.41393,1.29643 28.11996,18.91873 28.11996,18.91873 16.37177,28.02818 42.94289,19.92835 53.39466,15.24742 1.67504,-11.86293 6.4248,-19.95129 11.66789,-24.54043 -40.75157,-4.63503 -83.5912,-20.37579 -83.5912,-90.70437 0,-20.04308 7.14758,-36.41484 18.88431,-49.24149 -1.89302,-4.63503 -8.20309,-23.30136 1.80124,-48.57605 0,0 15.40804,-4.93333 50.45761,18.82695 14.63936,-4.07286 30.34569,-6.10356 45.94877,-6.1724 15.59161,0.0688 31.28647,2.09954 45.94878,6.1724 35.04956,-23.74881 50.43466,-18.82695 50.43466,-18.82695 10.00433,25.27469 3.70573,43.94102 1.82418,48.57605 11.73673,12.82665 18.86137,29.19841 18.86137,49.24149 0,70.51215 -42.90847,86.02345 -83.79771,90.55522 6.58541,5.67907 12.56277,16.693 12.56277,33.8105 0,22.94571 0,44.76707 0,50.80179 0,4.91038 2.96,10.33704 12.27595,8.55875 72.87556,-24.31098 125.39828,-93.06778 125.39828,-174.12349 0,-101.36265 -82.16857,-183.53122 -183.53122,-183.53122 z"
         fill="#181616"
         fill-rule="evenodd"
         id="path44"
         style="clip-rule:evenodd;display:none;fill-rule:evenodd;stroke-width:11.4729;stroke-linejoin:round;stroke-miterlimit:2" /><path
         id="lpe_path-effect44"
         style="clip-rule:evenodd;fill-rule:evenodd;stroke-width:11.4729;stroke-linejoin:round;stroke-miterlimit:2"
         class="powerclip"
         d="M -5,-5 H 517 V 517 H -5 Z m 262.22098,72.34289 c -101.33971,0 -183.50828,82.16857 -183.50828,183.53122 0,81.07865 52.56861,149.86988 125.51301,174.14644 9.17828,1.67503 12.06944,-3.7631 12.06944,-8.62759 0,-4.35968 0.0918,-16.54385 0,-31.86011 -51.04272,11.09425 -61.62069,-24.1733 -61.62069,-24.1733 -8.34077,-21.20183 -20.36432,-26.84648 -20.36432,-26.84648 -16.65858,-11.38107 1.25054,-11.16308 1.25054,-11.16308 18.41393,1.29643 28.11996,18.91873 28.11996,18.91873 16.37177,28.02818 42.94289,19.92835 53.39466,15.24742 1.67504,-11.86293 6.4248,-19.95129 11.66789,-24.54043 -40.75157,-4.63503 -83.5912,-20.37579 -83.5912,-90.70437 0,-20.04308 7.14758,-36.41484 18.88431,-49.24149 -1.89302,-4.63503 -8.20309,-23.30136 1.80124,-48.57605 0,0 15.40804,-4.93333 50.45761,18.82695 14.63936,-4.07286 30.34569,-6.10356 45.94877,-6.1724 15.59161,0.0688 31.28647,2.09954 45.94878,6.1724 35.04956,-23.74881 50.43466,-18.82695 50.43466,-18.82695 10.00433,25.27469 3.70573,43.94102 1.82418,48.57605 11.73673,12.82665 18.86137,29.19841 18.86137,49.24149 0,70.51215 -42.90847,86.02345 -83.79771,90.55522 6.58541,5.67907 12.56277,16.693 12.56277,33.8105 0,22.94571 0,44.76707 0,50.80179 0,4.91038 2.96,10.33704 12.27595,8.55875 72.87556,-24.31098 125.39828,-93.06778 125.39828,-174.12349 0,-101.36265 -82.16857,-183.53122 -183.53122,-183.53122 z" /></clipPath></defs><sodipodi:namedview
     id="namedview1"
     pagecolor="#ffffff"
     bordercolor="#000000"
     borderopacity="0.25"
     inkscape:showpageshadow="2"
     inkscape:pageopacity="0.0"
     inkscape:pagecheckerboard="0"
     inkscape:deskcolor="#d1d1d1"
     inkscape:zoom="1.4045461"
     inkscape:cx="287.63741"
     inkscape:cy="268.05813"
     inkscape:window-width="2240"
     inkscape:window-height="1294"
     inkscape:window-x="2726"
     inkscape:window-y="2157"
     inkscape:window-maximized="1"
     inkscape:current-layer="svg1" /><path
     d="M 449.446,0 C 483.971,0 512,28.03 512,62.554 V 449.446 C 512,483.97 483.97,512 449.446,512 H 62.554 C 28.03,512 0,483.97 0,449.446 V 62.554 C 0,28.03 28.029,0 62.554,0 Z"
     id="path1"
     style="fill:#f9f9f9"
     inkscape:label="path1"
     sodipodi:nodetypes="sssssssss"
     clip-path="url(#clipPath44)"
     inkscape:path-effect="#path-effect44"
     inkscape:original-d="M 449.446,0 C 483.971,0 512,28.03 512,62.554 V 449.446 C 512,483.97 483.97,512 449.446,512 H 62.554 C 28.03,512 0,483.97 0,449.446 V 62.554 C 0,28.03 28.029,0 62.554,0 Z" /></svg>
