<?xml version="1.0" encoding="UTF-8"?>
<svg
    xmlns="http://www.w3.org/2000/svg"
    viewBox="0 0 512 512"
    width="100%"
    height="100%"
    style="fill-rule:evenodd; clip-rule:evenodd; stroke-linejoin:round; stroke-miterlimit:2;"
>
  <path
    d="M449.446,0c34.525,0 62.554,28.03 62.554,62.554v386.892c0,34.524 -28.03,62.554 -62.554,62.554H62.554C28.03,512 0,483.97 0,449.446V62.554C0,28.03 28.03,0 62.554,0h386.892Zm-288.985,423.278V197.561h-75.04v225.717h75.04Zm270.539,0V293.839c0,-69.333 -37.018,-101.586 -86.381,-101.586c-39.804,0 -57.634,21.891 -67.617,37.266v-31.958h-75.021c0.995,21.181 0,225.717 0,225.717h75.02v-126.056c0,-6.748 0.486,-13.492 2.474,-18.315c5.414,-13.475 17.767,-27.434 38.494,-27.434c27.135,0 38.007,20.707 38.007,51.037v120.768h75.024Zm-307.552,-334.556c-25.674,0 -42.448,16.879 -42.448,39.002c0,21.658 16.264,39.002 41.455,39.002h0.484c26.165,0 42.452,-17.344 42.452,-39.002c-0.485,-22.092 -16.241,-38.954 -41.943,-39.002Z"
    fill="#0A66C2"
  />
</svg>
