<?xml version="1.0" encoding="UTF-8" standalone="no"?>
<svg
   height="100%"
   style="fill-rule:evenodd;clip-rule:evenodd;stroke-linejoin:round;stroke-miterlimit:2;"
   version="1.1"
   viewBox="0 0 512 512"
   width="100%"
   xml:space="preserve"
   id="svg1"
   sodipodi:docname="instagram_light.svg"
   inkscape:version="1.3.2 (091e20e, 2023-11-25, custom)"
   xmlns:inkscape="http://www.inkscape.org/namespaces/inkscape"
   xmlns:sodipodi="http://sodipodi.sourceforge.net/DTD/sodipodi-0.dtd"
   xmlns="http://www.w3.org/2000/svg"
   xmlns:svg="http://www.w3.org/2000/svg"><defs
     id="defs1"><inkscape:path-effect
       effect="powerclip"
       id="path-effect4"
       is_visible="true"
       lpeversion="1"
       inverse="true"
       flatten="false"
       hide_clip="false"
       message="Use fill-rule evenodd on &lt;b&gt;fill and stroke&lt;/b&gt; dialog if no flatten result after convert clip to paths." /><clipPath
       id="clip0_1_2"><rect
         width="1200"
         height="1227"
         fill="white"
         id="rect1" /></clipPath><clipPath
       clipPathUnits="userSpaceOnUse"
       id="clipPath4"><path
         d="M 291.8745,231.35667 418.56475,84.089506 H 388.54322 L 278.53809,211.95952 190.67732,84.089506 H 89.340317 L 222.20305,277.45161 89.340317,431.88384 H 119.36355 L 235.5318,296.84877 328.31921,431.88384 h 101.337 L 291.86713,231.35667 Z m -41.12094,47.7985 -13.46176,-19.2545 -107.11046,-153.2101 h 46.11394 l 86.43939,123.64544 13.46176,19.2545 112.36097,160.72014 h -46.11394 l -91.6899,-131.1481 z"
         fill="#000000"
         id="path4"
         clip-path="url(#clipPath2)"
         style="clip-rule:evenodd;display:none;fill:none;fill-rule:evenodd;stroke-width:0.283597;stroke-linejoin:round;stroke-miterlimit:2" /><path
         id="lpe_path-effect4"
         style="clip-rule:evenodd;fill:none;fill-rule:evenodd;stroke-width:0.283597;stroke-linejoin:round;stroke-miterlimit:2"
         class="powerclip"
         d="M -5,-5 H 517 V 517 H -5 Z M 291.8745,231.35667 418.56475,84.089506 H 388.54322 L 278.53809,211.95952 190.67732,84.089506 H 89.340317 L 222.20305,277.45161 89.340317,431.88384 H 119.36355 L 235.5318,296.84877 328.31921,431.88384 h 101.337 L 291.86713,231.35667 Z m -41.12094,47.7985 v 0.007 l 91.6899,131.1481 H 388.5574 L 276.19643,249.59051 262.73467,230.33601 176.29528,106.69057 h -46.11394 l 107.11046,153.2101 z" /></clipPath></defs><sodipodi:namedview
     id="namedview1"
     pagecolor="#ffffff"
     bordercolor="#000000"
     borderopacity="0.25"
     inkscape:showpageshadow="2"
     inkscape:pageopacity="0.0"
     inkscape:pagecheckerboard="0"
     inkscape:deskcolor="#d1d1d1"
     inkscape:zoom="1.4045461"
     inkscape:cx="287.63741"
     inkscape:cy="267.34616"
     inkscape:window-width="2240"
     inkscape:window-height="1294"
     inkscape:window-x="2726"
     inkscape:window-y="2157"
     inkscape:window-maximized="1"
     inkscape:current-layer="svg1" /><path
     d="M 449.446,0 C 483.971,0 512,28.03 512,62.554 V 449.446 C 512,483.97 483.97,512 449.446,512 H 62.554 C 28.03,512 0,483.97 0,449.446 V 62.554 C 0,28.03 28.029,0 62.554,0 Z"
     id="path1"
     style="fill:#f9f9f9"
     inkscape:label="path1"
     sodipodi:nodetypes="sssssssss"
     clip-path="url(#clipPath4)"
     inkscape:path-effect="#path-effect4"
     inkscape:original-d="M 449.446,0 C 483.971,0 512,28.03 512,62.554 V 449.446 C 512,483.97 483.97,512 449.446,512 H 62.554 C 28.03,512 0,483.97 0,449.446 V 62.554 C 0,28.03 28.029,0 62.554,0 Z" /></svg>
