<?xml version="1.0" encoding="UTF-8"?>
<svg version="1.1" xmlns="http://www.w3.org/2000/svg" width="512" height="512">
<path d="M0 0 C0.83789062 -0.01546875 1.67578125 -0.0309375 2.5390625 -0.046875 C8.83119159 -0.00791445 13.48114238 1.54861678 19 4.5 C19.99128906 5.02980469 20.98257813 5.55960938 22.00390625 6.10546875 C29.92528349 11.00341956 35.50208404 16.78826493 40.75 24.4375 C43.25745778 27.89511271 43.25745778 27.89511271 47 29.5 C47.66 29.17 48.32 28.84 49 28.5 C59.73381658 26.68031865 71.0614898 32.00044933 80 37.5 C82.583942 38.83280037 85.20023717 40.09880331 87.8125 41.375 C93.40535875 44.14471189 98.89445908 46.88357518 104 50.5 C104 51.16 104 51.82 104 52.5 C105.2065625 52.933125 105.2065625 52.933125 106.4375 53.375 C109 54.5 109 54.5 110 56.5 C110.07065617 58.54055005 110.08421976 60.58334257 110.0625 62.625 C110.05347656 63.72070312 110.04445313 64.81640625 110.03515625 65.9453125 C110.01775391 67.20988281 110.01775391 67.20988281 110 68.5 C110.78375 68.190625 111.5675 67.88125 112.375 67.5625 C125.95667043 63.58166556 137.25032648 66.74259812 149.375 73.27734375 C153.93012207 75.92019589 157.01976895 79.18797821 160 83.5 C160.7425 84.36625 161.485 85.2325 162.25 86.125 C168.86774167 95.10622083 169.7562124 105.63671799 169 116.5 C168.49493326 119.57829471 167.80520641 122.48047594 167 125.5 C167.99 125.5 168.98 125.5 170 125.5 C170.66 126.16 171.32 126.82 172 127.5 C173.3921875 127.4071875 173.3921875 127.4071875 174.8125 127.3125 C178 127.5 178 127.5 180.4375 129.3125 C190.52157283 140.79533131 200.12703621 160.49674788 201.25 175.9375 C200.98523846 179.71035193 200.19526181 181.48151502 198 184.5 C201.20305408 187.80982255 204.54764074 190.88705719 208 193.9375 C216.743081 201.8244336 222.42095142 210.10056029 223.16796875 222.2265625 C223.25403573 234.99890245 221.50011995 246.85713685 212.93359375 256.9296875 C210.52263912 259.35396232 208.01433007 261.6280403 205.42236328 263.85620117 C202.93649467 266.72907335 203.30721722 270.59713036 203.0625 274.25 C201.849043 288.09969432 198.24959731 300.03056536 192 312.5 C191.40941333 313.7360041 190.82092853 314.97301436 190.234375 316.2109375 C187.34649866 322.21134596 184.69111606 327.70768883 180 332.5 C178.68 332.5 177.36 332.5 176 332.5 C176 334.15 176 335.8 176 337.5 C175.01 337.5 174.02 337.5 173 337.5 C172.67 338.49 172.34 339.48 172 340.5 C171.34 340.17 170.68 339.84 170 339.5 C170.04640625 340.74394531 170.0928125 341.98789062 170.140625 343.26953125 C170.51833679 357.55364332 168.96564093 367.626516 159 378.5 C158.44957031 379.12777344 157.89914062 379.75554687 157.33203125 380.40234375 C150.56784257 387.22626036 140.1321467 391.55250654 130.51171875 391.73046875 C127.72523991 391.7059879 125.01513214 391.53472883 122.23046875 391.3203125 C118.91822157 391.12404798 118.91822157 391.12404798 117.21875 393.4765625 C116.8165625 394.14429688 116.414375 394.81203125 116 395.5 C113.3125 395.75 113.3125 395.75 111 395.5 C110.896875 396.49 110.79375 397.48 110.6875 398.5 C108.38842713 406.23606951 98.74689302 410.18414672 92.11206055 413.86181641 C64.55734586 428.71097603 64.55734586 428.71097603 54.3125 428.5625 C53.50425781 428.55347656 52.69601562 428.54445313 51.86328125 428.53515625 C50.94095703 428.51775391 50.94095703 428.51775391 50 428.5 C50 429.49 50 430.48 50 431.5 C44.52109992 434.43057446 44.52109992 434.43057446 41.5078125 434.83203125 C38.23600898 435.70349294 37.46348897 436.99652916 35.5625 439.75 C29.17992644 448.36443297 21.02693093 453.34138895 10.57421875 456.15234375 C0.20717328 457.55244549 -9.5233883 457.22277042 -19 452.5 C-19.70382813 452.149375 -20.40765625 451.79875 -21.1328125 451.4375 C-27.88746569 447.62310761 -34.37048459 441.8010705 -38.0625 434.9375 C-39.7013096 432.32550728 -39.7013096 432.32550728 -42.01171875 432.13671875 C-44.50690802 432.08459141 -44.50690802 432.08459141 -48 432.5 C-48 431.51 -48 430.52 -48 429.5 C-48.82177734 429.49613281 -48.82177734 429.49613281 -49.66015625 429.4921875 C-58.13567566 429.07874753 -65.36094011 425.90132054 -73 422.5 C-73.75555176 422.16935547 -74.51110352 421.83871094 -75.28955078 421.49804688 C-86.97561082 416.3470338 -99.83910204 410.66089796 -109 401.5 C-109.56520003 398.84462628 -109.73788198 396.20855287 -110 393.5 C-110.99 394.82 -111.98 396.14 -113 397.5 C-113.33 396.18 -113.66 394.86 -114 393.5 C-115.32 393.83 -116.64 394.16 -118 394.5 C-118.495 393.015 -118.495 393.015 -119 391.5 C-120.01578125 391.54640625 -121.0315625 391.5928125 -122.078125 391.640625 C-137.0352643 392.11858213 -148.40175338 388.50260232 -159.6875 378.375 C-166.36178294 371.40511945 -170.23268218 362.09867235 -170.02734375 352.48828125 C-170.00897461 351.10479492 -170.00897461 351.10479492 -169.99023438 349.69335938 C-169.95486231 347.76099663 -169.9157549 345.8286989 -169.87304688 343.89648438 C-169.85661133 342.51879883 -169.85661133 342.51879883 -169.83984375 341.11328125 C-169.82300537 340.27579346 -169.80616699 339.43830566 -169.78881836 338.57543945 C-169.80186446 336.2768729 -169.80186446 336.2768729 -172 334.5 C-171.67 333.84 -171.34 333.18 -171 332.5 C-172.216875 332.603125 -173.43375 332.70625 -174.6875 332.8125 C-177.88918809 332.77318102 -178.82328736 332.6206818 -181.5625 330.75 C-188.61792522 322.29769529 -193.06422286 311.66269832 -197 301.5 C-197.41636719 300.4275 -197.83273438 299.355 -198.26171875 298.25 C-201.17854071 289.89867817 -201.69241 282.27431035 -201 273.5 C-200.67 272.84 -200.34 272.18 -200 271.5 C-200.66 270.71625 -201.32 269.9325 -202 269.125 C-204 266.5 -204 266.5 -204 264.5 C-204.58007812 264.23703125 -205.16015625 263.9740625 -205.7578125 263.703125 C-214.88824564 258.80386819 -218.8478897 249.90179612 -222 240.5 C-224.69525689 228.05908861 -223.99556502 214.44342795 -217.71484375 203.19921875 C-212.49705266 195.71408668 -205.17117604 189.50220867 -197 185.5 C-196.34 185.5 -195.68 185.5 -195 185.5 C-195 184.51 -195 183.52 -195 182.5 C-195.804375 182.21125 -196.60875 181.9225 -197.4375 181.625 C-200 180.5 -200 180.5 -201 178.5 C-201.52181572 167.92755973 -196.4687887 156.29323657 -191 147.5 C-190.02709154 145.54886665 -189.06928975 143.59014353 -188.125 141.625 C-181.96263482 129.28505393 -181.96263482 129.28505393 -177.5 127.5 C-174.86099634 127.5 -172.55310233 127.84348797 -170 128.5 C-169.505 127.015 -169.505 127.015 -169 125.5 C-168.34 125.5 -167.68 125.5 -167 125.5 C-167.495 123.953125 -167.495 123.953125 -168 122.375 C-170.61975542 111.72635388 -169.91377251 99.70898902 -164.640625 89.99609375 C-161.87209293 85.66491085 -158.82628142 81.95298567 -155 78.5 C-154.53464844 78.01917969 -154.06929688 77.53835937 -153.58984375 77.04296875 C-146.98311686 70.63103479 -136.31039254 66.34660368 -127.11328125 66.40234375 C-126.17548828 66.40556641 -125.23769531 66.40878906 -124.27148438 66.41210938 C-122.80678711 66.42467773 -122.80678711 66.42467773 -121.3125 66.4375 C-120.32443359 66.44201172 -119.33636719 66.44652344 -118.31835938 66.45117188 C-115.87884526 66.46295697 -113.43945311 66.47940989 -111 66.5 C-111 65.84 -111 65.18 -111 64.5 C-110.34 64.5 -109.68 64.5 -109 64.5 C-109.185625 63.345 -109.37125 62.19 -109.5625 61 C-109.53704761 58.10860818 -109.23036031 56.80952807 -107.48828125 54.46875 C-99.27735659 46.81938581 -88.83299504 41.30228213 -78.36328125 37.4296875 C-75.79117055 36.41784891 -73.3899987 35.21084034 -70.9375 33.9375 C-64.28935911 30.56132814 -57.60981563 27.4555155 -50 28.5 C-47.09282927 30.71863029 -46.16018357 32.01944929 -45 35.5 C-44.76667969 34.70078125 -44.53335938 33.9015625 -44.29296875 33.078125 C-40.24918974 20.90392106 -33.02277389 12.07847945 -21.6796875 5.78125 C-20.79539063 5.3584375 -19.91109375 4.935625 -19 4.5 C-18.35450195 4.16162109 -17.70900391 3.82324219 -17.04394531 3.47460938 C-11.24580193 0.60736763 -6.42602364 -0.11863428 0 0 Z M-1 175.5 C-1.268125 176.27601563 -1.53625 177.05203125 -1.8125 177.8515625 C-5.6829789 188.52084315 -10.73009663 198.13067172 -17.4375 207.3125 C-20.64466984 211.75376514 -23.24722118 216.42060393 -25.8125 221.25 C-26.39052368 222.33244995 -26.39052368 222.33244995 -26.98022461 223.43676758 C-32.58298768 234.16680995 -32.82244015 243.65413901 -31 255.5 C-30.33355469 255.31824219 -29.66710937 255.13648438 -28.98046875 254.94921875 C-28.05878906 254.69785156 -27.13710937 254.44648438 -26.1875 254.1875 C-25.29417969 253.94386719 -24.40085938 253.70023437 -23.48046875 253.44921875 C-22.33191406 253.13597656 -21.18335938 252.82273437 -20 252.5 C-19.19868652 252.24863281 -18.39737305 251.99726563 -17.57177734 251.73828125 C-10.68510447 249.66450272 -4.4244601 249.02716645 2.75 249.125 C4.30847656 249.13370117 4.30847656 249.13370117 5.8984375 249.14257812 C14.22251575 249.28200127 21.96152821 250.33579606 30 252.5 C32.82918966 246.84162068 32.38590019 239.42066206 30.98828125 233.40234375 C27.89356555 224.31390989 23.0693339 215.61630409 17.5703125 207.7734375 C10.55683014 197.61958991 4.61224899 187.32190579 1 175.5 C0.34 175.5 -0.32 175.5 -1 175.5 Z M191 183.5 C195 184.5 195 184.5 195 184.5 Z M-110 387.5 C-110.66 388.16 -111.32 388.82 -112 389.5 C-111.01 389.5 -110.02 389.5 -109 389.5 C-109.33 388.84 -109.66 388.18 -110 387.5 Z " fill="#FAFAFA" transform="translate(256,27.5)"/>
<path d="M0 0 C3.77728908 1.25909636 4.12824098 2.44116049 6.125 5.8125 C12.74984184 16.56747337 20.78422622 26.33736566 28.60595703 36.23535156 C32.24024219 40.8358092 35.86137854 45.44659985 39.47851562 50.06054688 C40.54655388 51.42198717 41.61565787 52.78259176 42.68554688 54.14257812 C49.0100293 62.18620163 55.29934986 70.232477 61.17431641 78.61254883 C63.50376893 81.93015379 65.88799738 85.19332243 68.33984375 88.421875 C83.35355946 108.24557083 98.70314469 130.01930188 97 156 C94.88654627 169.82897677 89.70745976 181.13255023 81 192 C80.47921875 192.68578125 79.9584375 193.3715625 79.421875 194.078125 C63.85336764 213.42081596 39.65633609 223.43874326 16 228 C15.03964844 228.1959375 14.07929688 228.391875 13.08984375 228.59375 C0.66208173 230.22774147 -12.00539513 229.56889925 -24 226 C-25.08925781 225.74476563 -26.17851562 225.48953125 -27.30078125 225.2265625 C-49.27209884 219.80216019 -71.36940239 204.81487362 -84 186 C-92.41239231 171.16851315 -97.98979906 155.41218271 -94.1640625 138.25 C-89.12181872 122.2772546 -80.80214874 108.4643878 -71 95 C-70.47132324 94.26942383 -69.94264648 93.53884766 -69.39794922 92.78613281 C-55.84112778 74.08789787 -41.7603913 55.76998478 -27.375 37.703125 C-22.00071288 30.93452365 -16.76700834 24.07200222 -11.625 17.125 C-11.04194092 16.34036377 -10.45888184 15.55572754 -9.8581543 14.74731445 C-6.33723648 9.9629458 -3.06506684 5.08874114 0 0 Z M0 66 C-0.268125 66.77601563 -0.53625 67.55203125 -0.8125 68.3515625 C-4.6829789 79.02084315 -9.73009663 88.63067172 -16.4375 97.8125 C-19.64466984 102.25376514 -22.24722118 106.92060393 -24.8125 111.75 C-25.39052368 112.83244995 -25.39052368 112.83244995 -25.98022461 113.93676758 C-31.58298768 124.66680995 -31.82244015 134.15413901 -30 146 C-29.33355469 145.81824219 -28.66710937 145.63648438 -27.98046875 145.44921875 C-27.05878906 145.19785156 -26.13710937 144.94648438 -25.1875 144.6875 C-24.29417969 144.44386719 -23.40085937 144.20023437 -22.48046875 143.94921875 C-21.33191406 143.63597656 -20.18335938 143.32273437 -19 143 C-18.19868652 142.74863281 -17.39737305 142.49726563 -16.57177734 142.23828125 C-9.68510447 140.16450272 -3.4244601 139.52716645 3.75 139.625 C5.30847656 139.63370117 5.30847656 139.63370117 6.8984375 139.64257812 C15.22251575 139.78200127 22.96152821 140.83579606 31 143 C33.82918966 137.34162068 33.38590019 129.92066206 31.98828125 123.90234375 C28.89356555 114.81390989 24.0693339 106.11630409 18.5703125 98.2734375 C11.55683014 88.11958991 5.61224899 77.82190579 2 66 C1.34 66 0.68 66 0 66 Z " fill="#252525" transform="translate(255,137)"/>
<path d="M0 0 C3.9042419 3.4407246 6.14921381 7.37732175 8.625 11.875 C9.21667969 12.91720703 9.21667969 12.91720703 9.8203125 13.98046875 C13.87989421 21.26302918 15.29720438 27.06945017 15.125 35.375 C15.11597656 36.20644531 15.10695313 37.03789062 15.09765625 37.89453125 C15.0742622 39.92981337 15.03839725 41.96494564 15 44 C31.82599595 49.87788125 45.38272669 53.13444596 63 48 C64.28628586 47.63220878 65.57274686 47.26502954 66.859375 46.8984375 C68.41398437 46.45371094 68.41398437 46.45371094 70 46 C69.78105545 61.32611826 66.7615341 73.73370775 57 86 C56.29875 86.928125 55.5975 87.85625 54.875 88.8125 C40.1833151 105.95279905 16.39178394 117.04730538 -6 119 C-20.70999898 119.89379049 -34.95293032 119.75787844 -49 115 C-49.65000977 114.78037598 -50.30001953 114.56075195 -50.96972656 114.33447266 C-63.75783408 109.86843313 -76.16553243 103.46458715 -86 94 C-86 93.34 -86 92.68 -86 92 C-86.56976563 91.77441406 -87.13953125 91.54882812 -87.7265625 91.31640625 C-97.12392746 85.87497671 -101.79152941 73.11759938 -104.50878906 63.18554688 C-105.78121205 57.52414998 -105.98315075 51.78771783 -106 46 C-101.29114713 47.86408978 -101.29114713 47.86408978 -99.17578125 48.8515625 C-85.22985907 54.64043586 -69.13098265 50.59417215 -55.6015625 45.8046875 C-53 45 -53 45 -50 45 C-50 43.35 -50 41.7 -50 40 C-48 43 -48 43 -48.375 45.6875 C-48.58125 46.450625 -48.7875 47.21375 -49 48 C-48.47567383 47.823479 -47.95134766 47.64695801 -47.41113281 47.46508789 C-45.02461992 46.66263481 -42.63732103 45.86254547 -40.25 45.0625 C-39.0125 44.64581055 -39.0125 44.64581055 -37.75 44.22070312 C-36.95078125 43.95322266 -36.1515625 43.68574219 -35.328125 43.41015625 C-34.22839355 43.04096069 -34.22839355 43.04096069 -33.10644531 42.66430664 C-18.92050697 38.19050759 -1.82194195 40.03827725 12 45 C14.04322599 28.93030367 9.56590241 17.68969857 1.24609375 4.14453125 C0 2 0 2 0 0 Z " fill="#797979" transform="translate(274,235)"/>
<path d="M0 0 C9.37397834 7.13336889 15.42928729 15.52660575 18.6875 26.8125 C19.93571725 40.34836233 17.20793531 53.18217845 8.625 63.875 C0.31459519 72.9751625 -9.80753139 77.15610771 -21.85546875 78.0859375 C-35.62442835 78.46963841 -45.47580477 74.16581029 -55.40234375 64.8515625 C-64.29110245 55.6814092 -67.63926557 44.66643201 -67.69750977 32.16381836 C-67.47592634 21.52901187 -62.73365669 12.33167197 -55.3125 4.8125 C-39.26200799 -9.21292994 -18.34729842 -12.02643036 0 0 Z " fill="#242424" transform="translate(156.3125,103.1875)"/>
<path d="M0 0 C10.19442468 6.27229488 17.00828164 15.5097146 20.58984375 26.87109375 C23.09915074 39.89559193 19.50809561 50.87325589 13 62 C6.20009208 71.72809793 -2.96009549 76.85777053 -14.32421875 79.55078125 C-26.26543763 81.55551143 -36.22854255 79.90124782 -46.49609375 73.42578125 C-56.17069973 66.426783 -62.7132833 56.79352966 -65 45 C-66.02904216 31.94586512 -64.18844559 21.27390146 -55.65234375 10.8046875 C-41.05656064 -5.13680611 -19.44740163 -10.3387936 0 0 Z " fill="#252525" transform="translate(402,101)"/>
<path d="M0 0 C7.64962368 7.01889361 13.30220765 17.31740249 14.0703125 27.70703125 C14.25587598 34.65355988 13.65617001 40.33664283 10.84765625 46.6953125 C10.58082031 47.35917969 10.31398438 48.02304687 10.0390625 48.70703125 C5.64056901 58.65740096 -2.07023202 65.68838238 -11.94921875 69.8828125 C-23.18503479 73.90758243 -36.44199902 74.93998414 -47.59765625 70.07421875 C-58.96201624 63.94024463 -66.15580059 56.1282104 -70.5546875 43.921875 C-73.25535287 33.86057264 -72.5141298 20.53182446 -67.83203125 11.2734375 C-60.51637923 0.04476231 -51.29300574 -6.82585901 -38.33984375 -9.9921875 C-24.11765085 -11.38652014 -11.39294695 -9.01469759 0 0 Z " fill="#797979" transform="translate(106.15234375,223.3046875)"/>
<path d="M0 0 C1.25867889 1.04889907 2.48759484 2.1343435 3.6875 3.25 C4.37585938 3.88550781 5.06421875 4.52101562 5.7734375 5.17578125 C13.33085218 12.85962108 16.92752968 21.73205973 17.125 32.5 C16.61918291 44.53312236 13.43495584 55.50254416 4.6875 64.25 C-7.14714243 73.44958533 -18.43228601 76.12336804 -33.3125 75.25 C-43.62951331 73.65034929 -53.21307315 67.63435174 -59.74609375 59.55859375 C-67.14563069 48.65304181 -69.49995046 38.33989507 -68.3125 25.25 C-65.50734419 14.07042784 -58.40343131 4.70035605 -48.9375 -1.75 C-33.34827236 -10.75375059 -14.89293713 -10.37290174 0 0 Z " fill="#F4F4F4" transform="translate(460.3125,220.75)"/>
<path d="M0 0 C9.41546341 6.08819438 16.2064381 14.89640702 18.86328125 25.8828125 C20.86331144 38.2533696 18.41230182 49.14055032 11.09765625 59.3671875 C3.02573779 68.82782312 -7.18186282 73.54803721 -19.45703125 74.90625 C-31.26499211 75.36504603 -40.69279847 72.01674801 -49.75 64.43359375 C-53.08310434 61.14024811 -55.47447265 57.59158994 -57.71484375 53.4921875 C-58.12863281 52.77804687 -58.54242188 52.06390625 -58.96875 51.328125 C-63.23955964 42.66745877 -63.0581853 31.73196927 -61.0546875 22.42578125 C-57.00628392 11.22695057 -47.83983842 1.68746571 -37.21484375 -3.4453125 C-24.84006752 -8.16397718 -11.43513905 -6.35102687 0 0 Z " fill="#242424" transform="translate(149.71484375,342.5078125)"/>
<path d="M0 0 C9.37395273 6.93672502 15.23351637 15.22298934 18.46875 26.421875 C19.61840486 37.34359614 18.19885378 48.56381583 11.78125 57.734375 C4.97476042 65.82349453 -2.32347037 71.72592685 -12.71875 74.171875 C-13.976875 74.254375 -15.235 74.336875 -16.53125 74.421875 C-18.078125 74.53402344 -18.078125 74.53402344 -19.65625 74.6484375 C-31.72781453 75.15141936 -41.58891354 71.59165539 -50.53125 63.421875 C-58.92984027 55.43717829 -62.59538263 45.90005465 -62.90625 34.421875 C-62.9714047 23.72477621 -58.92121524 14.16294718 -51.53125 6.421875 C-37.16186355 -6.58535771 -17.24000984 -10.7484012 0 0 Z " fill="#262626" transform="translate(405.53125,342.578125)"/>
<path d="M0 0 C7.71574017 5.72835255 12.31253233 13.69931575 15.3203125 22.72265625 C16.28172892 35.44172262 14.85175115 46.70896607 6.29296875 56.7578125 C2.95987287 60.077708 -0.53358246 62.51542557 -4.6796875 64.72265625 C-5.45570313 65.13644531 -6.23171875 65.55023438 -7.03125 65.9765625 C-17.25132973 70.51706232 -30.78310345 70.67690846 -41.2421875 66.78515625 C-51.10714353 61.89412763 -59.18858848 54.00912089 -62.7734375 43.5234375 C-65.31364268 32.86990458 -65.10569977 21.82885178 -59.44140625 12.26953125 C-45.34294458 -8.1122803 -21.21086602 -13.5310697 0 0 Z " fill="#242424" transform="translate(280.6796875,413.27734375)"/>
<path d="M0 0 C1.98046875 1.16796875 1.98046875 1.16796875 3.35546875 2.81640625 C5.86615356 4.90462006 7.99049807 4.23749745 11.16796875 3.98046875 C17.00056933 3.83725758 20.02727596 4.66714304 24.4921875 8.3671875 C26.25029548 10.49445201 27.08293751 12.57264441 27.98046875 15.16796875 C28.70492187 15.1215625 29.429375 15.07515625 30.17578125 15.02734375 C36.34639935 14.79697401 40.18675131 14.84193106 44.98046875 19.16796875 C48.78836121 23.49044128 50.36064894 26.07055817 50.25390625 31.94140625 C49.68903262 36.5410915 47.94992247 40.61478593 44.26171875 43.5234375 C39.58831367 46.2660926 35.77794242 47.29388131 30.4375 47.265625 C29.36435547 47.26240234 28.29121094 47.25917969 27.18554688 47.25585938 C26.06599609 47.24748047 24.94644531 47.23910156 23.79296875 47.23046875 C22.66181641 47.22595703 21.53066406 47.22144531 20.36523438 47.21679688 C17.57025948 47.20500373 14.77539055 47.18854525 11.98046875 47.16796875 C12.46902344 48.08320312 12.95757812 48.9984375 13.4609375 49.94140625 C15.50939978 54.29109736 15.71880561 57.89143009 14.23046875 62.48046875 C12.61224848 64.66506612 11.57934128 65.32509117 8.98046875 66.16796875 C2.81694674 66.82834611 2.81694674 66.82834611 -0.39453125 64.29296875 C-3.30944856 60.48115381 -3.33930593 57.964589 -3.01953125 53.16796875 C-2.07071887 51.14318356 -1.07699457 49.13818989 -0.01953125 47.16796875 C-1.31987305 47.20724487 -1.31987305 47.20724487 -2.64648438 47.24731445 C-5.89674621 47.33308766 -9.1464268 47.39548319 -12.39746094 47.44262695 C-13.79804594 47.46760287 -15.19850286 47.50159692 -16.59863281 47.54516602 C-30.59354666 47.96940556 -30.59354666 47.96940556 -36.5703125 43.61694336 C-40.55284338 39.63508339 -42.21689235 35.1043151 -42.58203125 29.54296875 C-42.36139063 24.62947183 -40.52272766 22.50822579 -37.01953125 19.16796875 C-34.01953125 17.16796875 -34.01953125 17.16796875 -30.01953125 17.16796875 C-30.12265625 16.34296875 -30.22578125 15.51796875 -30.33203125 14.66796875 C-29.80966068 8.81741836 -26.70918983 4.7731444 -22.51953125 0.79296875 C-14.71781329 -4.27814792 -8.16530361 -3.77193671 0 0 Z " fill="#787878" transform="translate(250.01953125,55.83203125)"/>
<path d="M0 0 C3.9042419 3.4407246 6.14921381 7.37732175 8.625 11.875 C9.21667969 12.91720703 9.21667969 12.91720703 9.8203125 13.98046875 C13.87989421 21.26302918 15.29720438 27.06945017 15.125 35.375 C15.11597656 36.20644531 15.10695313 37.03789062 15.09765625 37.89453125 C15.0742622 39.92981337 15.03839725 41.96494564 15 44 C31.82599595 49.87788125 45.38272669 53.13444596 63 48 C65.31 47.34 67.62 46.68 70 46 C69.67 51.28 69.34 56.56 69 62 C68.34 61.67 67.68 61.34 67 61 C64.9911515 61.98210371 62.99212671 62.98440599 61 64 C50.91235461 66.7596516 38.30952523 66.33149261 28.6875 62.5 C14.89879241 57.25788785 -0.86313783 58.22144758 -14.23828125 64.2109375 C-15.49361826 64.80427397 -16.74750554 65.4006864 -18 66 C-39.07238337 75.71622458 -62.22593765 80.55036408 -85 73 C-89.36527426 71.10478834 -93.55911594 68.92252375 -97.734375 66.64453125 C-100.83718149 64.7751121 -100.83718149 64.7751121 -104 65 C-105.17293889 58.6221448 -106.29530838 52.49678438 -106 46 C-105.360625 46.268125 -104.72125 46.53625 -104.0625 46.8125 C-103.051875 47.204375 -102.04125 47.59625 -101 48 C-100.43796875 48.26425781 -99.8759375 48.52851563 -99.296875 48.80078125 C-85.28452642 54.62087092 -69.20834353 50.62155831 -55.6015625 45.8046875 C-53 45 -53 45 -50 45 C-50 43.35 -50 41.7 -50 40 C-48 43 -48 43 -48.375 45.6875 C-48.58125 46.450625 -48.7875 47.21375 -49 48 C-48.47567383 47.823479 -47.95134766 47.64695801 -47.41113281 47.46508789 C-45.02461992 46.66263481 -42.63732103 45.86254547 -40.25 45.0625 C-39.0125 44.64581055 -39.0125 44.64581055 -37.75 44.22070312 C-36.95078125 43.95322266 -36.1515625 43.68574219 -35.328125 43.41015625 C-34.22839355 43.04096069 -34.22839355 43.04096069 -33.10644531 42.66430664 C-18.92050697 38.19050759 -1.82194195 40.03827725 12 45 C14.04322599 28.93030367 9.56590241 17.68969857 1.24609375 4.14453125 C0 2 0 2 0 0 Z " fill="#797979" transform="translate(274,235)"/>
<path d="M0 0 C1.25867889 1.04889907 2.48759484 2.1343435 3.6875 3.25 C4.37585938 3.88550781 5.06421875 4.52101562 5.7734375 5.17578125 C13.33085218 12.85962108 16.92752968 21.73205973 17.125 32.5 C16.61918291 44.53312236 13.43495584 55.50254416 4.6875 64.25 C-7.14714243 73.44958533 -18.43228601 76.12336804 -33.3125 75.25 C-43.62951331 73.65034929 -53.21307315 67.63435174 -59.74609375 59.55859375 C-67.14563069 48.65304181 -69.49995046 38.33989507 -68.3125 25.25 C-65.50734419 14.07042784 -58.40343131 4.70035605 -48.9375 -1.75 C-33.34827236 -10.75375059 -14.89293713 -10.37290174 0 0 Z M-31.3125 -0.75 C-31.6425 2.22 -31.9725 5.19 -32.3125 8.25 C-41.88392857 8.53571429 -41.88392857 8.53571429 -46.3125 6.25 C-48.6225 8.23 -50.9325 10.21 -53.3125 12.25 C-52.6525 13.57 -51.9925 14.89 -51.3125 16.25 C-50.00987076 19.80262521 -50.56293047 22.58543787 -51.3125 26.25 C-54.2825 26.58 -57.2525 26.91 -60.3125 27.25 C-60.3125 31.21 -60.3125 35.17 -60.3125 39.25 C-57.6725 39.58 -55.0325 39.91 -52.3125 40.25 C-50.2369186 44.64534884 -50.2369186 44.64534884 -50.5625 47.25 C-51.44356456 49.5995055 -52.34735109 51.93364262 -53.3125 54.25 C-51.45729507 56.44946977 -49.59207737 58.48481657 -47.3125 60.25 C-44.75789786 60.32272562 -44.75789786 60.32272562 -42.3125 59.25 C-38.85036007 58.61409675 -35.8511727 58.25 -32.3125 58.25 C-31.9825 61.22 -31.6525 64.19 -31.3125 67.25 C-29.50007948 67.27687279 -27.68754767 67.29633715 -25.875 67.3125 C-24.86566406 67.32410156 -23.85632813 67.33570313 -22.81640625 67.34765625 C-20.37228933 67.53612676 -20.37228933 67.53612676 -19.3125 66.25 C-19.24101801 64.89756083 -19.22850546 63.54165633 -19.25 62.1875 C-19.270625 60.888125 -19.29125 59.58875 -19.3125 58.25 C-17.8754191 58.19577053 -16.43774538 58.15710277 -15 58.125 C-14.19949219 58.10179687 -13.39898437 58.07859375 -12.57421875 58.0546875 C-10.3125 58.25 -10.3125 58.25 -7.3125 60.25 C-4.0110033 60.13995011 -3.03077988 58.98748807 -0.5625 56.6875 C0.18 55.883125 0.9225 55.07875 1.6875 54.25 C1.378125 53.486875 1.06875 52.72375 0.75 51.9375 C-1.36188272 46.59567901 -1.36188272 46.59567901 -0.875 43.1875 C0.6875 40.25 0.6875 40.25 2.60546875 39.41796875 C4.61008288 38.92479819 6.64945195 38.57871743 8.6875 38.25 C8.6875 34.62 8.6875 30.99 8.6875 27.25 C6.0475 26.59 3.4075 25.93 0.6875 25.25 C-0.5 22 -0.5 22 -1.3125 18.25 C0.0625 15.8125 0.0625 15.8125 1.6875 14.25 C0.89632096 12.25016466 0.89632096 12.25016466 -0.3125 10.25 C-1.3025 9.92 -2.2925 9.59 -3.3125 9.25 C-3.8075 7.765 -3.8075 7.765 -4.3125 6.25 C-6.48124252 6.75603992 -8.31217627 7.24983813 -10.3125 8.25 C-13.31724497 8.38559318 -16.30318847 8.29299016 -19.3125 8.25 C-19.8075 3.795 -19.8075 3.795 -20.3125 -0.75 C-23.9425 -0.75 -27.5725 -0.75 -31.3125 -0.75 Z " fill="#7A7A7A" transform="translate(460.3125,220.75)"/>
<path d="M0 0 C1.2375 0.02578125 2.475 0.0515625 3.75 0.078125 C5.0184375 0.14515625 6.286875 0.2121875 7.59375 0.28125 C9.5428125 0.33539063 9.5428125 0.33539063 11.53125 0.390625 C14.72182905 0.48446556 17.90622549 0.61563122 21.09375 0.78125 C21.09375 3.75125 21.09375 6.72125 21.09375 9.78125 C22.351875 9.719375 23.61 9.6575 24.90625 9.59375 C27.34466114 9.47382814 28.63490478 9.48405454 30.69873047 10.82080078 C32.82941499 13.81509492 32.50218531 16.90178738 32.45703125 20.44140625 C32.45777901 21.55992226 32.45777901 21.55992226 32.45854187 22.70103455 C32.45620361 24.2754076 32.44648955 25.84978455 32.42993164 27.42407227 C32.40630244 29.83839178 32.40937656 32.2516096 32.41601562 34.66601562 C32.41043996 36.1953191 32.40333078 37.72461792 32.39453125 39.25390625 C32.39589836 40.33986839 32.39589836 40.33986839 32.39729309 41.44776917 C32.32479563 46.55020437 32.32479563 46.55020437 30.09375 48.78125 C27.9296875 48.9765625 27.9296875 48.9765625 25.46875 48.90625 C24.65148437 48.88820313 23.83421875 48.87015625 22.9921875 48.8515625 C22.36570312 48.82835937 21.73921875 48.80515625 21.09375 48.78125 C21.09375 51.42125 21.09375 54.06125 21.09375 56.78125 C16.44901018 56.85541067 11.80461501 56.90985615 7.15942383 56.94604492 C5.57928464 56.96113094 3.99918731 56.9816025 2.41918945 57.00756836 C0.14784415 57.04396126 -2.12294759 57.06097762 -4.39453125 57.07421875 C-5.45405754 57.09744453 -5.45405754 57.09744453 -6.5349884 57.12113953 C-11.4467023 57.12282466 -11.4467023 57.12282466 -13.58764648 55.53149414 C-15.22730043 53.35510475 -15.31224568 52.14440642 -15.3737793 49.43676758 C-15.39937424 48.56188187 -15.42496918 47.68699615 -15.45133972 46.78559875 C-15.4609523 45.84185898 -15.47056488 44.8981192 -15.48046875 43.92578125 C-15.4951973 42.95017746 -15.50992584 41.97457367 -15.52510071 40.96940613 C-15.54906486 38.90245401 -15.56447682 36.83538781 -15.57202148 34.76831055 C-15.59355987 31.62152834 -15.67368168 28.47968746 -15.75585938 25.33398438 C-15.7718621 23.32294229 -15.78434386 21.31186851 -15.79296875 19.30078125 C-15.82484787 18.36716263 -15.85672699 17.43354401 -15.88957214 16.47163391 C-15.83502464 11.12044183 -14.95059425 8.16423452 -11.2824707 4.17260742 C-7.57165027 0.91818221 -5.04001622 -0.18666727 0 0 Z " fill="#F1F1F1" transform="translate(375.90625,346.21875)"/>
<path d="M0 0 C1.10988281 -0.01417969 2.21976562 -0.02835937 3.36328125 -0.04296875 C6.84095803 0.19813928 9.49244989 0.8017506 12.6875 2.1875 C14.04926581 4.16825027 15.38343116 6.16829663 16.6875 8.1875 C19.29187233 9.59940564 19.29187233 9.59940564 21.6875 10.1875 C21.04205571 13.67289917 19.58615603 16.21569057 17.6875 19.1875 C18.64462891 19.27837891 18.64462891 19.27837891 19.62109375 19.37109375 C20.44738281 19.45488281 21.27367187 19.53867188 22.125 19.625 C23.36056641 19.74681641 23.36056641 19.74681641 24.62109375 19.87109375 C26.6875 20.1875 26.6875 20.1875 27.6875 21.1875 C27.75994053 23.20714199 27.77127188 25.22917124 27.75 27.25 C27.74097656 28.35472656 27.73195313 29.45945313 27.72265625 30.59765625 C27.71105469 31.45230469 27.69945312 32.30695313 27.6875 33.1875 C25.0475 33.5175 22.4075 33.8475 19.6875 34.1875 C20.3475 35.1775 21.0075 36.1675 21.6875 37.1875 C21.6875 38.5075 21.6875 39.8275 21.6875 41.1875 C20.0375 41.1875 18.3875 41.1875 16.6875 41.1875 C16.50574219 41.80238281 16.32398438 42.41726562 16.13671875 43.05078125 C15.75966797 44.26314453 15.75966797 44.26314453 15.375 45.5 C15.13136719 46.30050781 14.88773437 47.10101563 14.63671875 47.92578125 C13.61396332 50.36271702 12.77143437 51.57876206 10.6875 53.1875 C4.58901569 55.47611442 -3.94987557 55.35689753 -10.01953125 53.24609375 C-14.55100335 50.78350499 -18.48351489 47.62376869 -22.3125 44.1875 C-19.8375 39.2375 -19.8375 39.2375 -17.3125 34.1875 C-21.2725 33.8575 -25.2325 33.5275 -29.3125 33.1875 C-29.3125 28.8975 -29.3125 24.6075 -29.3125 20.1875 C-25.3525 19.5275 -21.3925 18.8675 -17.3125 18.1875 C-18.6325 16.2075 -19.9525 14.2275 -21.3125 12.1875 C-19.82276819 8.37479656 -17.72586174 6.76835134 -14.375 4.5 C-13.49972656 3.89800781 -12.62445313 3.29601562 -11.72265625 2.67578125 C-7.73781643 0.21512651 -4.60173875 0.02653829 0 0 Z " fill="#EFEFEF" transform="translate(381.3125,110.8125)"/>
<path d="M0 0 C13.86 0 27.72 0 42 0 C42 8.58 42 17.16 42 26 C36.06 26 30.12 26 24 26 C24 33.92 24 41.84 24 50 C16.08 50 8.16 50 0 50 C0 33.5 0 17 0 0 Z " fill="#F2F2F2" transform="translate(111,117)"/>
<path d="M0 0 C4.95472955 0.87921264 9.59283908 2.46516921 14.35546875 4.0625 C25.47269658 6.92223706 37.14976078 6.04781065 48.53417969 5.82861328 C58.54024014 5.64709282 67.74295701 6.24039712 77.53857422 8.31005859 C81.74478129 9.14845196 85.72304424 9.46450437 90 9.375 C91.11217896 9.36194824 91.11217896 9.36194824 92.24682617 9.34863281 C104.64418451 9.02700012 116.26485919 5.85161744 128 2 C130.32767865 1.3101747 132.66157585 0.65258348 135 0 C130.64934918 10.53315461 113.95741307 15.91819287 104.08984375 20.2890625 C83.44394926 28.44777194 58.00386202 29.11421133 37 22 C36.34999023 21.78037598 35.69998047 21.56075195 35.03027344 21.33447266 C22.06574365 16.80682051 10.21171193 10.26283604 0 1 C0 0.67 0 0.34 0 0 Z " fill="#767676" transform="translate(188,328)"/>
<path d="M0 0 C6.32875563 5.74474617 10.31157508 12.93472523 13 21 C13.12781786 23.67394964 13.04391871 26.32095857 13 29 C11.2984375 28.2884375 11.2984375 28.2884375 9.5625 27.5625 C6.38350427 26.33373924 3.70929237 25.83568222 0.3125 25.6875 C-3.53935008 25.37803512 -3.81086417 25.20714876 -6.625 22.125 C-7.40875 21.09375 -8.1925 20.0625 -9 19 C-13.49007703 16.34260747 -16.93129017 15.8556419 -22.125 15.5625 C-27.06813934 15.26701969 -29.41421286 14.58578714 -33 11 C-39.04696722 7.99788377 -45.41637325 8.19676885 -52 9 C-58.57019514 11.35764258 -62.79794455 15.10162949 -66.16015625 21.16796875 C-67.11341269 23.16044671 -67.11341269 23.16044671 -68 26 C-68.66 26 -69.32 26 -70 26 C-68.72198186 13.97619672 -62.56184363 5.56875179 -53.48046875 -2.125 C-36.97189276 -14.60392358 -15.84443409 -12.120627 0 0 Z " fill="#797979" transform="translate(284,40)"/>
<path d="M0 0 C4.68438822 3.22443548 7.7951457 8.24947946 10.04296875 13.40625 C10.70446513 19.91096441 9.55609474 24.84893666 6.04296875 30.40625 C1.79297557 35.12958365 -2.66382085 38.0517868 -9.078125 38.7421875 C-20.26027399 38.87389715 -20.26027399 38.87389715 -24.95703125 34.40625 C-31.04157709 28.06217377 -32.45452191 23.66841148 -32.35546875 14.7734375 C-31.61768808 8.53846751 -28.71000352 4.6348466 -23.90625 0.74609375 C-16.17758397 -4.18213201 -8.120216 -4.02417784 0 0 Z " fill="#282828" transform="translate(445.95703125,235.59375)"/>
<path d="M0 0 C1.02907471 -0.00386719 2.05814941 -0.00773437 3.1184082 -0.01171875 C10.71662348 0.10258489 16.18504565 1.53227723 23.23828125 4.3125 C28.04717415 5.72716921 32.4488388 5.93383288 37.4375 5.9375 C38.66859497 5.94620117 38.66859497 5.94620117 39.92456055 5.95507812 C45.76159308 5.83688368 50.63375933 4.51582976 56.0625 2.4375 C57.0525 2.1075 58.0425 1.7775 59.0625 1.4375 C59.1875 4.625 59.1875 4.625 58.0625 8.4375 C48.17226211 15.41364994 36.70951617 15.57540162 25.0625 14.4375 C22.28661037 13.81227741 19.66548899 12.92595786 17 11.9375 C3.06009729 6.91560594 -9.61988485 8.26365218 -22.87109375 14.4921875 C-23.54640137 14.81799805 -24.22170898 15.14380859 -24.91748047 15.47949219 C-28.14391433 17.00965009 -31.43933628 18.35205565 -34.75 19.6875 C-35.84957031 20.14640625 -36.94914062 20.6053125 -38.08203125 21.078125 C-47.76064888 24.67716238 -57.01616697 25.96735037 -67.3125 25.875 C-68.4984375 25.86742676 -69.684375 25.85985352 -70.90625 25.85205078 C-84.1899975 25.60206817 -94.60899723 22.54444105 -105.9375 15.4375 C-106.96875 14.798125 -108 14.15875 -109.0625 13.5 C-111.63259873 10.6728914 -111.51494883 8.15853734 -111.9375 4.4375 C-110.50470703 5.25154297 -110.50470703 5.25154297 -109.04296875 6.08203125 C-90.66882582 16.32566364 -69.84218634 19.70685802 -49.0625 15.0625 C-39.82130314 12.41668015 -31.01910727 8.49429477 -22.2109375 4.6796875 C-14.47727943 1.38318822 -8.41257547 0.02194168 0 0 Z " fill="#F6F6F6" transform="translate(282.9375,293.5625)"/>
<path d="M0 0 C0.33 0.99 0.66 1.98 1 3 C-0.99778032 6.56099814 -3.55561834 9.73384549 -6 13 C-6.928125 14.423125 -6.928125 14.423125 -7.875 15.875 C-11.08898603 19.08898603 -14.79595931 20.40091704 -19 22 C-19.86109375 22.3403125 -20.7221875 22.680625 -21.609375 23.03125 C-33.63254418 27.61812379 -45.64012876 30.15781454 -58.5 30.25 C-59.18835938 30.270625 -59.87671875 30.29125 -60.5859375 30.3125 C-65.01177569 30.34400063 -69.09087034 29.82634678 -73.42556763 28.91130066 C-83.24962012 26.83768972 -92.6166023 26.7105033 -102.625 26.9375 C-139.30159772 27.68317255 -139.30159772 27.68317255 -152.5 17.75 C-155.8049248 14.11458272 -158.43221964 10.1794723 -161 6 C-160.67 5.34 -160.34 4.68 -160 4 C-159.34515625 4.44730469 -158.6903125 4.89460938 -158.015625 5.35546875 C-145.77699214 13.46269871 -135.23606159 17.09891796 -120.66015625 17.2109375 C-118.60611218 17.23903212 -116.55207584 17.26769672 -114.49804688 17.296875 C-111.29289183 17.33786351 -108.08787699 17.37478958 -104.88256836 17.40136719 C-93.67562958 17.50211933 -83.10246205 17.78223872 -72.15063477 20.31445312 C-50.50027998 25.02535559 -27.60817769 18.02463296 -9 7 C-5.80899363 4.88029276 -2.72131091 2.72131091 0 0 Z " fill="#F5F5F5" transform="translate(337,308)"/>
<path d="M0 0 C2.5 0.25 2.5 0.25 4.5 2.25 C4.1875 4.5 4.1875 4.5 3.5 7.25 C3.16055205 9.24897128 2.82578384 11.24875639 2.5 13.25 C3.221875 13.3325 3.94375 13.415 4.6875 13.5 C8.08712309 14.40656616 9.92430315 15.88894455 12.5 18.25 C12.995 19.24 12.995 19.24 13.5 20.25 C16.41652174 20.41681109 16.41652174 20.41681109 19.5 20.25 C20.16 19.59 20.82 18.93 21.5 18.25 C24.5 18 24.5 18 27.5 18.25 C28.16 18.91 28.82 19.57 29.5 20.25 C29.17028521 23.54714793 28.8773161 24.8726839 26.5 27.25 C24.44140625 27.2265625 24.44140625 27.2265625 22.0625 26.875 C19.47192939 26.50796693 17.12633415 26.25 14.5 26.25 C14.27825067 27.70635371 14.07301302 29.16522956 13.875 30.625 C13.75898438 31.43710937 13.64296875 32.24921875 13.5234375 33.0859375 C13.51570313 33.80007813 13.50796875 34.51421875 13.5 35.25 C15.4254644 37.4736068 15.4254644 37.4736068 18.5 38.25 C21.5 39.25 21.5 39.25 23.5 41.25 C23.17028521 44.54714793 22.8773161 45.8726839 20.5 48.25 C17.20285207 47.92028521 15.8773161 47.6273161 13.5 45.25 C13.190625 44.404375 12.88125 43.55875 12.5625 42.6875 C12.211875 41.883125 11.86125 41.07875 11.5 40.25 C8.60554506 38.9018065 8.60554506 38.9018065 6.375 40.25 C1.76222526 41.85444339 -3.02867315 41.0169635 -7.65234375 39.58203125 C-8.26207031 39.47246094 -8.87179688 39.36289062 -9.5 39.25 C-11.96278801 41.71278801 -12.49771255 43.95676982 -13.5 47.25 C-16.375 47.875 -16.375 47.875 -19.5 48.25 C-21.5 46.25 -21.5 46.25 -21.75 43.25 C-21.5 40.25 -21.5 40.25 -19.5 38.25 C-18.489375 37.940625 -17.47875 37.63125 -16.4375 37.3125 C-15.468125 36.961875 -14.49875 36.61125 -13.5 36.25 C-12.268606 32.55581799 -12.85567236 30.0443739 -13.5 26.25 C-18.41925584 26.14690021 -18.41925584 26.14690021 -23.25 26.9375 C-25.5 27.25 -25.5 27.25 -27.375 26.125 C-28.5 24.25 -28.5 24.25 -28.3125 21.6875 C-27.5 19.25 -27.5 19.25 -25.5 17.25 C-22.20285207 17.57971479 -20.8773161 17.8726839 -18.5 20.25 C-15.6284035 20.91790364 -15.6284035 20.91790364 -12.5 20.25 C-10.81267723 18.26739574 -9.14633943 16.2667658 -7.5 14.25 C-4.1875 13.375 -4.1875 13.375 -1.5 13.25 C-1.9640625 11.9196875 -1.9640625 11.9196875 -2.4375 10.5625 C-4.18 5.13 -4.18 5.13 -4.5 2.25 C-2.5 0.25 -2.5 0.25 0 0 Z " fill="#F1F1F1" transform="translate(127.5,353.75)"/>
<path d="M0 0 C15.84 0 31.68 0 48 0 C48 9.9 48 19.8 48 30 C32.16 30 16.32 30 0 30 C0 29.67 0 29.34 0 29 C6.435 28.505 6.435 28.505 13 28 C13 27.67 13 27.34 13 27 C19.6 27 26.2 27 33 27 C33 25.35 33 23.7 33 22 C23.76 22 14.52 22 5 22 C4.67 21.01 4.34 20.02 4 19 C16.54 19 29.08 19 42 19 C42 17.35 42 15.7 42 14 C29.46 14 16.92 14 4 14 C3.67 15.32 3.34 16.64 3 18 C2.67 18 2.34 18 2 18 C1.67 20.97 1.34 23.94 1 27 C0.67 27 0.34 27 0 27 C0 18.09 0 9.18 0 0 Z " fill="#232323" transform="translate(53,236)"/>
<path d="M0 0 C3.9042419 3.4407246 6.14921381 7.37732175 8.625 11.875 C9.21667969 12.91720703 9.21667969 12.91720703 9.8203125 13.98046875 C13.87989421 21.26302918 15.29720438 27.06945017 15.125 35.375 C15.11597656 36.20644531 15.10695313 37.03789062 15.09765625 37.89453125 C15.0742622 39.92981337 15.03839725 41.96494564 15 44 C31.83026956 49.87937417 45.37635293 53.13188586 63 48 C63.763125 47.78730469 64.52625 47.57460938 65.3125 47.35546875 C66.87867675 46.91656035 68.44014356 46.46086667 70 46 C70 47.98 70 49.96 70 52 C68.79443396 52.63032133 67.58536811 53.2539497 66.375 53.875 C65.70210937 54.22304688 65.02921875 54.57109375 64.3359375 54.9296875 C53.74648377 59.78171145 40.74356488 59.78703818 29.8125 55.875 C27.53393689 54.93519312 25.26337742 53.97581221 23 53 C20.17712732 51.90911579 17.3380767 50.86306058 14.5 49.8125 C13.19781956 49.31926672 11.89573174 48.82578881 10.59375 48.33203125 C-12.55013187 39.75370112 -32.04954472 44.40854805 -53.64331055 54.1796875 C-67.23677782 60.30167774 -83.57074651 63.38085596 -98.04296875 57.90625 C-98.68878906 57.6071875 -99.33460938 57.308125 -100 57 C-100.63550781 56.7215625 -101.27101562 56.443125 -101.92578125 56.15625 C-103.625 55.25 -103.625 55.25 -106 53 C-106.375 49.25 -106.375 49.25 -106 46 C-105.360625 46.268125 -104.72125 46.53625 -104.0625 46.8125 C-103.051875 47.204375 -102.04125 47.59625 -101 48 C-100.43796875 48.26425781 -99.8759375 48.52851563 -99.296875 48.80078125 C-85.28452642 54.62087092 -69.20834353 50.62155831 -55.6015625 45.8046875 C-53 45 -53 45 -50 45 C-50 43.35 -50 41.7 -50 40 C-48 43 -48 43 -48.375 45.6875 C-48.58125 46.450625 -48.7875 47.21375 -49 48 C-48.47567383 47.823479 -47.95134766 47.64695801 -47.41113281 47.46508789 C-45.02461992 46.66263481 -42.63732103 45.86254547 -40.25 45.0625 C-39.0125 44.64581055 -39.0125 44.64581055 -37.75 44.22070312 C-36.95078125 43.95322266 -36.1515625 43.68574219 -35.328125 43.41015625 C-34.22839355 43.04096069 -34.22839355 43.04096069 -33.10644531 42.66430664 C-18.92050697 38.19050759 -1.82194195 40.03827725 12 45 C14.04322599 28.93030367 9.56590241 17.68969857 1.24609375 4.14453125 C0 2 0 2 0 0 Z " fill="#F2F2F2" transform="translate(274,235)"/>
<path d="M0 0 C2.93482679 1.46450763 5.63443848 3.26602612 8.375 5.0625 C19.65373443 12.1907789 31.19599667 17.61323197 43.81103516 21.96020508 C50.14285475 24.20021285 50.14285475 24.20021285 52 27 C51.55555556 33.44444444 51.55555556 33.44444444 50 35 C43.00341399 35.4811012 38.02853349 34.35461681 31.625 31.625 C30.76793457 31.26994385 29.91086914 30.9148877 29.02783203 30.54907227 C0.42487122 18.42487122 0.42487122 18.42487122 -9 9 C-9.3125 6.125 -9.3125 6.125 -9 3 C-6.22642522 -0.08174976 -4.02338786 -0.54045509 0 0 Z " fill="#272727" transform="translate(157,419)"/>
<path d="M0 0 C2.25194854 0.73097213 4.46818573 1.52414142 6.68505859 2.35546875 C7.50039063 2.65976807 8.31572266 2.96406738 9.15576172 3.27758789 C38.1659563 14.47874635 38.1659563 14.47874635 46.87255859 24.41796875 C47.2180283 27.58675985 47.40422439 29.53185908 45.74755859 32.29296875 C42.9877074 33.94887947 41.05812436 33.70130032 37.87255859 33.41796875 C35.00537109 31.94921875 35.00537109 31.94921875 31.99755859 29.91796875 C20.67878613 22.58585752 8.89282642 17.06917996 -3.92089844 12.85131836 C-11.14030749 10.38431971 -11.14030749 10.38431971 -13.12744141 6.41796875 C-13.54251651 3.58162218 -13.47755405 2.07442995 -12.12744141 -0.45703125 C-8.46669647 -2.51620028 -3.90458839 -1.06822799 0 0 Z " fill="#252525" transform="translate(317.12744140625,59.58203125)"/>
<path d="M0 0 C2 2 2 2 2.6875 4.6875 C1.7432804 9.23692173 -0.28167527 10.44800584 -3.98828125 13.078125 C-40.03720009 36.08210434 -40.03720009 36.08210434 -56 34 C-58 32 -58 32 -58.4375 29.125 C-58 26 -58 26 -56.08984375 24.0390625 C-51.99206424 21.33483886 -47.73733033 19.8731014 -43.125 18.25 C-30.58369988 13.65123454 -19.32966506 7.99629847 -8.46484375 0.15234375 C-5.22461736 -1.3625006 -3.39161633 -0.97373728 0 0 Z " fill="#262626" transform="translate(362,420)"/>
<path d="M0 0 C1.875 1.0625 1.875 1.0625 3 3 C3.1875 6.4375 3.1875 6.4375 2 10 C0.45043945 11.09326172 0.45043945 11.09326172 -1.51171875 11.9921875 C-2.23447998 12.32694092 -2.95724121 12.66169434 -3.7019043 13.0065918 C-6.66902731 14.28920346 -9.64895013 15.53186433 -12.64746094 16.73925781 C-23.27246552 21.02189768 -33.09047048 26.23774455 -42.89160156 32.13891602 C-46.84103228 34.47526475 -49.36040476 35.73811743 -54 35 C-55.875 33.8125 -55.875 33.8125 -57 32 C-57.2890625 29.58984375 -57.2890625 29.58984375 -57 27 C-47.0829639 14.98936739 -15.53640765 -1.39992366 0 0 Z " fill="#262626" transform="translate(205,58)"/>
<path d="M0 0 C1.8125 1.0625 1.8125 1.0625 3 3 C3.36312414 8.53065995 2.44598257 13.18106703 0.9375 18.4375 C0.71489502 19.21883301 0.49229004 20.00016602 0.26293945 20.80517578 C-3.50250125 33.5175501 -8.75384744 45.51696008 -17 56 C-19.78863007 57.39431504 -21.92078868 57.25660094 -25 57 C-27 54 -27 54 -26.85546875 50.71484375 C-25.92651572 46.68089702 -24.51339455 44.05458601 -22.3125 40.5625 C-15.6164082 29.44295672 -11.85961298 17.50517045 -8.95703125 4.9140625 C-7.40084638 0.17563835 -4.64564273 -0.58070534 0 0 Z " fill="#292929" transform="translate(453,301)"/>
<path d="M0 0 C2.875 0.9375 2.875 0.9375 4.875 3.9375 C5.53372876 6.39406925 6.12887303 8.83368362 6.6875 11.3125 C9.92489182 24.82476044 15.15265331 37.35397996 22.875 48.9375 C23.22884949 51.76829592 23.2670891 53.30580089 21.75 55.75 C18.79192295 57.6234488 17.3105494 57.67850085 13.875 56.9375 C3.63920414 48.19962548 -1.44072062 30.37551295 -5.125 17.9375 C-5.49109375 16.71546875 -5.8571875 15.4934375 -6.234375 14.234375 C-7.22546786 10.56559265 -7.55299363 7.71811042 -7.125 3.9375 C-4.93889371 0.57425955 -4.04330284 -0.08086606 0 0 Z " fill="#282828" transform="translate(63.125,301.0625)"/>
<path d="M0 0 C1.09130722 -0.00953201 2.18261444 -0.01906403 3.30699158 -0.02888489 C4.4903157 -0.02797348 5.67363983 -0.02706207 6.89282227 -0.02612305 C8.10365982 -0.03040817 9.31449738 -0.0346933 10.56202698 -0.03910828 C13.12679417 -0.04486015 15.69157767 -0.04534557 18.25634766 -0.04101562 C22.18949109 -0.03785764 26.12188141 -0.06129858 30.05493164 -0.08666992 C32.5425609 -0.08894294 35.03019218 -0.0896464 37.51782227 -0.08862305 C38.69912216 -0.09783279 39.88042206 -0.10704254 41.09751892 -0.11653137 C42.73920799 -0.10718819 42.73920799 -0.10718819 44.4140625 -0.09765625 C45.37843735 -0.09828568 46.34281219 -0.0989151 47.33641052 -0.0995636 C49.77172852 0.2746582 49.77172852 0.2746582 51.58529663 1.60452271 C53.50999759 4.31391668 53.1060368 6.86430368 53.06469727 10.13012695 C53.06045242 10.79176346 53.05620758 11.45339996 53.05183411 12.13508606 C53.03506545 14.2445273 52.99741951 16.35300666 52.95922852 18.4621582 C52.9441792 19.89378501 52.93049122 21.32542682 52.91821289 22.75708008 C52.88516881 26.26325108 52.83340019 29.76886074 52.77172852 33.2746582 C50.79172852 33.2746582 48.81172852 33.2746582 46.77172852 33.2746582 C46.77172852 24.3646582 46.77172852 15.4546582 46.77172852 6.2746582 C30.60172852 6.2746582 14.43172852 6.2746582 -2.22827148 6.2746582 C-2.22827148 15.1846582 -2.22827148 24.0946582 -2.22827148 33.2746582 C-3.87827148 33.2746582 -5.52827148 33.2746582 -7.22827148 33.2746582 C-7.27765298 28.89641904 -7.31398189 24.51832674 -7.33813477 20.13989258 C-7.34820191 18.64995501 -7.36185666 17.16003723 -7.37915039 15.67016602 C-7.40336801 13.53046792 -7.41474712 11.39103067 -7.42358398 9.2512207 C-7.43929443 7.31883545 -7.43929443 7.31883545 -7.45532227 5.34741211 C-7.06175066 0.02107638 -4.72355374 0.02258585 0 0 Z " fill="#EDEDED" transform="translate(54.228271484375,229.725341796875)"/>
<path d="M0 0 C3.0625 0.25 3.0625 0.25 6.0625 2.25 C6.93999411 8.39245876 4.99401211 11.92817752 1.875 16.9375 C-3.02095081 25.21102501 -6.93715147 33.44780903 -9.5 42.75 C-10.58468768 46.5191382 -11.51022919 49.03235418 -14.9375 51.25 C-17.5 51.6875 -17.5 51.6875 -19.9375 51.25 C-21.59790039 49.98071289 -21.59790039 49.98071289 -22.9375 48.25 C-23.49179116 42.16804593 -21.11385031 35.9202981 -19 30.3125 C-18.5500769 29.10219116 -18.5500769 29.10219116 -18.09106445 27.86743164 C-7.55257178 0.64277207 -7.55257178 0.64277207 0 0 Z " fill="#282828" transform="translate(79.9375,157.75)"/>
<path d="M0 0 C4.13947733 0.75890418 4.43053811 0.94118496 6.6875 4.1875 C7.74993239 5.99704393 8.76477132 7.83478948 9.75 9.6875 C10.22421387 10.56414307 10.22421387 10.56414307 10.70800781 11.45849609 C24.62679708 37.38107342 24.62679708 37.38107342 22.75 49.6875 C21.75 50.6875 21.75 50.6875 19.90234375 50.78515625 C17.8515625 50.75260417 15.80078125 50.72005208 13.75 50.6875 C11.43941563 45.69199077 9.34813987 40.66252361 7.4375 35.5 C4.35987206 27.39145085 0.69942566 19.35345053 -3.94140625 12.01171875 C-5.75476866 8.79097059 -5.59234103 6.31631487 -5.25 2.6875 C-3.25 0.6875 -3.25 0.6875 0 0 Z " fill="#272727" transform="translate(431.25,157.3125)"/>
<path d="M0 0 C2.5 0.25 2.5 0.25 4.5 2.25 C4.5 3.57 4.5 4.89 4.5 6.25 C7.47859946 7.49108311 10.35301239 8.53938989 13.5 9.25 C14.83333333 9.58333333 16.16666667 9.91666667 17.5 10.25 C17.995 12.23 17.995 12.23 18.5 14.25 C16.52 14.91 14.54 15.57 12.5 16.25 C13.94106771 20.44219697 16.10261377 23.83920281 18.57421875 27.48046875 C18.87972656 28.06441406 19.18523437 28.64835937 19.5 29.25 C19.17 29.91 18.84 30.57 18.5 31.25 C17.32750647 29.79634731 16.16216184 28.33692581 15 26.875 C14.3503125 26.06289063 13.700625 25.25078125 13.03125 24.4140625 C11.5 22.25 11.5 22.25 11.5 20.25 C10.84 20.25 10.18 20.25 9.5 20.25 C9.5 19.59 9.5 18.93 9.5 18.25 C8.84 18.25 8.18 18.25 7.5 18.25 C7.995 16.765 7.995 16.765 8.5 15.25 C9.16 14.92 9.82 14.59 10.5 14.25 C9.76881745 11.09619064 9.76881745 11.09619064 7.125 9.5 C4.48385511 7.87017031 4.48385511 7.87017031 1.5 9.25 C1.5 12.88 1.5 16.51 1.5 20.25 C-0.15 20.25 -1.8 20.25 -3.5 20.25 C-4.16 21.57 -4.82 22.89 -5.5 24.25 C-7.48 23.59 -9.46 22.93 -11.5 22.25 C-14.34371005 28.5579086 -14.34371005 28.5579086 -15.5 35.25 C-4.94 35.25 5.62 35.25 16.5 35.25 C16.83 34.26 17.16 33.27 17.5 32.25 C20.25 31.5 20.25 31.5 23.5 31.25 C25.9375 32.8125 25.9375 32.8125 27.5 35.25 C27.4375 38.375 27.4375 38.375 26.5 41.25 C23.5 43.25 23.5 43.25 20.3125 42.875 C19.384375 42.66875 18.45625 42.4625 17.5 42.25 C17.005 40.27 17.005 40.27 16.5 38.25 C12.15761978 38.29420113 7.81663253 38.36408068 3.47509766 38.45751953 C1.99897804 38.48570088 0.52270831 38.50692966 -0.95361328 38.52099609 C-3.07923057 38.54246698 -5.20304879 38.58913043 -7.328125 38.640625 C-8.6059082 38.66157227 -9.88369141 38.68251953 -11.20019531 38.70410156 C-15.03021669 39.33771563 -16.02692736 40.37626984 -18.5 43.25 C-21.40697947 43.74631357 -22.80201593 43.68323149 -25.3125 42.125 C-27.05198782 39.37844028 -26.89769128 37.43153026 -26.5 34.25 C-25.375 32.5 -25.375 32.5 -23.5 31.25 C-22.571875 31.064375 -21.64375 30.87875 -20.6875 30.6875 C-16.23701871 28.6804202 -15.07513103 25.60824382 -12.89453125 21.3671875 C-12.43433594 20.66851562 -11.97414062 19.96984375 -11.5 19.25 C-10.51 19.25 -9.52 19.25 -8.5 19.25 C-11.48646769 17.25902154 -14.09687262 16.30875074 -17.5 15.25 C-17.5 13.6 -17.5 11.95 -17.5 10.25 C-15.85 9.92 -14.2 9.59 -12.5 9.25 C-11.943125 10.36375 -11.38625 11.4775 -10.8125 12.625 C-9.24673198 15.40297552 -8.68104516 16.15536276 -5.75 17.6875 C-5.0075 17.873125 -4.265 18.05875 -3.5 18.25 C-2.00256881 16.75256881 -2.16797307 15.26175761 -1.9375 13.1875 C-1.793125 11.888125 -1.64875 10.58875 -1.5 9.25 C-2.16 9.25 -2.82 9.25 -3.5 9.25 C-4.125 5.875 -4.125 5.875 -4.5 2.25 C-2.5 0.25 -2.5 0.25 0 0 Z " fill="#DBDBDB" transform="translate(256.5,422.75)"/>
<path d="M0 0 C0.33 0 0.66 0 1 0 C1.33 5.94 1.66 11.88 2 18 C2.99 16.68 3.98 15.36 5 14 C7.99488276 13.64480763 10.61642991 13.53372509 13.60546875 13.609375 C14.44467361 13.61503479 15.28387848 13.62069458 16.14851379 13.62652588 C18.82875633 13.64891594 21.50766163 13.69911547 24.1875 13.75 C26.00453798 13.77006168 27.82159692 13.78831303 29.63867188 13.8046875 C34.09296312 13.84878914 38.54625485 13.91783341 43 14 C43 15.65 43 17.3 43 19 C31.78 19.33 20.56 19.66 9 20 C9 20.33 9 20.66 9 21 C17.25 21.33 25.5 21.66 34 22 C34 23.65 34 25.3 34 27 C27.73 27.33 21.46 27.66 15 28 C15 28.33 15 28.66 15 29 C8.4 29.33 1.8 29.66 -5 30 C-5 29.34 -5 28.68 -5 28 C-3.35 28 -1.7 28 0 28 C0 18.76 0 9.52 0 0 Z " fill="#383838" transform="translate(52,236)"/>
<path d="M0 0 C3.75212276 2.01502889 5.63644095 3.45466142 8 7 C8.61414419 11.25912987 8.43727155 14.97241187 6.75 18.9375 C4.42259291 21.6805155 2.37089706 22.83587852 -1.21875 23.265625 C-1.9715625 23.26046875 -2.724375 23.2553125 -3.5 23.25 C-4.2528125 23.25515625 -5.005625 23.2603125 -5.78125 23.265625 C-9.37089706 22.83587852 -11.42259291 21.6805155 -13.75 18.9375 C-15.47281878 14.88887587 -15.72425792 11.33767513 -15 7 C-11.28459424 0.97848031 -6.99933997 -1.09819512 0 0 Z " fill="#F0F0F0" transform="translate(438,242)"/>
<path d="M0 0 C19.8 0 39.6 0 60 0 C60 1.65 60 3.3 60 5 C58 7 58 7 55.60227966 7.24723816 C54.59713821 7.24581314 53.59199677 7.24438812 52.55639648 7.24291992 C51.41859238 7.24599655 50.28078827 7.24907318 49.10850525 7.25224304 C47.87515945 7.24505753 46.64181366 7.23787201 45.37109375 7.23046875 C44.11112076 7.23001053 42.85114777 7.22955231 41.55299377 7.2290802 C38.88553475 7.22605464 36.2184193 7.21922585 33.55102539 7.20581055 C30.12535972 7.18880341 26.6998414 7.18499669 23.27413845 7.18575573 C20.01477555 7.1854191 16.75544377 7.17658533 13.49609375 7.16796875 C11.64303871 7.16629951 11.64303871 7.16629951 9.75254822 7.16459656 C8.0505703 7.15502678 8.0505703 7.15502678 6.31420898 7.14526367 C4.8076902 7.13954597 4.8076902 7.13954597 3.27073669 7.13371277 C1 7 1 7 0 6 C0 4.02 0 2.04 0 0 Z " fill="#F9F9F9" transform="translate(47,267)"/>
<path d="M0 0 C3.70390021 2.02666238 5.65363011 3.48044516 8 7 C8.42740092 12.29977145 8.52351458 15.74748241 5 20 C2.28575479 22.12738138 0.4760723 22.92909561 -2.9375 23.4375 C-7.44345091 22.79379273 -10.55773563 20.83560919 -13.375 17.25 C-14.34165091 13.77005671 -14.68551123 10.536152 -14 7 C-10.47664983 0.90945045 -6.87404234 -0.57283686 0 0 Z " fill="#2B2B2B" transform="translate(213,375)"/>
<path d="M0 0 C12.05357143 -0.53571429 12.05357143 -0.53571429 15.625 1.8125 C18.94084123 4.86656429 19.94502796 6.31834673 20.3125 10.875 C20.20805345 14.66292835 19.45940333 17.01358167 17 20 C13.48396902 22.34402065 10.39733208 22.20794664 6.25 22.125 C3.15625 22.063125 3.15625 22.063125 0 22 C0 14.74 0 7.48 0 0 Z " fill="#343434" transform="translate(176,375)"/>
<path d="M0 0 C2.0625 -0.061875 4.125 -0.12375 6.25 -0.1875 C7.99023438 -0.23970703 7.99023438 -0.23970703 9.765625 -0.29296875 C13.24470888 0.02216566 14.61229244 0.48939573 17 3 C17.25 6 17.25 6 17 9 C17 9.99 17 10.98 17 12 C17.33 12.33 17.66 12.66 18 13 C18.375 15.8125 18.375 15.8125 18 19 C15.24258068 21.87038622 13.65488712 22.92322543 9.66796875 23.390625 C6.4453125 23.26041667 3.22265625 23.13020833 0 23 C0 15.41 0 7.82 0 0 Z " fill="#343434" transform="translate(317,375)"/>
<path d="M0 0 C3.5386994 1.65139305 4.81070153 2.71605229 7 6 C7.34061873 9.0169088 7.57212107 11.09407815 7 14 C4.82425584 16.69105198 3.08934144 18.45532928 0 20 C-4.14135035 20.39069343 -6.31186812 20.43382227 -9.875 18.1875 C-12.62945506 15.35203155 -12.95042575 13.5354019 -13.3125 9.625 C-12.94884973 5.40665686 -11.95115008 3.95115008 -9 1 C-5.93570224 -0.53214888 -3.3834358 -0.22938548 0 0 Z " fill="#272727" transform="translate(375,205)"/>
<path d="M0 0 C3.5386994 1.65139305 4.81070153 2.71605229 7 6 C7.45971784 10.96495273 7.15065843 14.06167696 4 18 C0.57905881 20.56570589 -2.84773484 20.43708054 -7 20 C-9.75329021 18.20437595 -11.52627461 16.94745078 -13 14 C-13.5811138 6.91041162 -13.5811138 6.91041162 -11.125 3.0625 C-7.50882222 -0.44731961 -4.97588405 -0.33734807 0 0 Z " fill="#262626" transform="translate(143,205)"/>
<path d="M0 0 C5.57894737 3.15789474 5.57894737 3.15789474 7 6 C7.5811138 13.08958838 7.5811138 13.08958838 5.125 16.9375 C1.89661432 20.07093316 -0.44929709 20.39218693 -4.9609375 20.359375 C-8.38006698 19.7567698 -9.93189052 17.63213933 -12 15 C-13.45147903 12.09704195 -13.37239025 10.22738221 -13 7 C-9.58798533 1.48730466 -6.4900561 -0.62404386 0 0 Z " fill="#272727" transform="translate(222,120)"/>
<path d="M0 0 C4.99503071 0.4913145 6.31841769 1.88091769 9.8125 5.375 C11.22250664 8.19501327 11.05798451 10.24507255 10.8125 13.375 C9.55146101 16.14928577 8.50160086 17.85817435 6.0625 19.6875 C2.7914382 20.68699111 0.21507412 20.7331657 -3.1875 20.375 C-5.94079021 18.57937595 -7.71377461 17.32245078 -9.1875 14.375 C-9.69448467 9.22065588 -9.69448467 9.22065588 -9.1875 6.375 C-6.75 3.4375 -6.75 3.4375 -4.1875 1.375 C-3.1875 0.375 -3.1875 0.375 0 0 Z " fill="#272727" transform="translate(292.1875,119.625)"/>
<path d="M0 0 C2.86830829 2.01391859 4.61592935 3.45434983 5.48046875 6.93359375 C5.77055907 11.08110127 5.31126311 12.61501668 2.625 15.9375 C-1.16080728 18.91206287 -3.17180697 19.47335226 -8 19 C-10.69990662 17.20006226 -12.5418865 15.916227 -14 13 C-14.70153846 5.86769231 -14.70153846 5.86769231 -11.625 2.0625 C-7.32198817 -1.31843787 -5.37649402 -1.27577824 0 0 Z " fill="#292929" transform="translate(133,293)"/>
<path d="M0 0 C3.64751591 0.28057815 5.34775143 1.07331357 8.25 3.25 C10.76250583 7.01875875 10.78016086 8.78150134 10.25 13.25 C8.34505382 16.46459667 6.89406627 18.62684585 3.3125 19.984375 C-0.58294013 20.72214775 -2.23773178 20.56608039 -5.6875 18.4375 C-8.78544953 15.15179595 -9.13802075 12.8246373 -9.11328125 8.2890625 C-8.50965397 4.900961 -6.3344052 3.33013101 -3.75 1.25 C-2.75 0.25 -2.75 0.25 0 0 Z " fill="#282828" transform="translate(382.75,291.75)"/>
<path d="M0 0 C9.24 0 18.48 0 28 0 C28 1.32 28 2.64 28 4 C22.72 4 17.44 4 12 4 C12 5.32 12 6.64 12 8 C17.28 8 22.56 8 28 8 C28 9.65 28 11.3 28 13 C23.52084672 13.02886338 19.04171709 13.04675187 14.5625 13.0625 C13.28310547 13.07087891 12.00371094 13.07925781 10.68554688 13.08789062 C8.86313477 13.09272461 8.86313477 13.09272461 7.00390625 13.09765625 C5.87799072 13.10289307 4.7520752 13.10812988 3.59204102 13.11352539 C1 13 1 13 0 12 C0 8.04 0 4.08 0 0 Z " fill="#2B2B2B" transform="translate(365,386)"/>
<path d="M0 0 C7.59 0 15.18 0 23 0 C20.86963323 4.26073353 18.2963072 6.71903534 14.8125 9.8125 C13.63564288 10.87511175 12.45985403 11.93890787 11.28515625 13.00390625 C10.43655029 13.77178467 10.43655029 13.77178467 9.57080078 14.55517578 C7.56997564 16.39553686 5.65210477 18.30818532 3.75 20.25 C2.8425 21.1575 1.935 22.065 1 23 C0.67 23 0.34 23 0 23 C0 15.41 0 7.82 0 0 Z " fill="#F1F1F1" transform="translate(137,144)"/>
<path d="M0 0 C1.67542976 0.28604898 3.34385343 0.61781233 5 1 C5 3.64 5 6.28 5 9 C7.64 9 10.28 9 13 9 C13 6.03 13 3.06 13 0 C14.65 0 16.3 0 18 0 C18 7.59 18 15.18 18 23 C16.35 23 14.7 23 13 23 C13 20.03 13 17.06 13 14 C10.03 14 7.06 14 4 14 C4 16.64 4 19.28 4 22 C2.35 22 0.7 22 -1 22 C-1.02887814 18.52085059 -1.04675687 15.04173169 -1.0625 11.5625 C-1.07087891 10.56927734 -1.07925781 9.57605469 -1.08789062 8.55273438 C-1.09111328 7.60849609 -1.09433594 6.66425781 -1.09765625 5.69140625 C-1.10289307 4.81685791 -1.10812988 3.94230957 -1.11352539 3.04125977 C-1 1 -1 1 0 0 Z " fill="#383838" transform="translate(272,375)"/>
<path d="M0 0 C3.68435029 1.04736571 5.06058191 3.38348198 6.9375 6.55078125 C7.5625 9.61328125 7.5625 9.61328125 6.9375 12.55078125 C4.35839807 16.06773843 2.61979237 17.34365678 -1.5625 18.61328125 C-5.81477947 18.53734769 -7.14359213 17.55553935 -10.0625 14.55078125 C-11.63185594 11.41206937 -11.41451103 9.01222303 -11.0625 5.55078125 C-8.03486999 1.10394968 -5.24561543 -0.34772072 0 0 Z " fill="#7E7E7E" transform="translate(384.0625,129.44921875)"/>
<path d="M0 0 C1.2065625 0.0309375 1.2065625 0.0309375 2.4375 0.0625 C2.4375 0.7225 2.4375 1.3825 2.4375 2.0625 C3.0975 2.0625 3.7575 2.0625 4.4375 2.0625 C5.545324 3.69939035 6.59946738 5.37283528 7.625 7.0625 C9.39227676 9.8275938 9.39227676 9.8275938 11.4375 12.0625 C15.23845012 12.90203267 15.23845012 12.90203267 18.4375 12.0625 C19.0975 13.7125 19.7575 15.3625 20.4375 17.0625 C19.90125 16.546875 19.365 16.03125 18.8125 15.5 C16.45298747 13.7646144 16.45298747 13.7646144 13.3125 14.25 C10.33595558 14.83860918 10.33595558 14.83860918 8.4375 17.0625 C5.59148985 17.12436979 2.89293071 17.06071763 0.0625 16.875 C-0.70578125 16.84341797 -1.4740625 16.81183594 -2.265625 16.77929688 C-6.55355712 16.52335629 -9.37062559 16.22877114 -12.5625 13.0625 C-12.2325 12.4025 -11.9025 11.7425 -11.5625 11.0625 C-10.9025 11.3925 -10.2425 11.7225 -9.5625 12.0625 C-10.2225 11.4025 -10.8825 10.7425 -11.5625 10.0625 C-11.1875 7.9375 -11.1875 7.9375 -10.5625 6.0625 C-8.2525 6.3925 -5.9425 6.7225 -3.5625 7.0625 C-3.583125 6.093125 -3.60375 5.12375 -3.625 4.125 C-3.54257968 0.08640438 -3.54257968 0.08640438 0 0 Z " fill="#2E2E2E" transform="translate(263.5625,440.9375)"/>
<path d="M0 0 C1.65 0 3.3 0 5 0 C5.06058594 1.05960937 5.12117187 2.11921875 5.18359375 3.2109375 C5.26800127 4.59897221 5.35264917 5.98699232 5.4375 7.375 C5.47681641 8.07367188 5.51613281 8.77234375 5.55664062 9.4921875 C5.74280134 13.37360492 5.74280134 13.37360492 7 17 C10.29075996 16.62095792 10.29075996 16.62095792 13 15 C13.23527773 12.65012738 13.41386417 10.29443961 13.5625 7.9375 C13.64628906 6.64714844 13.73007812 5.35679687 13.81640625 4.02734375 C13.87699219 3.02832031 13.93757813 2.02929688 14 1 C15.32 1 16.64 1 18 1 C18.16262928 3.73156959 18.28110686 6.45342122 18.375 9.1875 C18.45041016 10.34088867 18.45041016 10.34088867 18.52734375 11.51757812 C18.67157478 17.11854993 18.67157478 17.11854993 16.74536133 19.64672852 C14.21096004 21.84613852 12.24444083 22.95510271 8.9375 23.5625 C5.32218892 22.87020639 3.61891584 21.54408967 1 19 C-0.65497356 15.69005287 -0.10084335 12.00877 -0.0625 8.375 C-0.05798828 7.57320313 -0.05347656 6.77140625 -0.04882812 5.9453125 C-0.03703168 3.96350994 -0.01909605 1.98174567 0 0 Z " fill="#3D3D3D" transform="translate(248,375)"/>
<path d="M0 0 C2.5625 1.4375 2.5625 1.4375 4 3 C4 3.66 4 4.32 4 5 C2.02 5.99 2.02 5.99 0 7 C-0.99 6.34 -1.98 5.68 -3 5 C-5.54207971 4.66656449 -5.54207971 4.66656449 -8 5 C-10.30746414 6.87773264 -10.30746414 6.87773264 -10.25 9.9375 C-10.23517754 13.17282787 -10.23517754 13.17282787 -8 16 C-4.1831068 16.51579638 -1.45792689 15.58076658 2 14 C2.66 15.32 3.32 16.64 4 18 C-3.80450358 22.99488229 -3.80450358 22.99488229 -9 22 C-12.41936465 19.90683753 -14.7027752 17.8916744 -16 14 C-16.67195988 7.16840786 -16.67195988 7.16840786 -14.953125 4.1796875 C-10.24222771 -1.55652272 -6.88142101 -1.40561886 0 0 Z " fill="#2F2F2F" transform="translate(240,376)"/>
<path d="M0 0 C1.65 0 3.3 0 5 0 C5.1083667 2.7302389 5.18746694 5.45614543 5.25 8.1875 C5.30027344 9.34088867 5.30027344 9.34088867 5.3515625 10.51757812 C5.42066039 14.54253008 5.31755003 16.49808724 3.109375 19.98828125 C0.61313039 22.36895898 -0.39638799 22.9195184 -3.8125 23.375 C-7 23 -7 23 -9.6796875 21.02734375 C-12.80173244 16.95396861 -12.58322449 14.15633559 -12.3125 9.1875 C-12.28994141 8.39923828 -12.26738281 7.61097656 -12.24414062 6.79882812 C-12.18554161 4.86506071 -12.09586827 2.93227833 -12 1 C-10.68 1 -9.36 1 -8 1 C-7.95101563 1.98742187 -7.90203125 2.97484375 -7.8515625 3.9921875 C-7.77679688 5.27351563 -7.70203125 6.55484375 -7.625 7.875 C-7.55539062 9.15117187 -7.48578125 10.42734375 -7.4140625 11.7421875 C-7.32758894 15.08061699 -7.32758894 15.08061699 -5 17 C-3.68 16.67 -2.36 16.34 -1 16 C-0.67 10.72 -0.34 5.44 0 0 Z " fill="#333333" transform="translate(307,375)"/>
<path d="M0 0 C2.31 0 4.62 0 7 0 C7 9.9 7 19.8 7 30 C4.69 30 2.38 30 0 30 C0 20.1 0 10.2 0 0 Z " fill="#383838" transform="translate(397,360)"/>
<path d="M0 0 C4.29 0 8.58 0 13 0 C13 0.66 13 1.32 13 2 C9.3558226 4.4294516 7.28758728 4.16179575 3 4 C3.62533375 6.52363988 3.62533375 6.52363988 5 9 C7.48400985 9.66347631 7.48400985 9.66347631 10 10 C10.99 11.485 10.99 11.485 12 13 C9.69 13 7.38 13 5 13 C5 14.65 5 16.3 5 18 C7.31 18 9.62 18 12 18 C12.33 19.65 12.66 21.3 13 23 C8.71 23 4.42 23 0 23 C0 15.41 0 7.82 0 0 Z " fill="#454545" transform="translate(317,375)"/>
<path d="M0 0 C2.5 0.25 2.5 0.25 4.5 2.25 C4.5 3.57 4.5 4.89 4.5 6.25 C7.47859946 7.49108311 10.35301239 8.53938989 13.5 9.25 C14.83333333 9.58333333 16.16666667 9.91666667 17.5 10.25 C17.83 11.57 18.16 12.89 18.5 14.25 C16.52 14.91 14.54 15.57 12.5 16.25 C13.94106771 20.44219697 16.10261377 23.83920281 18.57421875 27.48046875 C18.87972656 28.06441406 19.18523437 28.64835937 19.5 29.25 C19.17 29.91 18.84 30.57 18.5 31.25 C17.32750647 29.79634731 16.16216184 28.33692581 15 26.875 C14.3503125 26.06289063 13.700625 25.25078125 13.03125 24.4140625 C11.5 22.25 11.5 22.25 11.5 20.25 C10.84 20.25 10.18 20.25 9.5 20.25 C9.5 19.59 9.5 18.93 9.5 18.25 C8.84 18.25 8.18 18.25 7.5 18.25 C7.83 17.26 8.16 16.27 8.5 15.25 C9.16 14.92 9.82 14.59 10.5 14.25 C9.25453595 10.51360784 7.86595047 10.06243487 4.5 8.25 C1.37393036 9.85480784 1.37393036 9.85480784 0.98828125 12.1953125 C0.93027344 12.91460937 0.87226563 13.63390625 0.8125 14.375 C0.6578125 16.293125 0.6578125 16.293125 0.5 18.25 C0.17 18.25 -0.16 18.25 -0.5 18.25 C-0.603125 16.991875 -0.70625 15.73375 -0.8125 14.4375 C-1.23421417 10.90254295 -1.86238993 9.65825267 -4.5 7.25 C-4.8125 4.6875 -4.8125 4.6875 -4.5 2.25 C-2.5 0.25 -2.5 0.25 0 0 Z " fill="#EBEBEB" transform="translate(256.5,422.75)"/>
<path d="M0 0 C2.375 1.5625 2.375 1.5625 4 4 C4.56783945 7.97487617 4.62340519 10.06489221 2.375 13.4375 C-0.71685231 15.47161336 -2.36367425 15.60605429 -6 15 C-8.375 13.4375 -8.375 13.4375 -10 11 C-10.56783945 7.02512383 -10.62340519 4.93510779 -8.375 1.5625 C-5.28314769 -0.47161336 -3.63632575 -0.60605429 0 0 Z " fill="#282828" transform="translate(131,373)"/>
<path d="M0 0 C1.9375 1.0625 1.9375 1.0625 3 3 C3.49891602 6.92005446 3.55253414 9.11594538 1.4375 12.5 C-1 14 -1 14 -4.625 13.875 C-8 13 -8 13 -10 11 C-10.55239643 4.03980504 -10.55239643 4.03980504 -8.9375 1 C-5.86784865 -0.58433618 -3.38318857 -0.36248449 0 0 Z " fill="#757575" transform="translate(438,247)"/>
<path d="M0 0 C12.54 0 25.08 0 38 0 C38 1.32 38 2.64 38 4 C25.46 4 12.92 4 0 4 C0 2.68 0 1.36 0 0 Z " fill="#EEEEEE" transform="translate(57,250)"/>
<path d="M0 0 C2.82424288 2.19022918 4.41508603 3.83017207 6 7 C6.37766377 12.00404498 6.11200434 14.99885156 3 19 C1.09180914 21.12836673 -0.2583174 21.88589498 -3.08203125 22.3203125 C-7.07906013 22.51916966 -9.41645371 22.33522872 -12.9375 20.3125 C-16.1938779 16.66140963 -17.05062582 14.41752283 -16.875 9.5 C-15.92080906 5.68323625 -14.71834365 3.8007177 -12 1 C-8.28546768 -0.85726616 -4.04420575 -0.58501089 0 0 Z M-14 7 C-14.66350721 11.12848931 -14.43514338 13.19933618 -12.4375 16.875 C-9.23599794 19.66605308 -7.21894271 20 -3 20 C0.57387602 18.41161066 1.81089572 17.28365642 4 14 C4.64039015 9.8832062 4.14740698 8.24874927 2 4.625 C-1.16747449 1.8152954 -1.16747449 1.8152954 -5 1.3125 C-9.40441484 1.67953457 -11.49276162 3.31749363 -14 7 Z " fill="#ECECEC" transform="translate(387,128)"/>
<path d="M0 0 C0.99 0.495 0.99 0.495 2 1 C2.1826859 2.93167875 2.26877959 4.87269448 2.3125 6.8125 C3.0092288 17.594083 7.21032056 27.3914759 15 35 C18.17913723 37.36876891 21.4185388 39.3043297 25 41 C25.57057129 41.27142822 26.14114258 41.54285645 26.72900391 41.82250977 C32.35578617 44.24039003 37.43911545 44.35928379 43.5 44.1875 C44.4178125 44.17396484 45.335625 44.16042969 46.28125 44.14648438 C48.52146803 44.11148097 50.76040594 44.06238869 53 44 C52.34 44.99 51.68 45.98 51 47 C48.4365751 47.33954673 46.18903252 47.47471554 43.625 47.4375 C42.90691162 47.42992676 42.18882324 47.42235352 41.44897461 47.41455078 C28.56609685 47.02194612 17.50219699 41.3831218 8.63671875 32.125 C2.52505523 24.19004784 -0.16234529 16.07218325 -0.0625 6.1875 C-0.05347656 5.02605469 -0.04445313 3.86460937 -0.03515625 2.66796875 C-0.02355469 1.78753906 -0.01195313 0.90710938 0 0 Z " fill="#EEEEEE" transform="translate(86,372)"/>
<path d="M0 0 C2.7912125 1.98322993 3.82597224 3.12986121 4.5 6.5 C3.82597224 9.87013879 2.7912125 11.01677007 0 13 C-3.70758991 13.61793165 -5.2935202 13.50197249 -8.375 11.3125 C-10 9 -10 9 -10.5 6.5 C-9.33827182 0.69135908 -5.5534724 -0.92557873 0 0 Z " fill="#2A2A2A" transform="translate(322,105)"/>
<path d="M0 0 C9.57 0 19.14 0 29 0 C29 1.65 29 3.3 29 5 C19.43 5 9.86 5 0 5 C0 3.35 0 1.7 0 0 Z " fill="#474747" transform="translate(365,360)"/>
<path d="M0 0 C9.57 0 19.14 0 29 0 C29 1.65 29 3.3 29 5 C19.43 5 9.86 5 0 5 C0 3.35 0 1.7 0 0 Z " fill="#383838" transform="translate(117,123)"/>
<path d="M0 0 C1.9375 1.0625 1.9375 1.0625 3 3 C3.4375 6.5 3.4375 6.5 3 10 C0.76679398 12.66266871 -0.6200117 12.95347082 -4.0625 13.375 C-7 13 -7 13 -8.875 11.9375 C-10.64273274 8.8930714 -10.36823916 6.4368988 -10 3 C-7.77766882 -1.05248626 -4.20052866 -0.45005664 0 0 Z " fill="#292929" transform="translate(197,105)"/>
<path d="M0 0 C3.375 0.875 3.375 0.875 5.375 2.875 C5.92087156 8.87958716 5.92087156 8.87958716 4.3125 11.8125 C1.25523824 13.4890629 -1.2156288 13.24028977 -4.625 12.875 C-6.5625 11.75 -6.5625 11.75 -7.625 9.875 C-8.16352618 6.25918138 -8.04736225 4.53388511 -6.0625 1.4375 C-3.625 -0.125 -3.625 -0.125 0 0 Z " fill="#797979" transform="translate(88.625,316.125)"/>
<path d="M0 0 C2.4375 1.5625 2.4375 1.5625 4 4 C3.9375 7.625 3.9375 7.625 3 11 C-0.46923881 13.31282587 -1.92205575 13.42478586 -6 13 C-7.875 11.9375 -7.875 11.9375 -9 10 C-9.63316583 4.09045226 -9.63316583 4.09045226 -7.875 1.0625 C-5.06487736 -0.52990283 -3.17235276 -0.45319325 0 0 Z " fill="#7A7A7A" transform="translate(427,316)"/>
<path d="M0 0 C3.54052324 0.84156495 6.89124141 1.91850889 10.31640625 3.1484375 C11.50363281 3.56867187 12.69085938 3.98890625 13.9140625 4.421875 C16.95488784 5.65243122 19.47288337 7.05549676 22.25390625 8.7734375 C24.83743521 10.10703396 27.45414482 11.37224149 30.06640625 12.6484375 C35.659265 15.41814939 41.14836533 18.15701268 46.25390625 21.7734375 C46.25390625 22.4334375 46.25390625 23.0934375 46.25390625 23.7734375 C47.05828125 24.0209375 47.86265625 24.2684375 48.69140625 24.5234375 C51.25390625 25.7734375 51.25390625 25.7734375 52.19140625 27.7109375 C52.25390625 29.7734375 52.25390625 29.7734375 50.25390625 32.7734375 C50.03863281 31.86207031 49.82335937 30.95070313 49.6015625 30.01171875 C47.93176093 25.99935498 46.4256985 25.10616922 42.69140625 22.9609375 C42.11624268 22.62964844 41.5410791 22.29835938 40.94848633 21.95703125 C39.70318906 21.24666346 38.45254371 20.54560559 37.19726562 19.85302734 C35.26495012 18.77957267 33.36177578 17.66446751 31.45703125 16.54296875 C19.68862799 9.79908119 7.18470981 5.72991395 -5.74609375 1.7734375 C-2.74609375 -0.2265625 -2.74609375 -0.2265625 0 0 Z " fill="#ECECEC" transform="translate(313.74609375,56.2265625)"/>
<path d="M0 0 C2.375 1.5625 2.375 1.5625 4 4 C3.9375 7.625 3.9375 7.625 3 11 C-0.46923881 13.31282587 -1.92205575 13.42478586 -6 13 C-7.875 11.9375 -7.875 11.9375 -9 10 C-9.4375 6.5 -9.4375 6.5 -9 3 C-6.35893733 -0.03233122 -3.92985113 -0.68772395 0 0 Z " fill="#7B7B7B" transform="translate(91,187)"/>
<path d="M0 0 C3.375 0.9375 3.375 0.9375 5.375 3.9375 C5.1875 7.5 5.1875 7.5 4.375 10.9375 C0.90576119 13.25032587 -0.54705575 13.36228586 -4.625 12.9375 C-6.5 11.8125 -6.5 11.8125 -7.625 9.9375 C-8.16352618 6.32168138 -8.04736225 4.59638511 -6.0625 1.5 C-3.625 -0.0625 -3.625 -0.0625 0 0 Z " fill="#7B7B7B" transform="translate(424.625,187.0625)"/>
<path d="M0 0 C1.8125 1.1875 1.8125 1.1875 3 3 C2.875 6.0625 2.875 6.0625 2 9 C-1 11 -1 11 -4.0625 10.875 C-5.031875 10.58625 -6.00125 10.2975 -7 10 C-7.66 8.68 -8.32 7.36 -9 6 C-21.87 5.505 -21.87 5.505 -35 5 C-35 4.67 -35 4.34 -35 4 C-34.22285645 3.98541748 -33.44571289 3.97083496 -32.64501953 3.95581055 C-29.13783312 3.88153022 -25.6316199 3.78480411 -22.125 3.6875 C-20.90167969 3.66494141 -19.67835938 3.64238281 -18.41796875 3.61914062 C-17.25136719 3.58369141 -16.08476562 3.54824219 -14.8828125 3.51171875 C-13.80402832 3.48553467 -12.72524414 3.45935059 -11.61376953 3.43237305 C-10.75122559 3.28968994 -9.88868164 3.14700684 -9 3 C-8.34 2.01 -7.68 1.02 -7 0 C-3.83170302 -1.05609899 -3.01480825 -1.13055309 0 0 Z " fill="#F6F6F6" transform="translate(281,455)"/>
<path d="M0 0 C0.33 0 0.66 0 1 0 C2.56500283 9.74724589 1.79466401 17.01094695 -3.546875 25.44140625 C-5.25467725 27.75634004 -7.05683873 29.87982196 -9 32 C-9.55042969 32.62777344 -10.10085938 33.25554687 -10.66796875 33.90234375 C-17.17095484 40.46275135 -27.25858477 44.75513605 -36.48046875 45.1484375 C-39.05041911 44.91571237 -41.48889313 44.58521558 -44 44 C-44 43.67 -44 43.34 -44 43 C-42.98421875 42.92523438 -41.9684375 42.85046875 -40.921875 42.7734375 C-28.6181678 41.67810747 -18.32570457 38.61781537 -9.68359375 29.203125 C-2.96498269 20.41125346 -0.94697238 10.76558069 0 0 Z " fill="#E9E9E9" transform="translate(424,374)"/>
<path d="M0 0 C1.8125 1.0625 1.8125 1.0625 3 3 C3.63316583 8.90954774 3.63316583 8.90954774 1.875 11.9375 C-0.88980433 13.50422245 -2.88188517 13.38976435 -6 13 C-7.875 11.9375 -7.875 11.9375 -9 10 C-9.4375 6.5 -9.4375 6.5 -9 3 C-6.34915657 -0.04356098 -3.94419493 -0.60679922 0 0 Z " fill="#2A2A2A" transform="translate(405,193)"/>
<path d="M0 0 C2 2 2 2 2.375 5.4375 C2 9 2 9 0.4375 11 C-3.01629789 12.41694272 -5.42881972 11.87594988 -9 11 C-10.52491998 7.95016004 -10.23562548 5.3576631 -10 2 C-7.70689559 -2.31643184 -4.20602073 -0.99415036 0 0 Z " fill="#2A2A2A" transform="translate(114,194)"/>
<path d="M0 0 C0 0.99 0 1.98 0 3 C-10.33894329 12.87000633 -25.17278718 18.94471497 -38.125 24.5 C-38.90617187 24.83837891 -39.68734375 25.17675781 -40.4921875 25.52539062 C-51.31613169 30.03225704 -51.31613169 30.03225704 -56.4375 28.0625 C-57.2109375 27.5365625 -57.2109375 27.5365625 -58 27 C-57.319375 26.85304688 -56.63875 26.70609375 -55.9375 26.5546875 C-35.28102057 21.77512976 -17.011206 12.51433067 0 0 Z " fill="#F1F1F1" transform="translate(365,427)"/>
<path d="M0 0 C2 2 2 2 2.375 4.875 C2 8 2 8 0.375 10.4375 C-2 12 -2 12 -5.125 11.9375 C-8 11 -8 11 -10 8 C-10.32443143 4.88545823 -10.45929053 2.83752979 -8.9375 0.0625 C-5.81651045 -1.6490104 -3.35466116 -0.79291991 0 0 Z " fill="#F0F0F0" transform="translate(214,381)"/>
<path d="M0 0 C2 3 2 3 1.8125 5.5 C0.91447755 8.26314599 0.42840184 9.4089781 -2 11 C-5.0625 11.3125 -5.0625 11.3125 -8 11 C-10 9 -10 9 -10.3125 5.5625 C-10 2 -10 2 -8.9375 0 C-5.77203476 -1.63378851 -3.34979714 -0.85267564 0 0 Z " fill="#7D7D7D" transform="translate(408,312)"/>
<path d="M0 0 C1.8125 1.125 1.8125 1.125 3 3 C3.39365568 6.14924548 3.52854531 8.11909116 1.875 10.875 C-0.91106042 12.54663625 -2.81988862 12.46376624 -6 12 C-7.9375 10.375 -7.9375 10.375 -9 8 C-8.875 4.875 -8.875 4.875 -8 2 C-4.76746204 -0.15502531 -3.74849077 -0.46856135 0 0 Z " fill="#7C7C7C" transform="translate(111,311)"/>
<path d="M0 0 C6.3782235 -0.36103152 6.3782235 -0.36103152 8.9375 1.125 C10.52990283 3.93512264 10.45319325 5.82764724 10 9 C8.375 11.375 8.375 11.375 6 13 C4.02 13 2.04 13 0 13 C0 8.71 0 4.42 0 0 Z " fill="#E5E5E5" transform="translate(181,380)"/>
<path d="M0 0 C9.57 0 19.14 0 29 0 C29 1.32 29 2.64 29 4 C19.43 4 9.86 4 0 4 C0 2.68 0 1.36 0 0 Z " fill="#EDEDED" transform="translate(57,259)"/>
<path d="M0 0 C9.57 0 19.14 0 29 0 C29 1.32 29 2.64 29 4 C19.43 4 9.86 4 0 4 C0 2.68 0 1.36 0 0 Z " fill="#2C2C2C" transform="translate(117,133)"/>
<path d="M0 0 C9.24 0 18.48 0 28 0 C28 1.32 28 2.64 28 4 C18.76 4 9.52 4 0 4 C0 2.68 0 1.36 0 0 Z " fill="#272727" transform="translate(365,369)"/>
<path d="M0 0 C0.66 0.33 1.32 0.66 2 1 C1.5908418 9.04677801 -0.89263501 15.61076003 -4 23 C-4.309375 23.77214844 -4.61875 24.54429687 -4.9375 25.33984375 C-6.96833346 30.20840433 -9.47394003 34.7862158 -12.0625 39.375 C-12.40321533 39.9827124 -12.74393066 40.5904248 -13.0949707 41.21655273 C-14.79145124 44.16794144 -16.41344712 46.75993239 -19 49 C-19.99 48.67 -20.98 48.34 -22 48 C-21.5875 47.5359375 -21.175 47.071875 -20.75 46.59375 C-10.05184929 33.79417683 -2.81638727 16.41273963 0 0 Z " fill="#EAEAEA" transform="translate(455,311)"/>
<path d="M0 0 C1.38125018 2.76250036 1.19079306 4.94731099 1 8 C-1 10 -1 10 -4.5 10.3125 C-6.2325 10.1578125 -6.2325 10.1578125 -8 10 C-10.15502531 6.76746204 -10.46856135 5.74849077 -10 2 C-7.59587398 -2.24257532 -4.222762 -1.01659085 0 0 Z " fill="#2A2A2A" transform="translate(206,421)"/>
<path d="M0 0 C1.48693359 0.00386719 1.48693359 0.00386719 3.00390625 0.0078125 C3.99261719 0.00523438 4.98132813 0.00265625 6 0 C8.56640625 0.1328125 8.56640625 0.1328125 10.56640625 1.1328125 C10.23640625 3.4428125 9.90640625 5.7528125 9.56640625 8.1328125 C5.60640625 8.1328125 1.64640625 8.1328125 -2.43359375 8.1328125 C-2.81422596 5.8067268 -3.1462932 3.47225986 -3.43359375 1.1328125 C-2.43359375 0.1328125 -2.43359375 0.1328125 0 0 Z " fill="#313131" transform="translate(378.43359375,113.8671875)"/>
<path d="M0 0 C1.39431504 2.78863007 1.25660094 4.92078868 1 8 C-2.8503105 10.56687367 -4.58569763 9.83288724 -9 9 C-10.32 2.64 -10.32 2.64 -9 0 C-5.82445422 -1.58777289 -3.3544356 -0.80754931 0 0 Z " fill="#737373" transform="translate(315,421)"/>
<path d="M0 0 C1.32 0 2.64 0 4 0 C4.10812003 2.75105422 4.18734945 5.49785087 4.25 8.25 C4.30027344 9.41595703 4.30027344 9.41595703 4.3515625 10.60546875 C4.4165057 14.40464575 4.43594133 16.37285633 2.21875 19.5625 C0 21 0 21 -3.75 20.75 C-4.8225 20.5025 -5.895 20.255 -7 20 C-5 18 -3 16 -1 14 C-0.76472227 11.65012738 -0.58613583 9.29443961 -0.4375 6.9375 C-0.35371094 5.64714844 -0.26992188 4.35679687 -0.18359375 3.02734375 C-0.12300781 2.02832031 -0.06242187 1.02929688 0 0 Z " fill="#242424" transform="translate(262,376)"/>
<path d="M0 0 C2.97 0 5.94 0 9 0 C9 1.65 9 3.3 9 5 C10.32 5 11.64 5 13 5 C13 5.99 13 6.98 13 8 C7.06 8 1.12 8 -5 8 C-5 7.01 -5 6.02 -5 5 C-3.35 5 -1.7 5 0 5 C0 3.35 0 1.7 0 0 Z " fill="#EBEBEB" transform="translate(73,276)"/>
<path d="M0 0 C2.9375 0.8125 2.9375 0.8125 4.9375 2.8125 C5.30237512 5.65852594 5.33949375 7.1989306 3.75 9.625 C1.28842224 11.23775784 -0.17315736 11.2459014 -3.0625 10.8125 C-4.875 9.625 -4.875 9.625 -6.0625 7.8125 C-6.4943188 4.93370803 -6.44207373 3.44512288 -4.9375 0.9375 C-3.0625 -0.1875 -3.0625 -0.1875 0 0 Z " fill="#808080" transform="translate(330.0625,412.1875)"/>
<path d="M0 0 C3.5 0.25 3.5 0.25 5.5 2.25 C5.86487512 5.09602594 5.90199375 6.6364306 4.3125 9.0625 C1.85092224 10.67525784 0.38934264 10.6834014 -2.5 10.25 C-4.3125 9.0625 -4.3125 9.0625 -5.5 7.25 C-5.8125 4.6875 -5.8125 4.6875 -5.5 2.25 C-3.5 0.25 -3.5 0.25 0 0 Z " fill="#7D7D7D" transform="translate(182.5,412.75)"/>
<path d="M0 0 C3.96 0 7.92 0 12 0 C12 2.31 12 4.62 12 7 C9.75487738 8.12256131 8.48543351 8.13413762 6 8.125 C4.948125 8.12886719 4.948125 8.12886719 3.875 8.1328125 C2 8 2 8 0 7 C0 4.69 0 2.38 0 0 Z " fill="#313131" transform="translate(376,155)"/>
<path d="M0 0 C1.32 0 2.64 0 4 0 C4.04898437 0.96421875 4.09796875 1.9284375 4.1484375 2.921875 C4.22320312 4.18515625 4.29796875 5.4484375 4.375 6.75 C4.44460938 8.00296875 4.51421875 9.2559375 4.5859375 10.546875 C4.95323304 13.60998121 5.39711286 15.41974266 7 18 C6.34 18.99 5.68 19.98 5 21 C1.125 19.25 1.125 19.25 0 17 C-0.07194869 14.11629667 -0.09291708 11.25760336 -0.0625 8.375 C-0.05798828 7.57320313 -0.05347656 6.77140625 -0.04882812 5.9453125 C-0.03703168 3.96350994 -0.01909605 1.98174567 0 0 Z " fill="#232323" transform="translate(295,376)"/>
<path d="M0 0 C12.54 0 25.08 0 38 0 C38 0.33 38 0.66 38 1 C33.545 1.495 33.545 1.495 29 2 C29 2.33 29 2.66 29 3 C19.76 3 10.52 3 1 3 C0.67 2.01 0.34 1.02 0 0 Z " fill="#1B1B1B" transform="translate(57,255)"/>
<path d="M0 0 C1.32 0 2.64 0 4 0 C4.556875 1.11375 5.11375 2.2275 5.6875 3.375 C7.25326802 6.15297552 7.81895484 6.90536276 10.75 8.4375 C11.4925 8.623125 12.235 8.80875 13 9 C14.96822886 7.03177114 14.66248381 3.65191291 15 1 C15.99 1 16.98 1 18 1 C18 4.3 18 7.6 18 11 C16.35 11 14.7 11 13 11 C12.34 12.32 11.68 13.64 11 15 C10.938125 14.401875 10.87625 13.80375 10.8125 13.1875 C9.64290474 10.03858968 7.97545183 9.45466534 5 8 C3.01548229 7.28856912 1.01797888 6.61008664 -1 6 C-1.042721 4.33388095 -1.04063832 2.66617115 -1 1 C-0.67 0.67 -0.34 0.34 0 0 Z " fill="#D5D5D5" transform="translate(240,432)"/>
<path d="M0 0 C9.24 0 18.48 0 28 0 C28 0.99 28 1.98 28 3 C18.76 3 9.52 3 0 3 C0 2.01 0 1.02 0 0 Z " fill="#1C1C1C" transform="translate(365,378)"/>
<path d="M0 0 C-0.66644531 0.1959375 -1.33289063 0.391875 -2.01953125 0.59375 C-12.80048654 4.09190612 -22.21920759 10.01837452 -28 20 C-29.46903502 22.95188541 -30.79276338 25.93219871 -32 29 C-33.1640625 27.30859375 -33.1640625 27.30859375 -34 25 C-33.0234375 22.59765625 -33.0234375 22.59765625 -31.375 20.0625 C-30.84648438 19.22847656 -30.31796875 18.39445312 -29.7734375 17.53515625 C-24.69206493 10.27125582 -9.55122164 -6.36748109 0 0 Z " fill="#F4F4F4" transform="translate(123,97)"/>
<path d="M0 0 C-1.05389288 3.13448141 -1.94930575 3.9704687 -4.86328125 5.66796875 C-6.00152344 6.16941406 -7.13976562 6.67085938 -8.3125 7.1875 C-9.44300781 7.69667969 -10.57351563 8.20585937 -11.73828125 8.73046875 C-20.25568414 12.04562556 -32.34753025 12.79322009 -41 9.5 C-41.99 9.005 -42.98 8.51 -44 8 C-41 7 -41 7 -38 8 C-23.42106845 9.35093627 -11.90313601 0 0 0 Z " fill="#ECECEC" transform="translate(284,473)"/>
<path d="M0 0 C6.6 0 13.2 0 20 0 C20 1.32 20 2.64 20 4 C13.4 4 6.8 4 0 4 C0 2.68 0 1.36 0 0 Z " fill="#242424" transform="translate(373,352)"/>
<path d="M0 0 C3.96 0 7.92 0 12 0 C9 3 9 3 5.3125 3.1875 C3.6728125 3.0946875 3.6728125 3.0946875 2 3 C2.62533375 5.52363988 2.62533375 5.52363988 4 8 C6.48400985 8.66347631 6.48400985 8.66347631 9 9 C9.99 10.485 9.99 10.485 11 12 C9.88625 12.12375 8.7725 12.2475 7.625 12.375 C3.96896323 12.6465813 3.96896323 12.6465813 2 15 C1.34 15 0.68 15 0 15 C0 10.05 0 5.1 0 0 Z " fill="#1E1E1E" transform="translate(318,376)"/>
<path d="M0 0 C3 1 3 1 4.8125 4.5625 C5.55200001 6.37080861 6.27933125 8.1841044 7 10 C7.54119671 11.26842979 8.08289752 12.53664456 8.625 13.8046875 C11.79142413 21.4403921 14.20363274 27.66626165 12 36 C11.67 36 11.34 36 11 36 C10.92523438 35.319375 10.85046875 34.63875 10.7734375 33.9375 C9.37457443 23.62431341 5.99384909 13.93238457 1.30859375 4.6484375 C0 2 0 2 0 0 Z " fill="#F5F5F5" transform="translate(443,170)"/>
<path d="M0 0 C0.99 0 1.98 0 3 0 C2.74379316 1.6065676 2.46944129 3.2102483 2.1875 4.8125 C2.03667969 5.70582031 1.88585937 6.59914063 1.73046875 7.51953125 C0.93751231 10.21219082 0.24920115 11.34910851 -2 13 C-5.34192692 12.75546876 -6.60543557 12.39456443 -9 10 C-8.625 7.875 -8.625 7.875 -8 6 C-5.69 6.33 -3.38 6.66 -1 7 C-1.020625 6.030625 -1.04125 5.06125 -1.0625 4.0625 C-1 1 -1 1 0 0 Z " fill="#EEEEEE" transform="translate(261,441)"/>
<path d="M0 0 C4.55555556 0.55555556 4.55555556 0.55555556 6 2 C6.125 5 6.125 5 6 8 C5 9 5 9 2.0625 9.1875 C-1 9 -1 9 -3 7 C-2.67028521 3.70285207 -2.3773161 2.3773161 0 0 Z " fill="#F0F0F0" transform="translate(380,134)"/>
<path d="M0 0 C5.28 0 10.56 0 16 0 C16 1.32 16 2.64 16 4 C10.72 4 5.44 4 0 4 C0 2.68 0 1.36 0 0 Z " fill="#F3F3F3" transform="translate(57,241)"/>
<path d="M0 0 C5.28 0 10.56 0 16 0 C16 1.32 16 2.64 16 4 C10.72 4 5.44 4 0 4 C0 2.68 0 1.36 0 0 Z " fill="#292929" transform="translate(117,143)"/>
<path d="M0 0 C0 0.66 0 1.32 0 2 C-3.0148822 3.32647605 -6.03780968 4.63356202 -9.0625 5.9375 C-10.33383789 6.49727539 -10.33383789 6.49727539 -11.63085938 7.06835938 C-23.2619299 12.05310389 -23.2619299 12.05310389 -28.4375 10.0625 C-28.953125 9.711875 -29.46875 9.36125 -30 9 C-29.319375 8.85304688 -28.63875 8.70609375 -27.9375 8.5546875 C-20.79437685 6.90189039 -14.06932095 4.65406825 -7.2578125 1.98193359 C-2.18246397 0 -2.18246397 0 0 0 Z " fill="#E9E9E9" transform="translate(337,445)"/>
<path d="M0 0 C0.99 0.495 0.99 0.495 2 1 C2.1826859 2.93167875 2.26877959 4.87269448 2.3125 6.8125 C2.73316882 14.01149275 4.96566156 19.54177966 8 26 C8.33 26.99 8.66 27.98 9 29 C6.46734428 28.00711401 5.22096774 27.3570558 3.76953125 25.01171875 C3.29580078 23.86123047 3.29580078 23.86123047 2.8125 22.6875 C2.48894531 21.92824219 2.16539063 21.16898437 1.83203125 20.38671875 C0.15986701 15.59004105 -0.11370509 11.25680386 -0.0625 6.1875 C-0.05347656 5.02605469 -0.04445313 3.86460937 -0.03515625 2.66796875 C-0.02355469 1.78753906 -0.01195313 0.90710938 0 0 Z " fill="#E7E7E7" transform="translate(86,372)"/>
<path d="M0 0 C1.32 0 2.64 0 4 0 C4.05441656 1.89551022 4.09298035 3.7914792 4.125 5.6875 C4.14820313 6.74324219 4.17140625 7.79898437 4.1953125 8.88671875 C3.99858729 12.02251859 3.33057654 14.17645373 2 17 C1.34 16.67 0.68 16.34 0 16 C0 10.72 0 5.44 0 0 Z " fill="#252525" transform="translate(248,376)"/>
<path d="M0 0 C2 3 2 3 1.75 5.5625 C1 8 1 8 -1 10 C-2.52448631 7.0173094 -3.93940067 4.181798 -5 1 C-6.32 1 -7.64 1 -9 1 C-9 0.34 -9 -0.32 -9 -1 C-5.38792253 -2.33780647 -3.37254128 -1.77502172 0 0 Z " fill="#272727" transform="translate(193,378)"/>
<path d="M0 0 C0.33 0 0.66 0 1 0 C1.45504688 8.94925538 1.45504688 8.94925538 -2 13 C-4.5 14.4375 -4.5 14.4375 -7 15 C-7.99 14.34 -8.98 13.68 -10 13 C-5.56923077 7.21538462 -5.56923077 7.21538462 -2.6875 6.125 C-1.8521875 6.063125 -1.8521875 6.063125 -1 6 C-0.67 4.02 -0.34 2.04 0 0 Z " fill="#353535" transform="translate(220,382)"/>
<path d="M0 0 C7.53959679 2.73439095 15.00217415 6.76069373 19 14 C18.67 14.99 18.34 15.98 18 17 C17.61070312 16.49210937 17.22140625 15.98421875 16.8203125 15.4609375 C12.22264798 9.80390327 7.34494801 6.48306586 1 3 C0.01 2.34 -0.98 1.68 -2 1 C-1.34 0.67 -0.68 0.34 0 0 Z " fill="#EDEDED" transform="translate(397,97)"/>
<path d="M0 0 C0.70125 0.12375 1.4025 0.2475 2.125 0.375 C1.465 0.849375 0.805 1.32375 0.125 1.8125 C-5.20160639 6.36230963 -9.74187567 11.72725247 -13.875 17.375 C-14.205 16.385 -14.535 15.395 -14.875 14.375 C-13.2620821 11.43158173 -11.0349406 8.93510817 -8.875 6.375 C-8.359375 5.76269531 -7.84375 5.15039062 -7.3125 4.51953125 C-4.94905313 1.92835643 -3.54318466 0.46215452 0 0 Z " fill="#F4F4F4" transform="translate(51.875,218.625)"/>
<path d="M0 0 C0.33 0.66 0.66 1.32 1 2 C0.03821377 4.32979272 -0.9788695 6.51319692 -2.125 8.75 C-2.42148437 9.3584375 -2.71796875 9.966875 -3.0234375 10.59375 C-5.20362355 14.9171698 -7.788479 18.37731542 -11 22 C-11.99 21.67 -12.98 21.34 -14 21 C-13.57589844 20.48953125 -13.15179688 19.9790625 -12.71484375 19.453125 C-7.77686486 13.33220172 -3.82133309 6.86446156 0 0 Z " fill="#F0F0F0" transform="translate(447,338)"/>
<path d="M0 0 C2 3 2 3 1.8984375 4.98046875 C-1.30964146 18.50707032 -1.30964146 18.50707032 -7.25 22.5 C-8.1575 22.995 -9.065 23.49 -10 24 C-8.66392467 21.22269525 -7.17801789 18.64603364 -5.5 16.0625 C-2.15384595 10.72833678 -0.74144723 6.30230144 0 0 Z " fill="#EDEDED" transform="translate(476,260)"/>
<path d="M0 0 C2.97 0.495 2.97 0.495 6 1 C6 1.33 6 1.66 6 2 C5.12085937 2.14179688 4.24171875 2.28359375 3.3359375 2.4296875 C-1.57876849 4.74316737 -2.98409643 8.40820233 -5.375 13.125 C-5.82488281 13.97449219 -6.27476563 14.82398438 -6.73828125 15.69921875 C-7.84298944 17.79111298 -8.92911696 19.8906464 -10 22 C-11 19 -11 19 -9.9609375 16.328125 C-6.98411432 10.55044849 -3.97720942 5.1469769 0 0 Z " fill="#F0F0F0" transform="translate(76,156)"/>
<path d="M0 0 C1.98 0 3.96 0 6 0 C6 2.64 6 5.28 6 8 C4.02 8 2.04 8 0 8 C0 5.36 0 2.72 0 0 Z " fill="#4A4A4A" transform="translate(354,133)"/>
<path d="M0 0 C0.09796875 0.61488281 0.1959375 1.22976562 0.296875 1.86328125 C1.07932607 6.95744812 1.07932607 6.95744812 4.125 10.875 C4.74375 11.24625 5.3625 11.6175 6 12 C6 12.99 6 13.98 6 15 C2.09440939 13.73332196 -0.06060687 12.68484694 -2 9 C-2.5287884 6.32012092 -2.77237292 3.73152498 -3 1 C-1 0 -1 0 0 0 Z " fill="#E4E4E4" transform="translate(373,135)"/>
<path d="M0 0 C1.47503749 2.79422197 2.57052704 5.53126092 3.5078125 8.546875 C3.77207031 9.39121094 4.03632812 10.23554688 4.30859375 11.10546875 C4.57800781 11.97816406 4.84742188 12.85085938 5.125 13.75 C5.40214844 14.63816406 5.67929687 15.52632813 5.96484375 16.44140625 C6.64627239 18.62667742 7.32454602 20.81287619 8 23 C7.01 22.67 6.02 22.34 5 22 C3.75772718 19.24333746 2.72050723 16.60027608 1.75 13.75 C1.46898437 12.98558594 1.18796875 12.22117187 0.8984375 11.43359375 C-0.54933662 7.28378576 -1.48930253 4.32936781 0 0 Z " fill="#E3E3E3" transform="translate(57,315)"/>
<path d="M0 0 C2.96783129 1.45668783 5.86415313 3.01232086 8.75 4.625 C9.94882813 5.29402344 9.94882813 5.29402344 11.171875 5.9765625 C11.77515625 6.31429688 12.3784375 6.65203125 13 7 C9.01080675 8.1004671 5.98919325 8.1004671 2 7 C1.34 4.69 0.68 2.38 0 0 Z " fill="#818181" transform="translate(173,306)"/>
<path d="M0 0 C1.21236328 0.02707031 1.21236328 0.02707031 2.44921875 0.0546875 C3.37154297 0.08949219 3.37154297 0.08949219 4.3125 0.125 C1.68823762 1.87450825 0.17658681 2.54642007 -2.75 3.375 C-8.23965872 5.11760548 -12.87136985 8.0181436 -17.6875 11.125 C-16.29616038 7.73676363 -14.90530316 6.32149717 -11.75 4.5 C-11.06035156 4.09523437 -10.37070313 3.69046875 -9.66015625 3.2734375 C-8.68369141 2.70496094 -8.68369141 2.70496094 -7.6875 2.125 C-4.48369983 -0.01086678 -3.66810033 -0.10632175 0 0 Z " fill="#F0F0F0" transform="translate(244.6875,29.875)"/>
<path d="M0 0 C1.21143853 3.63431559 0.67354818 4.39406408 -0.8125 7.8125 C-2.37459264 11.5042276 -3.79166369 15.17360169 -5 19 C-6.140625 17.4140625 -6.140625 17.4140625 -7 15 C-6.171875 11.8359375 -6.171875 11.8359375 -4.75 8.375 C-4.29109375 7.22773438 -3.8321875 6.08046875 -3.359375 4.8984375 C-2 2 -2 2 0 0 Z " fill="#EBEBEB" transform="translate(64,178)"/>
<path d="M0 0 C3.70882739 0.54707215 4.95192901 1.8133981 7.1875 4.75 C10.84439358 9.17007137 14.85660111 11.5740885 20 14 C17 15 17 15 15.2734375 14.3203125 C9.43212954 10.64245193 4.59485703 6.14794167 0 1 C0 0.67 0 0.34 0 0 Z " fill="#EFEFEF" transform="translate(220,465)"/>
<path d="M0 0 C1 3 1 3 -0.51171875 6.46875 C-1.22635719 7.818179 -1.9521092 9.16176717 -2.6875 10.5 C-3.04005859 11.17675781 -3.39261719 11.85351562 -3.75585938 12.55078125 C-5.71821013 16.18848449 -7.34952762 18.82454919 -11 21 C-9.3003494 16.26525903 -6.86340973 12.03832889 -4.375 7.6875 C-3.95476562 6.94693359 -3.53453125 6.20636719 -3.1015625 5.44335938 C-2.07051505 3.62730989 -1.03563954 1.81343467 0 0 Z " fill="#EDEDED" transform="translate(251,211)"/>
<path d="M0 0 C0.66 0.66 1.32 1.32 2 2 C1.83404227 5.15319678 1.14584699 6.79473387 -0.6875 9.375 C-3 11 -3 11 -6.125 11 C-9 10 -9 10 -10.375 7.9375 C-10.58125 7.298125 -10.7875 6.65875 -11 6 C-9.515 6.99 -9.515 6.99 -8 8 C-6.34450469 8.38499891 -4.6777567 8.72793135 -3 9 C-2.01 6.03 -1.02 3.06 0 0 Z " fill="#424242" transform="translate(262,446)"/>
<path d="M0 0 C2.97 0 5.94 0 9 0 C9 1.32 9 2.64 9 4 C6.03 4 3.06 4 0 4 C0 2.68 0 1.36 0 0 Z " fill="#EFEFEF" transform="translate(111,111)"/>
<path d="M0 0 C1.65 0 3.3 0 5 0 C5.625 1.875 5.625 1.875 6 4 C5.34 4.66 4.68 5.32 4 6 C1.375 5.625 1.375 5.625 -1 5 C-0.67 3.35 -0.34 1.7 0 0 Z " fill="#868686" transform="translate(316,91)"/>
<path d="M0 0 C1.65 0 3.3 0 5 0 C5.625 1.875 5.625 1.875 6 4 C5.34 4.66 4.68 5.32 4 6 C1.375 5.625 1.375 5.625 -1 5 C-0.67 3.35 -0.34 1.7 0 0 Z " fill="#848484" transform="translate(190,91)"/>
<path d="M0 0 C0.33 0 0.66 0 1 0 C1.22354607 1.89409978 1.42819951 3.7904348 1.625 5.6875 C1.74101562 6.74324219 1.85703125 7.79898437 1.9765625 8.88671875 C2.00150662 12.20012887 1.57343508 14.1018341 0 17 C-0.99 17.66 -1.98 18.32 -3 19 C-2.01 12.73 -1.02 6.46 0 0 Z " fill="#DFDFDF" transform="translate(424,374)"/>
<path d="M0 0 C-1.05876659 3.14879933 -2.00724707 4.00443419 -4.8984375 5.7734375 C-6.04570312 6.30195313 -7.19296875 6.83046875 -8.375 7.375 C-9.51710938 7.91898437 -10.65921875 8.46296875 -11.8359375 9.0234375 C-15 10 -15 10 -17.4140625 9.1640625 C-17.93742187 8.77992188 -18.46078125 8.39578125 -19 8 C-17.91332031 7.63648438 -17.91332031 7.63648438 -16.8046875 7.265625 C-12.11862846 5.64112453 -4.52546594 0 0 0 Z " fill="#E5E5E5" transform="translate(284,473)"/>
<path d="M0 0 C3.43499608 1.14499869 3.61663819 1.56975436 5.26171875 4.59765625 C5.85629883 5.67563477 5.85629883 5.67563477 6.46289062 6.77539062 C7.06907227 7.90750977 7.06907227 7.90750977 7.6875 9.0625 C8.10322266 9.82111328 8.51894531 10.57972656 8.94726562 11.36132812 C9.97321082 13.23633141 10.98770244 15.11759343 12 17 C11.01 17 10.02 17 9 17 C7.24609375 14.55078125 7.24609375 14.55078125 5.4375 11.3125 C4.83808594 10.25675781 4.23867187 9.20101563 3.62109375 8.11328125 C2.23100479 5.44364052 1.05045137 2.81688203 0 0 Z " fill="#EDEDED" transform="translate(63,338)"/>
<path d="M0 0 C1.32 0 2.64 0 4 0 C4.33 1.98 4.66 3.96 5 6 C3.02 6 1.04 6 -1 6 C-1.042721 4.33388095 -1.04063832 2.66617115 -1 1 C-0.67 0.67 -0.34 0.34 0 0 Z " fill="#EDEDED" transform="translate(240,432)"/>
<path d="M0 0 C2.31 0.66 4.62 1.32 7 2 C7 2.99 7 3.98 7 5 C3.7 5 0.4 5 -3 5 C-2.01 3.35 -1.02 1.7 0 0 Z " fill="#2D2D2D" transform="translate(253,443)"/>
<path d="M0 0 C2.64 0 5.28 0 8 0 C7.67 1.32 7.34 2.64 7 4 C4.69 4 2.38 4 0 4 C0 2.68 0 1.36 0 0 Z " fill="#F1F1F1" transform="translate(322,389)"/>
<path d="M0 0 C3 1 3 1 4.16796875 2.70703125 C4.50441406 3.40183594 4.84085937 4.09664063 5.1875 4.8125 C5.53167969 5.49957031 5.87585938 6.18664062 6.23046875 6.89453125 C7 9 7 9 7 13 C6.34 13 5.68 13 5 13 C4.16209211 11.21046815 3.32980604 9.41830305 2.5 7.625 C1.80390625 6.12839844 1.80390625 6.12839844 1.09375 4.6015625 C0 2 0 2 0 0 Z " fill="#F7F7F7" transform="translate(416,113)"/>
<path d="M0 0 C3.37244652 3.99697365 6.71374722 8.27090179 9 13 C8.67 13.66 8.34 14.32 8 15 C6.82750647 13.54634731 5.66216184 12.08692581 4.5 10.625 C3.8503125 9.81289063 3.200625 9.00078125 2.53125 8.1640625 C1 6 1 6 1 4 C0.34 4 -0.32 4 -1 4 C-0.67 2.68 -0.34 1.36 0 0 Z " fill="#D6D6D6" transform="translate(267,439)"/>
<path d="M0 0 C1.98 0.66 3.96 1.32 6 2 C5.67 2.66 5.34 3.32 5 4 C3.35 3.67 1.7 3.34 0 3 C-0.4021875 4.11375 -0.4021875 4.11375 -0.8125 5.25 C-1.94229421 7.86636554 -3.20893202 9.80187111 -5 12 C-5.33 11.34 -5.66 10.68 -6 10 C-4.78515625 7.6171875 -4.78515625 7.6171875 -3.0625 4.875 C-2.21365234 3.50988281 -2.21365234 3.50988281 -1.34765625 2.1171875 C-0.90292969 1.41851562 -0.45820313 0.71984375 0 0 Z " fill="#DBDBDB" transform="translate(245,442)"/>
<path d="M0 0 C0 0.66 0 1.32 0 2 C-6.27 1.67 -12.54 1.34 -19 1 C-19 0.67 -19 0.34 -19 0 C-12.48755792 -0.69508823 -6.4489191 -1.31909709 0 0 Z " fill="#EAEAEA" transform="translate(273,277)"/>
<path d="M0 0 C2.0625 0.4375 2.0625 0.4375 4 1 C3.67 2.65 3.34 4.3 3 6 C1.35 5.67 -0.3 5.34 -2 5 C-1.125 1.125 -1.125 1.125 0 0 Z " fill="#3B3B3B" transform="translate(167,178)"/>
<path d="M0 0 C2.0625 0.4375 2.0625 0.4375 4 1 C4 2.32 4 3.64 4 5 C2.68 5.33 1.36 5.66 0 6 C-0.38218767 4.34385343 -0.71395102 2.67542976 -1 1 C-0.67 0.67 -0.34 0.34 0 0 Z " fill="#393939" transform="translate(342,178)"/>
<path d="M0 0 C2.31 0 4.62 0 7 0 C6.67 1.32 6.34 2.64 6 4 C4.02 4 2.04 4 0 4 C0 2.68 0 1.36 0 0 Z " fill="#F3F3F3" transform="translate(322,380)"/>
<path d="M0 0 C6.6 0 13.2 0 20 0 C20 0.33 20 0.66 20 1 C11.585 1.495 11.585 1.495 3 2 C2.67 2.66 2.34 3.32 2 4 C1.34 4 0.68 4 0 4 C0 2.68 0 1.36 0 0 Z " fill="#1E1E1E" transform="translate(373,352)"/>
<path d="M0 0 C0.99 0 1.98 0 3 0 C3 3.3 3 6.6 3 10 C1.35 9.67 -0.3 9.34 -2 9 C-1.34 6.03 -0.68 3.06 0 0 Z " fill="#999999" transform="translate(255,433)"/>
<path d="M0 0 C1.65 0.33 3.3 0.66 5 1 C4.67 2.32 4.34 3.64 4 5 C2.35 4.67 0.7 4.34 -1 4 C-0.67 2.68 -0.34 1.36 0 0 Z " fill="#3A3A3A" transform="translate(130,254)"/>
<path d="M0 0 C2.97 0 5.94 0 9 0 C9 0.99 9 1.98 9 3 C6.36 3 3.72 3 1 3 C0.67 2.01 0.34 1.02 0 0 Z " fill="#2A2A2A" transform="translate(384,353)"/>
<path d="M0 0 C0.66 0.33 1.32 0.66 2 1 C1.46884894 5.51478398 -0.36620292 8.34666857 -3 12 C-4 10 -4 10 -3.22265625 7.6171875 C-2.83980469 6.71226562 -2.45695312 5.80734375 -2.0625 4.875 C-1.68222656 3.96492188 -1.30195313 3.05484375 -0.91015625 2.1171875 C-0.60980469 1.41851562 -0.30945313 0.71984375 0 0 Z " fill="#E4E4E4" transform="translate(451,326)"/>
<path d="M0 0 C1.32 0.33 2.64 0.66 4 1 C3.67 2.32 3.34 3.64 3 5 C1.35 4.67 -0.3 4.34 -2 4 C-1.34 2.68 -0.68 1.36 0 0 Z " fill="#888888" transform="translate(331,95)"/>
<path d="M0 0 C1.65 0 3.3 0 5 0 C5 1.66666667 5 3.33333333 5 5 C3.02 5 1.04 5 -1 5 C-0.67 3.35 -0.34 1.7 0 0 Z " fill="#373737" transform="translate(301,393)"/>
<path d="M0 0 C0.99 0.66 1.98 1.32 3 2 C2.67 2.33 2.34 2.66 2 3 C3.32 3.33 4.64 3.66 6 4 C6 4.66 6 5.32 6 6 C4.02 6 2.04 6 0 6 C-0.66 4.68 -1.32 3.36 -2 2 C-1.34 1.34 -0.68 0.68 0 0 Z " fill="#363636" transform="translate(254,392)"/>
<path d="M0 0 C0.33 0.66 0.66 1.32 1 2 C-0.2375 2.144375 -1.475 2.28875 -2.75 2.4375 C-5.56504499 2.78688502 -8.2701497 3.20379366 -11 4 C-7.65667474 -0.27945633 -5.29105716 -0.4070044 0 0 Z " fill="#383838" transform="translate(213,375)"/>
<path d="M0 0 C1.32 0 2.64 0 4 0 C3.67 1.65 3.34 3.3 3 5 C1.68 4.67 0.36 4.34 -1 4 C-0.67 2.68 -0.34 1.36 0 0 Z " fill="#2A2A2A" transform="translate(378,254)"/>
<path d="M0 0 C1.98 0.495 1.98 0.495 4 1 C3.67 2.32 3.34 3.64 3 5 C1.68 5 0.36 5 -1 5 C-0.67 3.35 -0.34 1.7 0 0 Z " fill="#3F3F3F" transform="translate(334,187)"/>
<path d="M0 0 C0.99 0 1.98 0 3 0 C2.34 3.3 1.68 6.6 1 10 C-1.29404844 6.55892734 -1.26293056 5.03160191 -1 1 C-0.67 0.67 -0.34 0.34 0 0 Z " fill="#CCCCCC" transform="translate(261,441)"/>
<path d="M0 0 C0.33 0 0.66 0 1 0 C1 2.31 1 4.62 1 7 C-0.32 7.33 -1.64 7.66 -3 8 C-3 5.69 -3 3.38 -3 1 C-2.01 1.495 -2.01 1.495 -1 2 C-0.67 1.34 -0.34 0.68 0 0 Z " fill="#202020" transform="translate(219,382)"/>
<path d="M0 0 C0.66 0 1.32 0 2 0 C2.83796731 4.65537393 3.0161692 8.37078475 2 13 C1.67 13 1.34 13 1 13 C0.67 8.71 0.34 4.42 0 0 Z " fill="#D9D9D9" transform="translate(453,193)"/>
<path d="M0 0 C1.98 0.495 1.98 0.495 4 1 C3.67 2.32 3.34 3.64 3 5 C1.68 4.67 0.36 4.34 -1 4 C-0.67 2.68 -0.34 1.36 0 0 Z " fill="#7F7F7F" transform="translate(178,95)"/>
<path d="M0 0 C0.66 0.33 1.32 0.66 2 1 C-1.07999946 4.67230705 -3.2482602 5.56802365 -8 6 C-5.38485683 3.87961365 -2.80362384 1.86908256 0 0 Z " fill="#E8E8E8" transform="translate(356,433)"/>
<path d="M0 0 C2.12046792 3.53411321 2.53199289 6.94393835 3 11 C2.34 11 1.68 11 1 11 C-1.125 3.375 -1.125 3.375 0 0 Z " fill="#DADADA" transform="translate(57,315)"/>
<path d="M0 0 C-1 1.5625 -1 1.5625 -3 3 C-5.76614782 2.96726452 -8.26030547 2.49404328 -11 2 C-11 1.67 -11 1.34 -11 1 C-9.5437328 0.63743142 -8.08488815 0.28520207 -6.625 -0.0625 C-5.40683594 -0.35833984 -5.40683594 -0.35833984 -4.1640625 -0.66015625 C-2 -1 -2 -1 0 0 Z " fill="#CDCDCD" transform="translate(318,453)"/>
<path d="M0 0 C2.475 0.495 2.475 0.495 5 1 C5 1.99 5 2.98 5 4 C3.35 4 1.7 4 0 4 C0 2.68 0 1.36 0 0 Z " fill="#525252" transform="translate(75,269)"/>
<path d="M0 0 C-0.66 1.32 -1.32 2.64 -2 4 C-4.31 4 -6.62 4 -9 4 C-6.10130984 1.70103884 -3.84906588 0 0 0 Z " fill="#808080" transform="translate(323,328)"/>
<path d="M0 0 C0.66 0 1.32 0 2 0 C2.99 1.98 3.98 3.96 5 6 C4.34 6.66 3.68 7.32 3 8 C0 3.375 0 3.375 0 0 Z " fill="#EEEEEE" transform="translate(37,273)"/>
<path d="M0 0 C1.32 0 2.64 0 4 0 C4 1.32 4 2.64 4 4 C2.35 3.67 0.7 3.34 -1 3 C-0.67 2.01 -0.34 1.02 0 0 Z " fill="#323232" transform="translate(175,188)"/>
<path d="M0 0 C0.66 0.33 1.32 0.66 2 1 C0.515 4.465 0.515 4.465 -1 8 C-1.66 8 -2.32 8 -3 8 C-2.74438677 5.6568787 -2.40729228 3.32156597 -2 1 C-1.34 0.67 -0.68 0.34 0 0 Z " fill="#A0A0A0" transform="translate(217,58)"/>
<path d="M0 0 C0.66 0.66 1.32 1.32 2 2 C1.6730244 4.61580479 1.17960932 6.64078137 0 9 C-0.66 8.67 -1.32 8.34 -2 8 C-1.34 5.36 -0.68 2.72 0 0 Z " fill="#5F5F5F" transform="translate(262,446)"/>
<path d="M0 0 C-0.639375 0.103125 -1.27875 0.20625 -1.9375 0.3125 C-2.618125 0.539375 -3.29875 0.76625 -4 1 C-4.33 1.99 -4.66 2.98 -5 4 C-5.66 4 -6.32 4 -7 4 C-7.33 5.32 -7.66 6.64 -8 8 C-8.36075949 3.55063291 -8.36075949 3.55063291 -6.8125 1.1875 C-4.44017475 -0.36678206 -2.77958655 -0.22537188 0 0 Z " fill="#8A8A8A" transform="translate(313,420)"/>
<path d="M0 0 C4.455 0.99 4.455 0.99 9 2 C9 2.33 9 2.66 9 3 C2.25 3.125 2.25 3.125 0 2 C0 1.34 0 0.68 0 0 Z " fill="#F8F8F8" transform="translate(273,277)"/>
<path d="M0 0 C0.66 0.66 1.32 1.32 2 2 C-0.3125 4.0625 -0.3125 4.0625 -3 6 C-3.99 5.67 -4.98 5.34 -6 5 C-4.02 3.35 -2.04 1.7 0 0 Z " fill="#E9E9E9" transform="translate(108,100)"/>
<path d="M0 0 C3 1.8125 3 1.8125 6 4 C6 4.99 6 5.98 6 7 C3.69 5.35 1.38 3.7 -1 2 C-0.67 1.34 -0.34 0.68 0 0 Z " fill="#F0F0F0" transform="translate(278,34)"/>
</svg>
