<?xml version="1.0" encoding="UTF-8"?>
<svg version="1.1" xmlns="http://www.w3.org/2000/svg" width="318" height="321">
<path d="M0 0 C0.97310623 -0.01257339 1.94621246 -0.02514679 2.94880676 -0.0381012 C42.98542696 -0.45555823 42.98542696 -0.45555823 59.94140625 5.2734375 C60.76302246 5.53576172 61.58463867 5.79808594 62.43115234 6.06835938 C80.1175367 11.78005136 96.13675938 20.03159116 110.94140625 31.2734375 C110.61140625 32.5934375 110.28140625 33.9134375 109.94140625 35.2734375 C106.31140625 35.2734375 102.68140625 35.2734375 98.94140625 35.2734375 C99.33695911 37.56884273 99.75854057 39.85977533 100.19140625 42.1484375 C100.53945313 44.06269531 100.53945313 44.06269531 100.89453125 46.015625 C101.59022372 49.32048393 101.59022372 49.32048393 103.86328125 50.59375 C104.5490625 50.81804688 105.23484375 51.04234375 105.94140625 51.2734375 C106.93140625 51.9334375 107.92140625 52.5934375 108.94140625 53.2734375 C108.28140625 49.9734375 107.62140625 46.6734375 106.94140625 43.2734375 C113.18566724 43.74092228 117.6766235 45.92164034 123.19140625 48.7734375 C138.99213464 56.63104309 155.90720988 61.79669232 172.94140625 66.2734375 C173.27140625 67.5934375 173.60140625 68.9134375 173.94140625 70.2734375 C171.02911492 71.45124186 168.11092947 72.61368825 165.19140625 73.7734375 C164.36640625 74.10730469 163.54140625 74.44117187 162.69140625 74.78515625 C161.8921875 75.10097656 161.09296875 75.41679688 160.26953125 75.7421875 C159.53637695 76.03544922 158.80322266 76.32871094 158.04785156 76.63085938 C155.94140625 77.2734375 155.94140625 77.2734375 151.94140625 77.2734375 C152.20767822 77.82990967 152.4739502 78.38638184 152.74829102 78.9597168 C172.76420424 121.08918683 180.17526631 165.41836909 164.56787109 210.40893555 C157.03680763 231.26305865 146.22888164 249.13921746 131.42626953 265.61669922 C129.98862424 267.22075396 128.57121033 268.84078093 127.15625 270.46484375 C102.55190672 298.39684171 64.89299879 314.55165519 27.94140625 317.2734375 C-18.80718534 319.33111937 -61.14681669 305.37113246 -96.12109375 273.9609375 C-101.6981974 268.84969748 -106.4538489 263.27889709 -111.05859375 257.2734375 C-111.79722656 256.35046875 -112.53585938 255.4275 -113.296875 254.4765625 C-127.28361283 236.6005936 -137.96427428 214.66265967 -142.05859375 192.2734375 C-142.23229492 191.40920166 -142.40599609 190.54496582 -142.58496094 189.65454102 C-144.30656747 180.12202714 -144.43088153 170.67539654 -144.42919922 161.01977539 C-144.43354865 158.2397621 -144.46991937 155.46137238 -144.5078125 152.68164062 C-144.76270157 112.10666897 -127.02377795 73.24109497 -98.68359375 44.5234375 C-73.30284858 19.44062381 -36.11741548 0.42053972 0 0 Z " fill="#8A8A8A" transform="translate(144.05859375,-0.2734375)"/>
<path d="M0 0 C0.97310623 -0.01257339 1.94621246 -0.02514679 2.94880676 -0.0381012 C42.98542696 -0.45555823 42.98542696 -0.45555823 59.94140625 5.2734375 C60.76302246 5.53576172 61.58463867 5.79808594 62.43115234 6.06835938 C80.1175367 11.78005136 96.13675938 20.03159116 110.94140625 31.2734375 C110.61140625 32.5934375 110.28140625 33.9134375 109.94140625 35.2734375 C106.31140625 35.2734375 102.68140625 35.2734375 98.94140625 35.2734375 C99.33695911 37.56884273 99.75854057 39.85977533 100.19140625 42.1484375 C100.53945313 44.06269531 100.53945313 44.06269531 100.89453125 46.015625 C101.59022372 49.32048393 101.59022372 49.32048393 103.86328125 50.59375 C104.5490625 50.81804688 105.23484375 51.04234375 105.94140625 51.2734375 C106.93140625 51.9334375 107.92140625 52.5934375 108.94140625 53.2734375 C108.28140625 49.9734375 107.62140625 46.6734375 106.94140625 43.2734375 C113.18566724 43.74092228 117.6766235 45.92164034 123.19140625 48.7734375 C138.99213464 56.63104309 155.90720988 61.79669232 172.94140625 66.2734375 C173.27140625 67.5934375 173.60140625 68.9134375 173.94140625 70.2734375 C171.02911492 71.45124186 168.11092947 72.61368825 165.19140625 73.7734375 C164.36640625 74.10730469 163.54140625 74.44117187 162.69140625 74.78515625 C161.8921875 75.10097656 161.09296875 75.41679688 160.26953125 75.7421875 C159.53637695 76.03544922 158.80322266 76.32871094 158.04785156 76.63085938 C155.94140625 77.2734375 155.94140625 77.2734375 151.94140625 77.2734375 C152.20767822 77.82990967 152.4739502 78.38638184 152.74829102 78.9597168 C172.76420424 121.08918683 180.17526631 165.41836909 164.56787109 210.40893555 C157.03680763 231.26305865 146.22888164 249.13921746 131.42626953 265.61669922 C129.98862424 267.22075396 128.57121033 268.84078093 127.15625 270.46484375 C102.55190672 298.39684171 64.89299879 314.55165519 27.94140625 317.2734375 C-18.80718534 319.33111937 -61.14681669 305.37113246 -96.12109375 273.9609375 C-101.6981974 268.84969748 -106.4538489 263.27889709 -111.05859375 257.2734375 C-111.79722656 256.35046875 -112.53585938 255.4275 -113.296875 254.4765625 C-127.28361283 236.6005936 -137.96427428 214.66265967 -142.05859375 192.2734375 C-142.23229492 191.40920166 -142.40599609 190.54496582 -142.58496094 189.65454102 C-144.30656747 180.12202714 -144.43088153 170.67539654 -144.42919922 161.01977539 C-144.43354865 158.2397621 -144.46991937 155.46137238 -144.5078125 152.68164062 C-144.76270157 112.10666897 -127.02377795 73.24109497 -98.68359375 44.5234375 C-73.30284858 19.44062381 -36.11741548 0.42053972 0 0 Z M-19.05859375 21.2734375 C-19.76193848 21.44504395 -20.4652832 21.61665039 -21.18994141 21.79345703 C-42.16063912 27.07507097 -61.95371388 36.27269155 -77.39990234 51.62939453 C-79.27431187 53.48725055 -81.17609016 55.31498045 -83.078125 57.14453125 C-94.34839618 67.68213507 -94.34839618 67.68213507 -103.05859375 80.2734375 C-102.72859375 81.2634375 -102.39859375 82.2534375 -102.05859375 83.2734375 C-93.57626293 81.50705191 -87.73525001 77.67500302 -81.05859375 72.2734375 C-80.33542969 71.70367187 -79.61226562 71.13390625 -78.8671875 70.546875 C-73.52216601 66.1327868 -68.98651244 60.98772346 -65.05859375 55.2734375 C-65.05859375 54.6134375 -65.05859375 53.9534375 -65.05859375 53.2734375 C-59.77230426 55.07077593 -57.27436577 56.91894373 -53.84375 61.24609375 C-50.10644844 65.49042528 -45.52882703 68.83959909 -41.05859375 72.2734375 C-39.89070313 73.18222656 -39.89070313 73.18222656 -38.69921875 74.109375 C-33.92275566 77.58162654 -30.00453081 78.89445259 -24.1953125 79.79296875 C-21.21984305 80.46204141 -20.09414797 82.04705008 -18.05859375 84.2734375 C-15.50941926 85.58981449 -12.9274227 86.77614763 -10.30078125 87.9296875 C-7.69759856 89.48978305 -7.32078791 90.59386137 -6.05859375 93.2734375 C-4.17249213 94.82814696 -4.17249213 94.82814696 -1.93359375 96.1484375 C1.02901434 98.02054372 3.79510318 99.92830492 6.50390625 102.1484375 C19.51575232 112.02396211 36.15544242 117.55129457 51.82421875 121.37890625 C54.94140625 122.2734375 54.94140625 122.2734375 57.94140625 124.2734375 C58.93140625 124.2734375 59.92140625 124.2734375 60.94140625 124.2734375 C60.94140625 124.9334375 60.94140625 125.5934375 60.94140625 126.2734375 C61.52117722 126.29405243 62.10094818 126.31466736 62.69828796 126.33590698 C68.84919641 126.5558545 74.99973544 126.78463282 81.15014648 127.01806641 C83.43164176 127.10356844 85.71321676 127.18697468 87.99487305 127.26806641 C99.50446519 127.6784899 110.99060086 128.15425461 122.4609375 129.21875 C123.27721115 129.29294159 124.0934848 129.36713318 124.93449402 129.443573 C130.60947458 130.01212338 136.47410857 130.60474424 141.94140625 132.2734375 C142.27140625 132.9334375 142.60140625 133.5934375 142.94140625 134.2734375 C141.62140625 134.6034375 140.30140625 134.9334375 138.94140625 135.2734375 C138.94140625 134.2834375 138.94140625 133.2934375 138.94140625 132.2734375 C128.65633585 130.7907477 118.65719233 129.98954496 108.24511719 130.06225586 C106.86010346 130.06446583 105.47508804 130.06576439 104.09007263 130.0662384 C101.1464528 130.06913518 98.20294762 130.07825265 95.25936127 130.09254265 C90.60269872 130.11508244 85.94607663 130.12294207 81.28936768 130.12904358 C73.93165374 130.14034951 66.57400248 130.16103018 59.21632314 130.18594128 C46.01113555 130.23055779 32.80592467 130.26347728 19.60068154 130.28618532 C14.97205848 130.29457834 10.34349637 130.30858482 5.71490335 130.32715786 C2.84452214 130.33779612 -0.02585851 130.34438197 -2.89625359 130.34995842 C-4.8610489 130.35508377 -6.8258289 130.36529054 -8.79060364 130.37564087 C-9.95937546 130.37715652 -11.12814728 130.37867218 -12.33233643 130.38023376 C-13.85530775 130.38551291 -13.85530775 130.38551291 -15.40904617 130.3908987 C-17.78943989 130.28536978 -19.78527137 129.95639299 -22.05859375 129.2734375 C-22.05859375 128.6134375 -22.05859375 127.9534375 -22.05859375 127.2734375 C-22.71859375 127.2734375 -23.37859375 127.2734375 -24.05859375 127.2734375 C-24.05859375 126.2834375 -24.05859375 125.2934375 -24.05859375 124.2734375 C-23.08292198 124.59257111 -23.08292198 124.59257111 -22.08753967 124.91815186 C-14.81427016 127.121775 -8.24969262 127.68855652 -0.6796875 127.6015625 C0.45419907 127.59968933 1.58808563 127.59781616 2.7563324 127.59588623 C5.13030988 127.5892118 7.50427724 127.57539056 9.87817383 127.5546875 C13.52500541 127.52325565 17.17140512 127.51368246 20.81835938 127.5078125 C23.13151573 127.49865232 25.44466768 127.48827971 27.7578125 127.4765625 C28.85041885 127.47231262 29.94302521 127.46806274 31.06874084 127.46368408 C32.07416428 127.45407654 33.07958771 127.44446899 34.11547852 127.43457031 C35.00163345 127.42774231 35.88778839 127.42091431 36.80079651 127.41387939 C38.99349543 127.40893381 38.99349543 127.40893381 40.94140625 126.2734375 C40.61140625 125.2834375 40.28140625 124.2934375 39.94140625 123.2734375 C37.77585454 122.39013979 37.77585454 122.39013979 35.19140625 121.8359375 C31.98084681 120.96772988 30.16852089 120.45871523 27.56640625 118.3359375 C24.73075953 116.10792936 22.61984983 115.4390608 19.19140625 114.3984375 C14.05231435 112.80791707 10.10207788 110.72123135 5.78125 107.54296875 C3.86104717 106.091921 3.86104717 106.091921 0.94140625 105.2734375 C-0.24609375 103.2109375 -0.24609375 103.2109375 -1.05859375 101.2734375 C-2.70859375 101.2734375 -4.35859375 101.2734375 -6.05859375 101.2734375 C-6.12046875 100.6959375 -6.18234375 100.1184375 -6.24609375 99.5234375 C-7.4277962 96.25103071 -9.21162615 95.30698578 -12.05859375 93.2734375 C-13.04472656 92.44779297 -13.04472656 92.44779297 -14.05078125 91.60546875 C-19.15265261 87.57722352 -23.94690612 85.38985479 -30.18359375 83.8359375 C-30.84012939 83.67222656 -31.49666504 83.50851563 -32.1730957 83.33984375 C-35.61569936 82.5697594 -38.80665314 82.22548208 -42.3125 82.3359375 C-46.06882743 82.27326676 -47.16556905 82.12681965 -49.87109375 79.7109375 C-51.43960991 78.26545012 -51.43960991 78.26545012 -53.05859375 77.2734375 C-54.54359375 77.7684375 -54.54359375 77.7684375 -56.05859375 78.2734375 C-57.22942253 81.20257915 -57.22942253 81.20257915 -58.05859375 84.2734375 C-58.38859375 84.9334375 -58.71859375 85.5934375 -59.05859375 86.2734375 C-60.80859375 86.1484375 -60.80859375 86.1484375 -63.05859375 85.2734375 C-65.30859375 82.2109375 -65.30859375 82.2109375 -67.05859375 79.2734375 C-71.18833003 79.84083618 -71.18833003 79.84083618 -75.05859375 81.2734375 C-75.55359375 78.3034375 -75.55359375 78.3034375 -76.05859375 75.2734375 C-78.4645241 76.34273988 -80.31479563 77.48116875 -82.37109375 79.1484375 C-88.59345942 84.06844756 -94.72003264 86.29653897 -102.2734375 88.25195312 C-107.07578954 89.61552727 -109.87482968 91.23424927 -113.05859375 95.2734375 C-114.23819224 97.68367481 -115.18693981 99.88668552 -116.05859375 102.3984375 C-116.4292395 103.42602173 -116.4292395 103.42602173 -116.80737305 104.47436523 C-121.3487392 117.43869403 -125.25261993 130.90068839 -125.12109375 144.7109375 C-125.11207031 145.94714844 -125.10304688 147.18335938 -125.09375 148.45703125 C-125.08214844 149.38644531 -125.07054688 150.31585938 -125.05859375 151.2734375 C-114.86609562 149.00603855 -105.3753421 144.93181167 -96.05859375 140.2734375 C-94.57633058 139.99907068 -93.08639931 139.76535145 -91.59375 139.5546875 C-90.71138672 139.42707031 -89.82902344 139.29945313 -88.91992188 139.16796875 C-87.99630859 139.03777344 -87.07269531 138.90757812 -86.12109375 138.7734375 C-84.29912263 138.51552708 -82.47748998 138.25521122 -80.65625 137.9921875 C-79.84679932 137.87810547 -79.03734863 137.76402344 -78.20336914 137.64648438 C-75.88355346 137.29785952 -75.88355346 137.29785952 -73.05859375 136.2734375 C-71.35172571 136.14752101 -69.6429767 136.04616315 -67.93359375 135.9609375 C-62.33842219 135.5139198 -57.98497644 133.88867769 -53.05859375 131.2734375 C-53.05859375 130.2834375 -53.05859375 129.2934375 -53.05859375 128.2734375 C-51.75535156 128.49 -51.75535156 128.49 -50.42578125 128.7109375 C-48.69714844 128.989375 -48.69714844 128.989375 -46.93359375 129.2734375 C-45.22816406 129.551875 -45.22816406 129.551875 -43.48828125 129.8359375 C-37.62319124 130.71276874 -37.62319124 130.71276874 -32.05859375 129.2734375 C-32.05859375 128.6134375 -32.05859375 127.9534375 -32.05859375 127.2734375 C-29.12109375 128.0234375 -29.12109375 128.0234375 -26.05859375 129.2734375 C-25.05859375 131.2109375 -25.05859375 131.2109375 -25.05859375 133.2734375 C-25.71859375 134.2634375 -26.37859375 135.2534375 -27.05859375 136.2734375 C-25.73859375 136.2734375 -24.41859375 136.2734375 -23.05859375 136.2734375 C-19.96381461 136.2734375 -16.95413029 136.50823006 -13.87109375 136.7734375 C-12.78441406 136.86625 -11.69773437 136.9590625 -10.578125 137.0546875 C-9.74667969 137.126875 -8.91523438 137.1990625 -8.05859375 137.2734375 C-8.05859375 138.2634375 -8.05859375 139.2534375 -8.05859375 140.2734375 C-8.96609375 140.0465625 -9.87359375 139.8196875 -10.80859375 139.5859375 C-14.05362876 138.94738205 -14.05362876 138.94738205 -16.43359375 140.7109375 C-16.96984375 141.2265625 -17.50609375 141.7421875 -18.05859375 142.2734375 C-17.72859375 143.2634375 -17.39859375 144.2534375 -17.05859375 145.2734375 C-13.86077861 146.53183698 -10.46013682 146.47335808 -7.05859375 146.6484375 C-0.47962988 147.10292991 5.61476637 148.46094067 11.94140625 150.2734375 C11.94140625 150.9334375 11.94140625 151.5934375 11.94140625 152.2734375 C17.64742818 154.7273843 23.09182099 156.72465129 29.2265625 157.78125 C30.07541016 158.02488281 30.07541016 158.02488281 30.94140625 158.2734375 C31.27140625 158.9334375 31.60140625 159.5934375 31.94140625 160.2734375 C33.59140625 160.2734375 35.24140625 160.2734375 36.94140625 160.2734375 C37.27140625 159.2834375 37.60140625 158.2934375 37.94140625 157.2734375 C38.27140625 158.2634375 38.60140625 159.2534375 38.94140625 160.2734375 C31.83096518 162.41084464 24.86776386 163.83547568 17.49609375 164.74609375 C16.65304688 164.92011719 15.81 165.09414062 14.94140625 165.2734375 C14.61140625 165.9334375 14.28140625 166.5934375 13.94140625 167.2734375 C15.194375 167.55058594 16.44734375 167.82773438 17.73828125 168.11328125 C19.38932917 168.47913846 21.04037049 168.84502543 22.69140625 169.2109375 C23.51640625 169.39333984 24.34140625 169.57574219 25.19140625 169.76367188 C26.39023437 170.02954102 26.39023437 170.02954102 27.61328125 170.30078125 C28.34643555 170.46312256 29.07958984 170.62546387 29.83496094 170.79272461 C31.87802378 171.25897296 33.91034387 171.75764399 35.94140625 172.2734375 C31.91292769 180.56736394 23.85156007 183.42552265 15.69140625 186.3984375 C14.76497314 186.74390625 13.83854004 187.089375 12.8840332 187.4453125 C6.65928864 189.73487372 0.42006877 191.81687637 -6.05859375 193.2734375 C-5.72859375 194.2634375 -5.39859375 195.2534375 -5.05859375 196.2734375 C-1.99054294 197.47398485 -1.99054294 197.47398485 1.75390625 198.3359375 C2.43533691 198.51020264 3.11676758 198.68446777 3.81884766 198.86401367 C7.80483918 199.85468408 11.73906756 200.56421961 15.81640625 201.0859375 C21.08733052 201.86734137 25.58107102 203.62365728 30.44140625 205.7109375 C42.9524795 211.05240428 57.49505728 215.71164315 71.0390625 211.25390625 C73.44764671 210.05143057 75.67430963 208.72052045 77.94140625 207.2734375 C79.09640625 206.7990625 80.25140625 206.3246875 81.44140625 205.8359375 C84.72686176 203.7825278 84.86288252 201.89419574 85.94140625 198.2734375 C87.6484375 197.25 87.6484375 197.25 89.94140625 196.2734375 C90.82957031 195.85964844 91.71773437 195.44585937 92.6328125 195.01953125 C93.58027344 194.58769531 94.52773437 194.15585938 95.50390625 193.7109375 C96.92896484 193.05931641 96.92896484 193.05931641 98.3828125 192.39453125 C100.94140625 191.2734375 100.94140625 191.2734375 103.94140625 190.2734375 C103.94140625 189.6134375 103.94140625 188.9534375 103.94140625 188.2734375 C106.91140625 189.2634375 106.91140625 189.2634375 109.94140625 190.2734375 C107.30656046 193.36611111 104.1693781 194.79269636 100.56640625 196.5859375 C95.25531678 199.27261974 95.25531678 199.27261974 91.19140625 203.4609375 C88.45460136 206.88194361 85.9853805 207.78732894 81.9296875 209.21875 C79.48172573 210.51727589 78.92646351 211.73441291 77.94140625 214.2734375 C77.28140625 214.2734375 76.62140625 214.2734375 75.94140625 214.2734375 C75.94140625 214.9334375 75.94140625 215.5934375 75.94140625 216.2734375 C59.15430349 216.02953671 44.6054598 215.01780487 29.00390625 208.3984375 C21.04145581 205.03233721 12.84187728 203.1613843 4.42016602 201.27783203 C3.38174561 201.04435059 2.3433252 200.81086914 1.2734375 200.5703125 C-0.12297974 200.26625488 -0.12297974 200.26625488 -1.54760742 199.95605469 C-4.05859375 199.2734375 -4.05859375 199.2734375 -6.2043457 198.19238281 C-8.1616837 197.05141293 -8.1616837 197.05141293 -11.05859375 197.2734375 C-10.72859375 195.6234375 -10.39859375 193.9734375 -10.05859375 192.2734375 C-9.20648315 192.04793213 -9.20648315 192.04793213 -8.3371582 191.81787109 C5.6761903 188.06983509 18.45590172 183.82281233 30.94140625 176.2734375 C30.94140625 175.6134375 30.94140625 174.9534375 30.94140625 174.2734375 C31.60140625 173.9434375 32.26140625 173.6134375 32.94140625 173.2734375 C31.94882813 173.04269531 30.95625 172.81195313 29.93359375 172.57421875 C20.66427027 170.36701846 11.86552218 167.61998097 2.94140625 164.2734375 C12.84140625 163.7784375 12.84140625 163.7784375 22.94140625 163.2734375 C22.94140625 162.2834375 22.94140625 161.2934375 22.94140625 160.2734375 C23.60140625 159.6134375 24.26140625 158.9534375 24.94140625 158.2734375 C24.08675781 157.99628906 23.23210937 157.71914062 22.3515625 157.43359375 C21.24683594 157.07136719 20.14210937 156.70914063 19.00390625 156.3359375 C17.90175781 155.97628906 16.79960937 155.61664063 15.6640625 155.24609375 C12.94140625 154.2734375 12.94140625 154.2734375 11.94140625 153.2734375 C9.88218732 152.9974033 7.81490911 152.78110403 5.74609375 152.58984375 C4.4725 152.46673828 3.19890625 152.34363281 1.88671875 152.21679688 C-0.14043051 152.02604946 -2.16774692 151.83739333 -4.1953125 151.65112305 C-6.15287242 151.46964494 -8.10965184 151.27981035 -10.06640625 151.08984375 C-11.2383252 150.98099854 -12.41024414 150.87215332 -13.61767578 150.76000977 C-17.27413467 150.24295836 -20.53705194 149.3644811 -24.05859375 148.2734375 C-24.05859375 147.6134375 -24.05859375 146.9534375 -24.05859375 146.2734375 C-23.06859375 145.6134375 -22.07859375 144.9534375 -21.05859375 144.2734375 C-24.34836183 143.17684814 -25.77163142 143.47390612 -29.05859375 144.2734375 C-29.05859375 143.6134375 -29.05859375 142.9534375 -29.05859375 142.2734375 C-27.07859375 141.6134375 -25.09859375 140.9534375 -23.05859375 140.2734375 C-23.05859375 139.9434375 -23.05859375 139.6134375 -23.05859375 139.2734375 C-25.03859375 139.2734375 -27.01859375 139.2734375 -29.05859375 139.2734375 C-29.05859375 138.6134375 -29.05859375 137.9534375 -29.05859375 137.2734375 C-29.71859375 137.2734375 -30.37859375 137.2734375 -31.05859375 137.2734375 C-31.05859375 136.6134375 -31.05859375 135.9534375 -31.05859375 135.2734375 C-36.88337926 132.23441898 -41.54067983 131.9193456 -48.05859375 132.2734375 C-48.55359375 134.2534375 -48.55359375 134.2534375 -49.05859375 136.2734375 C-49.72802002 136.38413574 -50.39744629 136.49483398 -51.0871582 136.60888672 C-54.18195213 137.12117626 -57.27652315 137.63480071 -60.37109375 138.1484375 C-61.94987305 138.40947266 -61.94987305 138.40947266 -63.56054688 138.67578125 C-69.5126999 139.66475437 -75.45763565 140.68008089 -81.38818359 141.79199219 C-83.12702125 142.10548532 -84.87111385 142.39148141 -86.61962891 142.64550781 C-95.19938066 143.96251172 -103.13520933 146.92585224 -111.24609375 149.8984375 C-112.68916625 150.42006515 -114.13252407 150.94090417 -115.57617188 151.4609375 C-119.07364345 152.72271067 -122.56715144 153.99506094 -126.05859375 155.2734375 C-127.01334539 174.30730654 -124.43842245 194.96896151 -116.05859375 212.2734375 C-115.38763672 213.73330078 -115.38763672 213.73330078 -114.703125 215.22265625 C-112.75288021 220.03976465 -112.75288021 220.03976465 -109.05859375 223.2734375 C-107.62551246 223.37112101 -106.18810155 223.40892133 -104.75170898 223.4152832 C-103.85995468 223.42231766 -102.96820038 223.42935211 -102.04942322 223.43659973 C-101.08178543 223.44076401 -100.11414764 223.44492828 -99.1171875 223.44921875 C-97.06834928 223.47243244 -95.01952114 223.49655038 -92.97070312 223.52148438 C-89.740737 223.55648363 -86.51113781 223.58587467 -83.28100586 223.59936523 C-80.16344495 223.61493507 -77.04696054 223.65521965 -73.9296875 223.69921875 C-72.97621933 223.69731033 -72.02275116 223.69540192 -71.04039001 223.69343567 C-65.34468689 223.79622127 -61.22046213 224.75030481 -56.11540222 227.27139282 C-50.63959349 229.93912055 -45.46134098 230.525099 -39.44140625 230.58203125 C-37.94726047 230.60530276 -36.45312001 230.62891783 -34.95898438 230.65283203 C-33.7907312 230.6666391 -33.7907312 230.6666391 -32.59887695 230.6807251 C-17.42861221 230.87048758 -2.44030558 231.73342003 12.64404297 233.34545898 C13.92811035 233.47895752 15.21217773 233.61245605 16.53515625 233.75 C17.65599609 233.87455566 18.77683594 233.99911133 19.93164062 234.12744141 C24.51943247 234.34998355 27.94572088 233.49326271 31.94140625 231.2734375 C30.95140625 232.5934375 29.96140625 233.9134375 28.94140625 235.2734375 C31.43003615 239.69101299 31.43003615 239.69101299 34.94140625 243.2734375 C35.56015625 243.3971875 36.17890625 243.5209375 36.81640625 243.6484375 C39.40274822 244.40912632 40.4409551 245.81607628 42.27783203 247.70898438 C45.87673317 251.09345143 49.96983916 253.90906523 53.94140625 256.8359375 C55.71275431 258.14904552 57.48360298 259.46282751 59.25390625 260.77734375 C60.08027588 261.38811768 60.90664551 261.9988916 61.75805664 262.62817383 C63.43835771 263.89436514 65.07364122 265.22045622 66.6875 266.5703125 C69.3309529 268.56779164 71.93214115 269.72990142 75.00390625 270.9609375 C76.02613281 271.37730469 77.04835937 271.79367187 78.1015625 272.22265625 C81.87896709 273.62034791 85.22481674 274.44996467 89.25390625 274.5859375 C89.97191406 274.62332031 90.68992188 274.66070312 91.4296875 274.69921875 C98.76654029 273.45549098 103.82974049 267.86228903 108.81640625 262.7734375 C109.51314453 262.06944824 110.20988281 261.36545898 110.92773438 260.64013672 C120.67817784 251.55707071 120.67817784 251.55707071 125.94140625 240.2734375 C126.67101562 239.89703125 127.400625 239.520625 128.15234375 239.1328125 C131.96665089 236.58994107 133.45565069 233.51203766 135.56640625 229.5234375 C135.94796875 228.8325 136.32953125 228.1415625 136.72265625 227.4296875 C143.86339851 214.33011894 149.15267385 199.9188997 151.94140625 185.2734375 C152.24884766 183.87931641 152.24884766 183.87931641 152.5625 182.45703125 C158.51268498 151.63917663 152.0573619 118.72855677 137.35546875 91.31640625 C136.88882812 90.64222656 136.4221875 89.96804687 135.94140625 89.2734375 C135.28140625 89.2734375 134.62140625 89.2734375 133.94140625 89.2734375 C129.95033085 94.83813691 126.90565842 101.11691376 123.94140625 107.2734375 C123.83183594 106.71398437 123.72226562 106.15453125 123.609375 105.578125 C123.26924775 103.85813191 122.92220412 102.13949983 122.5703125 100.421875 C122.114596 98.14046195 121.68872176 95.85302174 121.28125 93.5625 C120.92740234 91.68691406 120.92740234 91.68691406 120.56640625 89.7734375 C120.24542969 87.99453125 120.24542969 87.99453125 119.91796875 86.1796875 C119.22243609 83.24263793 119.22243609 83.24263793 117.2109375 81.88671875 C114.40681844 81.12897918 111.91008306 80.97193186 109.00390625 80.9609375 C107.98425781 80.94417969 106.96460938 80.92742187 105.9140625 80.91015625 C100.82162655 81.53249074 97.78353841 84.17852523 94.37890625 87.8359375 C91.03242569 91.42973302 88.69240515 93.07082496 83.734375 93.64453125 C72.07226539 93.85932633 72.07226539 93.85932633 67.3046875 89.71875 C66.00875388 88.34483756 64.78494075 86.90393889 63.56640625 85.4609375 C60.30120112 82.73993323 58.59885293 82.6786895 54.46484375 82.8984375 C50.75199396 83.45019227 47.23959738 84.53821637 43.64453125 85.59765625 C37.0514045 87.24593794 31.28869426 86.4342164 24.94140625 84.2734375 C24.28140625 80.9734375 23.62140625 77.6734375 22.94140625 74.2734375 C21.93078125 74.0053125 20.92015625 73.7371875 19.87890625 73.4609375 C9.79228712 70.54975881 9.79228712 70.54975881 6.94140625 66.2734375 C6.640625 63.86328125 6.640625 63.86328125 6.62890625 61.2109375 C6.61214844 60.33308594 6.59539062 59.45523438 6.578125 58.55078125 C6.69800781 57.79925781 6.81789062 57.04773437 6.94140625 56.2734375 C10.42309985 53.95230843 11.65293422 54.33106333 15.62744141 54.94091797 C19.78338385 55.5381319 23.93633818 55.70150019 28.12890625 55.8359375 C29.00482422 55.89845703 29.88074219 55.96097656 30.78320312 56.02539062 C33.39510611 56.0907377 35.44284778 56.04963884 37.94140625 55.2734375 C39.65280833 53.37865165 40.70510918 51.49815156 41.8671875 49.22998047 C43.39589781 46.44564311 45.03186054 45.46430103 47.94140625 44.2734375 C51.203125 43.61328125 51.203125 43.61328125 54.62890625 43.2109375 C59.31072022 42.86162801 59.31072022 42.86162801 62.94140625 40.2734375 C63.18500698 37.14529236 63.18500698 37.14529236 63.06640625 33.6484375 C63.04835937 32.45992187 63.0303125 31.27140625 63.01171875 30.046875 C62.98851562 29.13164062 62.9653125 28.21640625 62.94140625 27.2734375 C57.68971257 24.28495291 52.37069408 22.98049024 46.50390625 21.6484375 C45.58802734 21.431875 44.67214844 21.2153125 43.72851562 20.9921875 C23.73279491 16.34135224 0.93559884 16.31480034 -19.05859375 21.2734375 Z " fill="#040404" transform="translate(144.05859375,-0.2734375)"/>
<path d="M0 0 C1.0725 0.25136719 2.145 0.50273437 3.25 0.76171875 C8.17829559 2.00034623 12.5782774 3.49037366 17 6 C17.13496251 8.10241603 17.23197307 10.2072961 17.3125 12.3125 C17.39951172 14.07013672 17.39951172 14.07013672 17.48828125 15.86328125 C17 19 17 19 14.7890625 20.890625 C12.01481686 21.99410646 10.02608834 22.35790916 7.0625 22.4375 C2.33657519 22.80967536 -0.39372443 23.73717925 -4 27 C-4.76360849 28.19006916 -5.48474447 29.40832076 -6.1640625 30.6484375 C-7.07285156 32.30746094 -7.07285156 32.30746094 -8 34 C-11.16664666 34.02940458 -14.33325747 34.04693315 -17.5 34.0625 C-18.386875 34.07087891 -19.27375 34.07925781 -20.1875 34.08789062 C-24.35547036 34.10321405 -28.34585114 34.01199309 -32.46875 33.37109375 C-36.10524141 32.60893362 -36.10524141 32.60893362 -39 35 C-40.0179782 39.7929807 -39.72043197 43.84730886 -37.125 48 C-32.93015852 50.68469854 -28.88802615 51.36408203 -24 52 C-22.72746564 55.64793184 -21.67170806 59.1936543 -21 63 C-13.44431957 65.57214653 -7.19153625 65.76663987 0.5 63.5 C5.34787419 62.08773413 9.9701097 60.90610109 15 62 C17.625 64.1875 17.625 64.1875 20 67 C24.2334928 71.48823019 27.91134254 72.38120273 34.0625 72.5625 C42.81954464 72.21073711 46.64926287 68.64780285 52.38671875 62.48828125 C55.51764559 59.59994438 58.88637505 59.83753786 62.9375 59.8125 C63.97777344 59.79832031 65.01804688 59.78414062 66.08984375 59.76953125 C70.69525643 60.13425521 70.69525643 60.13425521 73 62 C73.9765625 64.90625 73.9765625 64.90625 74.625 68.5 C74.97884766 70.37558594 74.97884766 70.37558594 75.33984375 72.2890625 C75.55769531 73.51367188 75.77554688 74.73828125 76 76 C76.39136027 77.95923215 76.78650919 79.91771621 77.1875 81.875 C77.45936489 83.24979641 77.73064586 84.62470947 78 86 C78.38671875 85.28714844 78.7734375 84.57429688 79.171875 83.83984375 C82.06058173 78.52719747 84.97469686 73.23610159 88 68 C91 69 91 69 92.8671875 72.2890625 C93.55010979 73.72797487 94.218498 75.17384295 94.875 76.625 C95.40009155 77.76884155 95.40009155 77.76884155 95.93579102 78.93579102 C100.59973044 89.30427712 104.47051925 99.52791703 105 111 C102.36 111.66 99.72 112.32 97 113 C96.67 112.34 96.34 111.68 96 111 C93.68777889 110.36008925 91.47204935 109.86584217 89.1171875 109.4453125 C88.4042453 109.31569122 87.6913031 109.18606995 86.95675659 109.05252075 C78.39019284 107.59509524 69.79409311 107.22724691 61.125 106.875 C59.41524198 106.79728838 57.70552518 106.7186649 55.99584961 106.63916016 C50.99784018 106.41048204 45.99910479 106.20308823 41 106 C39.55712466 105.94020653 38.11425335 105.88031562 36.67138672 105.8203125 C29.44838078 105.52314953 22.22495145 105.24545478 15 105 C15 104.34 15 103.68 15 103 C14.45988281 102.87109375 13.91976562 102.7421875 13.36328125 102.609375 C8.18467176 101.27406412 3.10207806 99.59811122 -2 98 C-3.20785156 97.6390625 -4.41570312 97.278125 -5.66015625 96.90625 C-13.91324524 94.3374652 -21.17076647 91.06235554 -28.6875 86.84375 C-31.24622526 85.41955386 -33.77528802 84.1438148 -36.4375 82.9375 C-40.22202206 81.0946023 -43.09543847 78.44572216 -46.171875 75.60546875 C-48.0798282 73.83149426 -48.0798282 73.83149426 -50.9375 72.25 C-53 71 -53 71 -54 68 C-56.18814019 66.67780053 -56.18814019 66.67780053 -58.8125 65.5625 C-61.74920709 64.24813922 -63.74412422 63.2700911 -65.96875 60.921875 C-68.5062049 58.52105229 -70.27447729 58.27195226 -73.6875 57.6875 C-80.25625023 56.21271991 -84.02070384 53.36479137 -89 49 C-90.53699315 47.8479053 -92.0786729 46.70203616 -93.625 45.5625 C-96.72796407 43.17726501 -99.20495543 40.71020262 -101.6875 37.6875 C-104.45759252 34.34138357 -106.61813115 32.8549988 -111 32 C-111.37898438 32.83337891 -111.37898438 32.83337891 -111.765625 33.68359375 C-118.30807934 45.96104763 -131.0024654 56.79923091 -144.01171875 61.609375 C-146 62 -146 62 -149 61 C-142.62943225 42.51209015 -118.95199752 23.10671623 -102 14 C-101.40590332 13.6793457 -100.81180664 13.35869141 -100.19970703 13.02832031 C-70.14599051 -2.78433504 -33.07957171 -8.23230251 0 0 Z " fill="#A7A7A7" transform="translate(190,21)"/>
<path d="M0 0 C6.51791392 -0.3540919 11.17521449 -0.03901852 17 3 C17 3.66 17 4.32 17 5 C17.66 5 18.32 5 19 5 C19 5.66 19 6.32 19 7 C20.98 7 22.96 7 25 7 C24.67 7.66 24.34 8.32 24 9 C21.4375 9.625 21.4375 9.625 19 10 C19 10.66 19 11.32 19 12 C22.465 11.505 22.465 11.505 26 11 C26.495 11.99 26.495 11.99 27 13 C26.01 13.33 25.02 13.66 24 14 C24 14.66 24 15.32 24 16 C32.11322257 18.85059171 40.72943057 19.00898544 49.2421875 19.6796875 C56.58544499 20.34725636 62.52110537 21.44252279 69 25 C70.33176184 25.66980043 71.66467245 26.33733676 73 27 C72.34 27.66 71.68 28.32 71 29 C71 29.66 71 30.32 71 31 C64.07 31 57.14 31 50 31 C50 30.67 50 30.34 50 30 C44.67829506 29.70437633 44.67829506 29.70437633 40 32 C42.19070268 32.97861321 44.38276659 33.95373558 46.578125 34.921875 C48.50062525 35.77769769 50.40922698 36.66472971 52.3125 37.5625 C57.42086392 39.5538961 62.66549211 40.76491689 68 42 C68 42.66 68 43.32 68 44 C66.86949219 44.268125 65.73898438 44.53625 64.57421875 44.8125 C34.168276 51.97059231 34.168276 51.97059231 6 65 C4.515 65.495 4.515 65.495 3 66 C3.41150153 68.91398245 3.41150153 68.91398245 5 72 C6.60722104 73.13725392 6.60722104 73.13725392 8.5625 73.98828125 C9.28373047 74.32520996 10.00496094 74.66213867 10.74804688 75.00927734 C31.00436029 83.92082546 52.05428359 87.68548817 73.88696289 90.65698242 C74.93360107 90.80498291 75.98023926 90.9529834 77.05859375 91.10546875 C77.98986084 91.23074951 78.92112793 91.35603027 79.88061523 91.48510742 C80.58001221 91.65502197 81.27940918 91.82493652 82 92 C82.33 92.66 82.66 93.32 83 94 C81.85770389 97.42688834 80.39995129 99.00576508 77.42529297 101.02832031 C72.08571126 103.16759303 66.15182589 101.95098856 60.5625 101.375 C59.27794922 101.26542969 57.99339844 101.15585938 56.66992188 101.04296875 C51.79824897 100.61628952 46.9508665 100.1296907 42.10498047 99.46875 C37.87900342 98.93376808 33.69704053 98.83106242 29.44140625 98.7890625 C27.82225536 98.76100297 26.20311486 98.73233857 24.58398438 98.703125 C22.07186076 98.66193059 19.55993327 98.62497309 17.04760742 98.59863281 C6.75554474 98.48180345 -1.76466451 98.20534286 -11.07324219 93.42016602 C-15.81779188 91.40043095 -20.52134893 91.59620759 -25.60546875 91.62890625 C-27.66080907 91.61153706 -29.71614758 91.59395256 -31.77148438 91.57617188 C-34.9908364 91.56607059 -38.21007608 91.5625119 -41.42944336 91.56420898 C-44.55095708 91.56064697 -47.67160819 91.53334993 -50.79296875 91.50390625 C-51.75655807 91.51208878 -52.7201474 91.5202713 -53.7129364 91.52870178 C-60.37132945 91.45429611 -60.37132945 91.45429611 -63.52880859 89.17260742 C-65.55647508 86.17821577 -67.06984683 83.08272175 -68.4375 79.75 C-68.7360791 79.02707764 -69.0346582 78.30415527 -69.34228516 77.55932617 C-73.28222939 67.42668436 -75.11672238 56.6709101 -77 46 C-77.18320801 45.08500732 -77.36641602 44.17001465 -77.55517578 43.22729492 C-78.1145797 39.16869975 -78.1075617 35.21521562 -78.0625 31.125 C-78.05798828 30.34125 -78.05347656 29.5575 -78.04882812 28.75 C-78.03714093 26.83329986 -78.01920908 24.91663952 -78 23 C-73.45869828 21.30551906 -68.90958656 19.63457869 -64.35253906 17.98291016 C-62.81060376 17.42060623 -61.27078775 16.85244867 -59.73339844 16.27783203 C-50.32940926 12.76823869 -41.57483763 10.28274494 -31.55078125 9.41748047 C-27.8591665 8.98344161 -24.5509929 8.07812702 -21 7 C-18.65265064 6.6031553 -16.29775174 6.24854093 -13.9375 5.9375 C-9.61031871 5.35894869 -5.30276347 4.74004912 -1 4 C-0.67 2.68 -0.34 1.36 0 0 Z " fill="#929292" transform="translate(96,132)"/>
<path d="M0 0 C0.495 2.97 0.495 2.97 1 6 C1.556875 5.649375 2.11375 5.29875 2.6875 4.9375 C5.70554844 3.71396685 6.97421345 3.78968538 10 5 C11.3703055 6.97485205 12.70672372 8.97386717 14 11 C14.99 11 15.98 11 17 11 C18.99097846 8.01353231 19.94124926 5.40312738 21 2 C23.64905037 2.95660152 25.69969936 3.73076494 27.8125 5.625 C30.57134355 7.35913023 32.63014349 7.0043335 35.80444336 6.95410156 C46.44848273 7.17661679 55.96989582 11.23220386 64 18 C64.639375 18.48082031 65.27875 18.96164063 65.9375 19.45703125 C67.625 20.75 67.625 20.75 70 23 C70 23.99 70 24.98 70 26 C71.65 26 73.3 26 75 26 C75.309375 26.8971875 75.309375 26.8971875 75.625 27.8125 C77.52985005 30.84294326 79.77573858 31.51187935 83 33 C83.90878906 33.63808594 84.81757813 34.27617188 85.75390625 34.93359375 C89.1765074 37.11236151 92.33712156 38.31205555 96.1875 39.5625 C100.37794365 40.92361322 102.97294857 41.87119894 106 45 C108.58082249 45.89050744 111.16873249 46.51064791 113.8203125 47.15625 C114.53960937 47.4346875 115.25890625 47.713125 116 48 C116.33 48.99 116.66 49.98 117 51 C114.54601655 52.22699173 112.91814267 52.1399892 110.17407227 52.16113281 C108.66593712 52.17554413 108.66593712 52.17554413 107.12733459 52.19024658 C106.03472824 52.19449646 104.94212189 52.19874634 103.81640625 52.203125 C102.69113022 52.20882507 101.56585419 52.21452515 100.40647888 52.22039795 C98.0165196 52.22986228 95.62654719 52.23638759 93.23657227 52.24023438 C89.60864796 52.24987734 85.98130534 52.28086158 82.35351562 52.3125 C80.02864919 52.31903635 77.7037787 52.32428433 75.37890625 52.328125 C74.30451797 52.3404718 73.2301297 52.3528186 72.1231842 52.36553955 C64.98416178 52.34481498 58.78375395 51.21890592 52 49 C52 49.99 52 50.98 52 52 C49.36 52 46.72 52 44 52 C44 52.66 44 53.32 44 54 C41.59873815 55.20063092 40.62939753 54.9724561 38 54.625 C34.48190543 54.18452312 30.96627731 53.78385225 27.4375 53.4375 C26.59058594 53.35371094 25.74367188 53.26992187 24.87109375 53.18359375 C24.25363281 53.12300781 23.63617188 53.06242187 23 53 C22.90460938 53.62519531 22.80921875 54.25039062 22.7109375 54.89453125 C22 57 22 57 18.625 58.6875 C14.45378006 60.07051087 10.42652832 60.39656478 6.0625 60.6875 C1.37577493 61.16573725 -3.14430629 62.27474857 -7.73046875 63.328125 C-10.38547962 63.87371863 -12.74716341 64.14866906 -15.4375 64.25 C-20.49188533 64.69155411 -24.76838164 67.06349349 -29.25244141 69.26489258 C-43.02856048 76 -43.02856048 76 -49 76 C-50.1038008 57.4806755 -46.13783985 32.3545155 -35 17 C-29.34094014 13.54168564 -23.41767588 11.80397423 -17.05078125 10.02734375 C-11.56489715 8.17998457 -7.7623247 5.04504535 -3.55078125 1.20703125 C-2 0 -2 0 0 0 Z " fill="#848484" transform="translate(68,75)"/>
<path d="M0 0 C6.33115807 -0.12789222 12.66197717 -0.21480336 18.99414062 -0.2746582 C21.14335579 -0.29963783 23.29248745 -0.33363366 25.44140625 -0.37719727 C46.21254491 -0.78740795 46.21254491 -0.78740795 55.25195312 3.85327148 C60.75994178 6.15169212 66.74236426 5.69652995 72.625 5.6875 C75.28808316 5.72113809 77.95042678 5.77332683 80.61328125 5.82421875 C82.52294678 5.85781494 82.52294678 5.85781494 84.47119141 5.89208984 C89.66752809 6.05099263 94.766887 6.60256181 99.91723633 7.2746582 C104.16038886 7.82152649 108.34601886 8.13601175 112.62158203 8.29150391 C125.74227774 8.79153488 135.67449177 11.81514592 146 20 C147.9991241 21.5428023 149.99919407 23.08437943 152 24.625 C152.53496094 25.0387085 153.06992188 25.45241699 153.62109375 25.87866211 C165.23638629 34.83994078 176.76233165 43.56827068 190 50 C189.67 50.99 189.34 51.98 189 53 C182.69200612 54.22655437 179.00474412 53.82346311 173.25 51.0625 C172.55825684 50.7432959 171.86651367 50.4240918 171.15380859 50.09521484 C161.5430922 45.52618574 153.28239317 39.67734689 145.64453125 32.2734375 C144.77183594 31.52320313 143.89914063 30.77296875 143 30 C142.43788818 29.47575439 141.87577637 28.95150879 141.29663086 28.41137695 C134.56381469 22.94273422 127.49953694 23.18041705 119.24633789 23.38256836 C116.9659118 23.43682403 114.68920377 23.44409924 112.40820312 23.44335938 C101.44559 23.52353639 90.4644723 24.51184257 80 28 C82.97923003 28.02727678 85.95820379 28.04697128 88.9375 28.0625 C89.76830078 28.07087891 90.59910156 28.07925781 91.45507812 28.08789062 C96.29238116 28.10671282 100.96974984 27.83910207 105.76928711 27.2512207 C118.04944937 25.86824084 128.4604253 25.88217763 139 33 C139.55977539 33.37463379 140.11955078 33.74926758 140.69628906 34.13525391 C143.5619496 36.06167573 146.38556711 38.02783512 149.1875 40.046875 C151.42837668 41.60303936 153.5238296 42.88096146 156 44 C156 44.66 156 45.32 156 46 C156.80695313 46.07089844 157.61390625 46.14179688 158.4453125 46.21484375 C163.07552072 47.23756007 166.74995619 49.27974271 170.875 51.5625 C171.65875 51.98724609 172.4425 52.41199219 173.25 52.84960938 C175.17100387 53.89210538 177.0873249 54.94232445 179 56 C179 56.33 179 56.66 179 57 C169.01940951 56.8781712 160.65334632 54.07405723 151.5 50.5 C149.48313425 49.72907262 147.46467182 48.9624802 145.44567871 48.19714355 C143.63358783 47.50768705 141.82545253 46.80786015 140.01757812 46.10742188 C135.94895879 44.61427808 132.66423215 43.87328367 128.33203125 43.8671875 C127.43806641 43.86589844 126.54410156 43.86460937 125.62304688 43.86328125 C124.69556641 43.86714844 123.76808594 43.87101562 122.8125 43.875 C121.90435547 43.87113281 120.99621094 43.86726563 120.06054688 43.86328125 C119.16013672 43.86457031 118.25972656 43.86585938 117.33203125 43.8671875 C116.12123901 43.86887939 116.12123901 43.86887939 114.88598633 43.87060547 C112.53638406 43.97595097 110.29617215 44.20248019 107.9675293 44.49780273 C102.04636778 45.18320656 96.14201434 45.16220796 90.1875 45.16796875 C88.97860107 45.17129715 87.76970215 45.17462555 86.52416992 45.17805481 C83.97933327 45.1830961 81.43449007 45.185464 78.88964844 45.18530273 C75.01225876 45.18749308 71.13515211 45.20568953 67.2578125 45.22460938 C64.77604263 45.22754317 62.29427142 45.22952806 59.8125 45.23046875 C58.66225342 45.23765427 57.51200684 45.24483978 56.3269043 45.25224304 C41.83395914 45.21138903 33.18332623 41.33544732 22.9375 31.3125 C22.44781738 30.8369165 21.95813477 30.36133301 21.45361328 29.87133789 C18 26.36888189 18 26.36888189 18 23 C32.03810306 18.32063231 46.13295098 21.40483914 60 25 C56.77198351 24.01701402 53.54239567 23.03929198 50.3125 22.0625 C49.40048828 21.78470703 48.48847656 21.50691406 47.54882812 21.22070312 C46.66259766 20.95322266 45.77636719 20.68574219 44.86328125 20.41015625 C44.05157471 20.16402588 43.23986816 19.91789551 42.40356445 19.66430664 C37.40348816 18.2823658 32.88411832 17.86438382 27.6875 17.875 C26.43324219 17.87242187 25.17898437 17.86984375 23.88671875 17.8671875 C19.85098965 18.00509181 15.99602026 18.44117808 12 19 C10.18159184 16.39991307 8.37132062 13.7942638 6.5625 11.1875 C6.04623047 10.44951172 5.52996094 9.71152344 4.99804688 8.95117188 C4.50498047 8.23896484 4.01191406 7.52675781 3.50390625 6.79296875 C3.04830322 6.1383667 2.5927002 5.48376465 2.12329102 4.80932617 C1 3 1 3 0 0 Z " fill="#626262" transform="translate(37,228)"/>
<path d="M0 0 C10.78107194 1.13484968 19.01001658 6.74977271 27.6796875 12.7578125 C30.04219945 14.38790609 32.37084604 15.82414722 35 17 C35 17.66 35 18.32 35 19 C35.556875 19.226875 36.11375 19.45375 36.6875 19.6875 C43.01479742 23.27866881 46.70311967 29.24187132 49 36 C49.46914315 39.3252106 49.7662194 42.65064334 50 46 C49.44127197 46.18062988 48.88254395 46.36125977 48.30688477 46.54736328 C34.85016278 50.82825196 34.85016278 50.82825196 22.73046875 57.8828125 C21 59 21 59 17.5 59.8125 C12.26916549 58.59819913 9.0089375 55.43401235 5 52 C0.27017449 48.84678299 -4.45811144 49.460857 -10 50 C-12.37055702 50.60580902 -14.72585548 51.27430203 -17.0625 52 C-29.18761242 55.70191486 -29.18761242 55.70191486 -35 54 C-36.88634074 52.06650074 -37.95652049 50.28925617 -39.09765625 47.84765625 C-39.85702046 45.81838556 -39.85702046 45.81838556 -42 45 C-42 44.34 -42 43.68 -42 43 C-42.59167969 42.85304687 -43.18335938 42.70609375 -43.79296875 42.5546875 C-49.66328983 40.88839734 -52.85873706 39.340147 -56 34 C-55.80392157 28.80392157 -55.80392157 28.80392157 -54 27 C-49.96301345 26.7947295 -46.94792354 26.67028747 -43.125 28 C-38.71714867 29.41051243 -34.58017273 29.76336212 -30 29 C-26.65374976 26.47323961 -25.32022153 24.96066458 -24 21 C-23.34 21 -22.68 21 -22 21 C-21.731875 20.38125 -21.46375 19.7625 -21.1875 19.125 C-20 17 -20 17 -17 15 C-14.6953125 14.76953125 -14.6953125 14.76953125 -12.125 14.8125 C-11.28195313 14.81894531 -10.43890625 14.82539062 -9.5703125 14.83203125 C-6.97027765 15.00194234 -4.54002701 15.43099753 -2 16 C-1.90912109 14.51886719 -1.90912109 14.51886719 -1.81640625 13.0078125 C-1.73261719 11.72648437 -1.64882812 10.44515625 -1.5625 9.125 C-1.48128906 7.84882812 -1.40007812 6.57265625 -1.31640625 5.2578125 C-1 2 -1 2 0 0 Z " fill="#F9F9F9" transform="translate(211,30)"/>
<path d="M0 0 C10.37879841 2.64193369 20.49525363 3.40164622 31.17626953 3.34765625 C31.95292969 3.35152344 32.72958984 3.35539062 33.52978516 3.359375 C38.15510798 3.35167255 42.64188335 3.02523418 47.23168945 2.47167969 C59.5308452 1.11471496 69.92795004 1.09048637 80.48876953 8.22265625 C81.04854492 8.59729004 81.60832031 8.97192383 82.18505859 9.35791016 C85.05071913 11.28433198 87.87433664 13.25049137 90.67626953 15.26953125 C92.91714621 16.82569561 95.01259914 18.10361771 97.48876953 19.22265625 C97.48876953 19.88265625 97.48876953 20.54265625 97.48876953 21.22265625 C98.29572266 21.29355469 99.10267578 21.36445313 99.93408203 21.4375 C104.56429025 22.46021632 108.23872572 24.50239896 112.36376953 26.78515625 C113.14751953 27.20990234 113.93126953 27.63464844 114.73876953 28.07226562 C116.6597734 29.11476163 118.57609443 30.1649807 120.48876953 31.22265625 C120.48876953 31.55265625 120.48876953 31.88265625 120.48876953 32.22265625 C110.50817905 32.10082745 102.14211585 29.29671348 92.98876953 25.72265625 C90.97190378 24.95172887 88.95344135 24.18513645 86.93444824 23.4197998 C85.12235736 22.7303433 83.31422206 22.0305164 81.50634766 21.33007812 C77.43772832 19.83693433 74.15300168 19.09593992 69.82080078 19.08984375 C68.92683594 19.08855469 68.03287109 19.08726562 67.11181641 19.0859375 C66.18433594 19.08980469 65.25685547 19.09367187 64.30126953 19.09765625 C63.393125 19.09378906 62.48498047 19.08992188 61.54931641 19.0859375 C60.64890625 19.08722656 59.74849609 19.08851563 58.82080078 19.08984375 C57.61000854 19.09153564 57.61000854 19.09153564 56.37475586 19.09326172 C54.02515359 19.19860722 51.78494169 19.42513644 49.45629883 19.72045898 C43.53513731 20.40586281 37.63078387 20.38486421 31.67626953 20.390625 C30.46737061 20.3939534 29.25847168 20.3972818 28.01293945 20.40071106 C25.4681028 20.40575235 22.92325961 20.40812025 20.37841797 20.40795898 C16.50102829 20.41014933 12.62392164 20.42834578 8.74658203 20.44726562 C6.26481216 20.45019942 3.78304095 20.45218431 1.30126953 20.453125 C0.15102295 20.46031052 -0.99922363 20.46749603 -2.18432617 20.47489929 C-16.67727133 20.43404528 -25.32790423 16.55810357 -35.57373047 6.53515625 C-36.06341309 6.05957275 -36.5530957 5.58398926 -37.05761719 5.09399414 C-40.51123047 1.59153814 -40.51123047 1.59153814 -40.51123047 -1.77734375 C-26.77552286 -6.35591295 -13.60743314 -3.50423491 0 0 Z " fill="#7E7E7E" transform="translate(95.51123046875,252.77734375)"/>
<path d="M0 0 C2.54194161 0.14188985 5.08347993 0.28839155 7.625 0.4375 C8.69427734 0.49647461 8.69427734 0.49647461 9.78515625 0.55664062 C10.48769531 0.59853516 11.19023437 0.64042969 11.9140625 0.68359375 C12.8723999 0.73858032 12.8723999 0.73858032 13.85009766 0.79467773 C16 1 16 1 18.79907227 1.50439453 C22.33121344 2.05128238 25.72716123 2.17858977 29.30078125 2.24609375 C30.75252766 2.27777212 32.20426901 2.30968338 33.65600586 2.34179688 C34.79487747 2.36487915 34.79487747 2.36487915 35.95675659 2.38842773 C49.46678073 2.66985376 62.94963429 3.17545676 76.4375 4 C77.14218414 4.04188446 77.84686829 4.08376892 78.57290649 4.12692261 C90.9411463 4.86939831 90.9411463 4.86939831 96 6 C93.08043658 11.61510094 89.63126115 15.89457734 85.25 20.4375 C84.31510742 21.41928223 84.31510742 21.41928223 83.36132812 22.42089844 C82.13164065 23.70880733 80.89867984 24.99360063 79.66210938 26.27490234 C78.26891411 27.72089497 76.89045807 29.181069 75.515625 30.64453125 C70.83454416 35.53426492 66.83087394 39.02685046 59.8125 39.4375 C54.14981867 39.2461932 49.14422812 37.2454368 44 35 C43.11570313 34.62230469 42.23140625 34.24460937 41.3203125 33.85546875 C36.37098656 31.08966896 32.03112086 27.60094195 27.5625 24.125 C25.7312133 22.7099734 23.89919712 21.29589031 22.06640625 19.8828125 C21.20160645 19.21411133 20.33680664 18.54541016 19.44580078 17.85644531 C17.29574609 16.22448126 15.11785098 14.65826245 12.90234375 13.1171875 C10 11 10 11 9 9 C7.8553125 8.566875 7.8553125 8.566875 6.6875 8.125 C3.66193627 6.85848495 2.06841307 5.52806042 0 3 C0 2.01 0 1.02 0 0 Z " fill="#636363" transform="translate(174,235)"/>
<path d="M0 0 C23.25242844 -1.58390458 45.11159508 2.85731121 66.06787109 13.33544922 C66.06787109 13.99544922 66.06787109 14.65544922 66.06787109 15.33544922 C55.16382141 19.04840288 44.46032641 21.64197613 33.06787109 23.33544922 C31.82650391 23.53460938 31.82650391 23.53460938 30.56005859 23.73779297 C1.67500931 27.74655456 -27.56725605 19.71175755 -52.93212891 6.33544922 C-52.93212891 5.34544922 -52.93212891 4.35544922 -52.93212891 3.33544922 C-38.97620455 2.34555532 -25.01748397 1.45645262 -11.04785156 0.68261719 C-7.36326137 0.47809545 -3.68134661 0.25618577 0 0 Z " fill="#A8A8A8" transform="translate(140.93212890625,273.66455078125)"/>
<path d="M0 0 C0 3 0 3 -1 5 C-0.34 5 0.32 5 1 5 C1.66 4.34 2.32 3.68 3 3 C4.98828125 3.20703125 4.98828125 3.20703125 7.3125 3.8125 C8.51132813 4.11220703 8.51132813 4.11220703 9.734375 4.41796875 C10.48203125 4.61003906 11.2296875 4.80210937 12 5 C13.66534667 5.33986667 15.33129513 5.67702486 17 6 C17 6.99 17 7.98 17 9 C16.071875 8.896875 15.14375 8.79375 14.1875 8.6875 C13.135625 8.790625 12.08375 8.89375 11 9 C9.27499823 11.4579893 9.27499823 11.4579893 8 14 C9.57974609 14.05607422 9.57974609 14.05607422 11.19140625 14.11328125 C21.07126524 14.5383329 30.35959765 15.76881518 40 18 C39.01 18.33 38.02 18.66 37 19 C37 19.66 37 20.32 37 21 C38.10859375 21.26554687 39.2171875 21.53109375 40.359375 21.8046875 C41.82297811 22.16120621 43.28651641 22.51799103 44.75 22.875 C45.84441406 23.13603516 45.84441406 23.13603516 46.9609375 23.40234375 C50.53285028 24.27908598 53.79373841 25.12686823 57 27 C57 27.66 57 28.32 57 29 C58.65 29 60.3 29 62 29 C62.33 27.68 62.66 26.36 63 25 C63.99 26.98 63.99 26.98 65 29 C59.56109064 31.60629616 54.51086808 32.81034338 48.5625 33.6875 C47.73556641 33.81705078 46.90863281 33.94660156 46.05664062 34.08007812 C44.0390302 34.3949653 42.0196769 34.69865138 40 35 C41.18078125 35.26554687 42.3615625 35.53109375 43.578125 35.8046875 C45.13547811 36.16119002 46.69276642 36.51797572 48.25 36.875 C49.02730469 37.04902344 49.80460937 37.22304687 50.60546875 37.40234375 C51.35957031 37.57636719 52.11367187 37.75039062 52.890625 37.9296875 C53.92751465 38.16534424 53.92751465 38.16534424 54.98535156 38.40576172 C57.14737125 39.04346845 59.01604085 39.93799834 61 41 C60.25506829 45.28220419 58.41629118 46.87816074 55.13085938 49.54150391 C51.4305283 52.07424655 47.43152862 53.62046552 43.25 55.1875 C41.92754272 55.69893555 41.92754272 55.69893555 40.57836914 56.22070312 C25.39653632 62 25.39653632 62 19 62 C19.87962907 64.34594322 19.87962907 64.34594322 22.95703125 65 C24.86548828 65.495 24.86548828 65.495 26.8125 66 C27.49393066 66.17877686 28.17536133 66.35755371 28.87744141 66.54174805 C32.86682485 67.55939077 36.78583414 68.29495606 40.875 68.8125 C46.14592427 69.59390387 50.63966477 71.35021978 55.5 73.4375 C67.99251718 78.77104447 82.62116396 83.49412186 96.1328125 78.9453125 C98.51802054 77.74202844 100.73207478 76.40679572 103 75 C103.88816406 74.67257813 104.77632813 74.34515625 105.69140625 74.0078125 C108.2911059 73.18569189 108.2911059 73.18569189 109.1875 70.25 C112.54536402 64.22900245 119.63371818 61.2271481 126 59 C126.99 59 127.98 59 129 59 C129 58.34 129 57.68 129 57 C131.31 57.33 133.62 57.66 136 58 C134.95203028 61.39270774 133.83675352 62.0954364 130.69921875 63.9296875 C128.7018511 64.91942789 126.69014026 65.87375541 124.67382812 66.82421875 C121.21385262 68.54222835 118.71613117 70.05551871 116.3125 73.12109375 C113.98482246 76.01889501 112.72533993 76.9533151 109.3125 78.1875 C105.81578008 79.474528 105.17762711 79.73355934 103 83 C102.34 83 101.68 83 101 83 C101 83.66 101 84.32 101 85 C83.89703346 85.55696033 69.96951842 84.85625501 54.0625 78.125 C46.18145978 74.79557659 38.082519 72.93619265 29.74243164 71.09228516 C24.18221672 69.84777938 19.13991024 68.47504201 14 66 C14 64.35 14 62.7 14 61 C18.67963116 58.87561501 23.1036171 57.37506248 28.125 56.1875 C36.5171677 54.08577822 44.3509268 50.85434551 51.7421875 46.31640625 C54 45 54 45 56 45 C56 44.34 56 43.68 56 43 C53.05044479 41.66794281 50.22177032 40.80638691 47.0625 40.1875 C42.76284313 39.27809711 38.64224427 37.95239316 34.5 36.5 C32.69015625 35.86578125 32.69015625 35.86578125 30.84375 35.21875 C28 34 28 34 27 32 C33.93 32 40.86 32 48 32 C48 31.34 48 30.68 48 30 C47.01 29.67 46.02 29.34 45 29 C45.99 28.67 46.98 28.34 48 28 C47.28972656 27.72285156 46.57945312 27.44570312 45.84765625 27.16015625 C44.92855469 26.79792969 44.00945312 26.43570313 43.0625 26.0625 C42.14597656 25.70285156 41.22945312 25.34320313 40.28515625 24.97265625 C38 24 38 24 37 23 C34.94044261 22.73618644 32.87326104 22.53150065 30.8046875 22.3515625 C29.53109375 22.23296875 28.2575 22.114375 26.9453125 21.9921875 C24.91834516 21.80756252 22.89125288 21.6263886 20.86328125 21.453125 C6.30316903 20.19449055 6.30316903 20.19449055 1 17 C0.67 16.01 0.34 15.02 0 14 C0.33 13.67 0.66 13.34 1 13 C-0.65 13 -2.3 13 -4 13 C-4 12.34 -4 11.68 -4 11 C-2.35 10.34 -0.7 9.68 1 9 C-0.65 8.67 -2.3 8.34 -4 8 C-4 7.34 -4 6.68 -4 6 C-4.66 6 -5.32 6 -6 6 C-6 5.34 -6 4.68 -6 4 C-6.66 3.67 -7.32 3.34 -8 3 C-5.36 2.01 -2.72 1.02 0 0 Z " fill="#212121" transform="translate(119,131)"/>
<path d="M0 0 C7.75 0.875 7.75 0.875 10 2 C10 2.99 10 3.98 10 5 C2.23518528 7.46836762 -5.54598668 9.87187959 -13.35546875 12.1953125 C-14.00588135 12.38901932 -14.65629395 12.58272614 -15.32641602 12.78230286 C-18.60784272 13.75932382 -21.89024775 14.73282485 -25.17431641 15.70092773 C-41.24949195 20.05205353 -41.24949195 20.05205353 -55 29 C-55.33 29.66 -55.66 30.32 -56 31 C-55.48695312 31.14695313 -54.97390625 31.29390625 -54.4453125 31.4453125 C-49.41216565 32.91966865 -44.43367958 34.51712729 -39.46899414 36.20532227 C-27.46309996 40.27564677 -15.85846907 43.09748801 -3.29321289 44.80541992 C3.13448661 45.69304643 9.50703768 46.75365461 15.875 48 C17.09509766 48.2309436 17.09509766 48.2309436 18.33984375 48.46655273 C23.2299634 49.45080157 27.48224359 50.87966633 32 53 C31 56 31 56 28.75 57.25 C25.71763271 58.07700926 23.98879276 57.85394079 21 57 C21.33 55.68 21.66 54.36 22 53 C21.08001221 52.87471924 20.16002441 52.74943848 19.2121582 52.62036133 C-46.41155182 43.58844818 -46.41155182 43.58844818 -59 31 C-59.39453125 28.5625 -59.39453125 28.5625 -59 26 C-57.19921875 24.375 -57.19921875 24.375 -54.6875 23 C-53.48673828 22.319375 -53.48673828 22.319375 -52.26171875 21.625 C-51.18535156 21.08875 -50.10898438 20.5525 -49 20 C-48.25395508 19.62512451 -47.50791016 19.25024902 -46.73925781 18.86401367 C-39.51996593 15.39371811 -32.10507582 13.04774721 -24.41992188 10.88745117 C-22.36849029 10.31066973 -20.32081262 9.72186181 -18.2734375 9.13085938 C-0.38940776 4 -0.38940776 4 6 4 C6 3.34 6 2.68 6 2 C4.02 1.67 2.04 1.34 0 1 C0 0.67 0 0.34 0 0 Z " fill="#1A1A1A" transform="translate(158,172)"/>
<path d="M0 0 C2.31 0.33 4.62 0.66 7 1 C5.95203028 4.39270774 4.83675352 5.0954364 1.69921875 6.9296875 C-0.2981489 7.91942789 -2.30985974 8.87375541 -4.32617188 9.82421875 C-7.78614738 11.54222835 -10.28386883 13.05551871 -12.6875 16.12109375 C-15.01517754 19.01889501 -16.27466007 19.9533151 -19.6875 21.1875 C-23.18421992 22.474528 -23.82237289 22.73355934 -26 26 C-26.66 26 -27.32 26 -28 26 C-28 26.66 -28 27.32 -28 28 C-49.31083101 28.69398999 -65.56599963 25.56250511 -85 17 C-85 15.68 -85 14.36 -85 13 C-79.70245681 13.42953053 -75.54670301 15.5009725 -70.8125 17.7265625 C-59.54033347 22.83034901 -44.92066934 25.95883587 -32.84375 21.953125 C-30.47470409 20.74005932 -28.25981984 19.40176794 -26 18 C-25.11183594 17.67257813 -24.22367188 17.34515625 -23.30859375 17.0078125 C-20.7088941 16.18569189 -20.7088941 16.18569189 -19.8125 13.25 C-16.45463598 7.22900245 -9.36628182 4.2271481 -3 2 C-2.01 2 -1.02 2 0 2 C0 1.34 0 0.68 0 0 Z " fill="#101010" transform="translate(248,188)"/>
<path d="M0 0 C0.99 0.33 1.98 0.66 3 1 C2.04882866 2.1725131 1.08882991 3.33787015 0.125 4.5 C-0.40867188 5.1496875 -0.94234375 5.799375 -1.4921875 6.46875 C-1.98976562 6.9740625 -2.48734375 7.479375 -3 8 C-3.66 8 -4.32 8 -5 8 C-5.0928125 8.8353125 -5.0928125 8.8353125 -5.1875 9.6875 C-6.44282992 13.26036208 -7.94112703 14.75266476 -11 17 C-16.78881761 17.95515491 -21.5299359 16.90263099 -27 15 C-29.69282546 14.83292689 -32.29806718 14.9068299 -35 15 C-35.99014422 18.54801679 -36.36446192 20.30420907 -34.625 23.625 C-31.13231472 26.78504859 -27.36463166 28.33062165 -23 30 C-23 30.66 -23 31.32 -23 32 C-21.515 32.495 -21.515 32.495 -20 33 C-18.41034429 35.21701147 -17.27672514 37.57862473 -16 40 C-8.93959239 40.36872535 -3.04712525 39.76105113 3.6875 37.55859375 C6 37 6 37 9 38 C9.99 38.66 10.98 39.32 12 40 C11.29875 40.12117188 10.5975 40.24234375 9.875 40.3671875 C5.49003966 41.14170495 1.16153548 41.91019237 -3.125 43.125 C-9.62607176 44.59298395 -16.11473165 44.86957649 -22.40234375 42.33203125 C-25.27903704 39.9336146 -25.39549707 36.64258575 -25.84375 33.08203125 C-25.92109375 32.05142578 -25.92109375 32.05142578 -26 31 C-27.22976562 30.76216797 -27.22976562 30.76216797 -28.484375 30.51953125 C-37.13901345 28.64573991 -37.13901345 28.64573991 -40.75 25.9375 C-42.53722492 21.73752143 -43.03289057 17.48092232 -42 13 C-40.46875 11.1328125 -40.46875 11.1328125 -38 10 C-34.40625 10.27734375 -34.40625 10.27734375 -32.30078125 10.63623047 C-28.06636433 11.30572126 -23.7782337 11.37283993 -19.5 11.5625 C-18.5821875 11.60568359 -17.664375 11.64886719 -16.71875 11.69335938 C-14.47927939 11.79833456 -12.23971908 11.90049248 -10 12 C-9.731875 11.06800781 -9.46375 10.13601562 -9.1875 9.17578125 C-7.44030789 4.50319183 -4.48492046 2.24246023 0 0 Z " fill="#121212" transform="translate(192,43)"/>
<path d="M0 0 C-0.66 0.99 -1.32 1.98 -2 3 C-1.01 4.98 -0.02 6.96 1 9 C-2.45670732 10.17152378 -5.91562122 11.33639077 -9.375 12.5 C-10.35984375 12.83386719 -11.3446875 13.16773438 -12.359375 13.51171875 C-13.30039062 13.82753906 -14.24140625 14.14335937 -15.2109375 14.46875 C-16.08024902 14.76201172 -16.94956055 15.05527344 -17.84521484 15.35742188 C-20 16 -20 16 -22 16 C-22 16.99 -22 17.98 -22 19 C-21.43925781 19.20882812 -20.87851562 19.41765625 -20.30078125 19.6328125 C-17.20513689 21.47232952 -15.3512021 24.06780836 -13.1875 26.875 C-9.55964711 31.42902715 -6.38254537 34.65976288 -1 37 C-1 37.66 -1 38.32 -1 39 C-12.1716161 43.18935604 -24.06906509 44.80922185 -35.83984375 46.47265625 C-36.55269531 46.64667969 -37.26554688 46.82070312 -38 47 C-38.33 47.66 -38.66 48.32 -39 49 C-40.27875 49.061875 -41.5575 49.12375 -42.875 49.1875 C-43.95394531 49.23970703 -43.95394531 49.23970703 -45.0546875 49.29296875 C-45.69664062 49.19628906 -46.33859375 49.09960938 -47 49 C-47.66 48.01 -48.32 47.02 -49 46 C-37.5704321 42.25677108 -26.85528278 39.96100712 -14.84765625 39.24609375 C-12.4379155 39.03784455 -10.31407663 38.67470668 -8 38 C-9.07358632 34.88659967 -9.78839691 34.1034504 -12.8125 32.625 C-15.93719515 31.03201816 -17.51342412 29.51138275 -19.6328125 26.76171875 C-21.27892062 24.64059086 -23.03729301 22.63904006 -24.8125 20.625 C-25.41707031 19.93664062 -26.02164063 19.24828125 -26.64453125 18.5390625 C-27.09183594 18.03117187 -27.53914063 17.52328125 -28 17 C-25.83652681 14.56894156 -24.11830114 13.47116431 -21.0234375 12.5 C-20.270625 12.2525 -19.5178125 12.005 -18.7421875 11.75 C-17.1569611 11.24775005 -15.5710141 10.74776913 -13.984375 10.25 C-13.23414063 10.0025 -12.48390625 9.755 -11.7109375 9.5 C-11.02306152 9.2834375 -10.33518555 9.066875 -9.62646484 8.84375 C-7.62872944 8.04701251 -7.62872944 8.04701251 -7 5 C-7.99 4.67 -8.98 4.34 -10 4 C-10 3.34 -10 2.68 -10 2 C-8.71211992 1.46987262 -7.41953322 0.9511671 -6.125 0.4375 C-5.40570313 0.14746094 -4.68640625 -0.14257812 -3.9453125 -0.44140625 C-2 -1 -2 -1 0 0 Z " fill="#0E0E0E" transform="translate(282,137)"/>
<path d="M0 0 C3.84328469 1.78464665 6.21675709 5.30721746 8.88671875 8.50390625 C10.66796138 10.53218253 12.06574995 11.87566758 14.33984375 13.25390625 C17.29792263 15.11130462 18.994939 17.12730736 21.02734375 19.94140625 C20.03734375 20.43640625 20.03734375 20.43640625 19.02734375 20.94140625 C16.42729154 19.53266716 14.00803839 17.90935393 11.53515625 16.2890625 C8.91459571 14.62583074 8.91459571 14.62583074 5.02734375 14.94140625 C4.65609375 15.91078125 4.28484375 16.88015625 3.90234375 17.87890625 C2.02734375 20.94140625 2.02734375 20.94140625 -1.16015625 21.81640625 C-2.55234375 21.87828125 -2.55234375 21.87828125 -3.97265625 21.94140625 C-4.30265625 18.97140625 -4.63265625 16.00140625 -4.97265625 12.94140625 C-8.12399113 14.77968493 -11.09230533 16.70113331 -13.97265625 18.94140625 C-14.68653964 12.39747517 -13.35158733 9.17228635 -9.578125 3.82421875 C-6.73866051 0.49423849 -4.37283438 -0.73034655 0 0 Z " fill="#E4E4E4" transform="translate(83.97265625,60.05859375)"/>
<path d="M0 0 C0 3 0 3 -1 5 C-0.34 5 0.32 5 1 5 C1.66 4.34 2.32 3.68 3 3 C4.98828125 3.20703125 4.98828125 3.20703125 7.3125 3.8125 C8.51132813 4.11220703 8.51132813 4.11220703 9.734375 4.41796875 C10.48203125 4.61003906 11.2296875 4.80210937 12 5 C13.66534667 5.33986667 15.33129513 5.67702486 17 6 C17 6.99 17 7.98 17 9 C16.071875 8.896875 15.14375 8.79375 14.1875 8.6875 C13.135625 8.790625 12.08375 8.89375 11 9 C9.27499823 11.4579893 9.27499823 11.4579893 8 14 C9.57974609 14.05607422 9.57974609 14.05607422 11.19140625 14.11328125 C21.07126524 14.5383329 30.35959765 15.76881518 40 18 C39.01 18.66 38.02 19.32 37 20 C36.34 20.66 35.68 21.32 35 22 C32.3642279 22.03610647 29.86961743 21.95194848 27.25 21.75 C26.49372314 21.69626221 25.73744629 21.64252441 24.95825195 21.5871582 C22.63673293 21.41075098 20.31862745 21.21087453 18 21 C17.30503418 20.93796387 16.61006836 20.87592773 15.89404297 20.81201172 C3.90624209 19.66289916 3.90624209 19.66289916 0 15 C0.99 14.34 1.98 13.68 3 13 C0.69 13 -1.62 13 -4 13 C-4 12.34 -4 11.68 -4 11 C-2.35 10.34 -0.7 9.68 1 9 C-0.65 8.67 -2.3 8.34 -4 8 C-4 7.34 -4 6.68 -4 6 C-4.66 6 -5.32 6 -6 6 C-6 5.34 -6 4.68 -6 4 C-6.66 3.67 -7.32 3.34 -8 3 C-5.36 2.01 -2.72 1.02 0 0 Z " fill="#333333" transform="translate(119,131)"/>
<path d="M0 0 C7.3541559 -0.92408242 12.10223605 -0.5425959 18.1875 3.9375 C20.19692679 5.56746422 22.17036701 7.17036701 24 9 C30.55871042 10.14064529 34.15430434 7.33609526 39.44921875 3.62890625 C41.74329797 2.16392764 43.34804227 1.44095784 46 1 C46 1.66 46 2.32 46 3 C45.319375 3.391875 44.63875 3.78375 43.9375 4.1875 C40.65243143 6.2144572 38.36195988 8.56971976 35.74609375 11.37890625 C30.93508174 15.84550576 25.80891939 15.53454408 19.48828125 15.44921875 C14.32014619 14.78366944 11.54786157 12.6687133 8 9 C7.0925 8.0925 6.185 7.185 5.25 6.25 C4.5075 5.5075 3.765 4.765 3 4 C0.83379456 2.70480005 0.83379456 2.70480005 -1 2 C-0.67 1.34 -0.34 0.68 0 0 Z " fill="#0B0B0B" transform="translate(201,79)"/>
<path d="M0 0 C2.20826378 -0.02722517 4.41662638 -0.04649729 6.625 -0.0625 C7.85476562 -0.07410156 9.08453125 -0.08570313 10.3515625 -0.09765625 C14 0 14 0 16.74316406 0.48852539 C20.42304071 1.06643705 24.04240072 1.20869306 27.7578125 1.28125 C28.49505554 1.29929688 29.23229858 1.31734375 29.99188232 1.3359375 C31.56093359 1.3741779 33.13002817 1.41067549 34.69915771 1.44555664 C38.76324335 1.53676722 42.82691856 1.6433875 46.890625 1.75 C47.68520111 1.77066528 48.47977722 1.79133057 49.2984314 1.81262207 C55.4938146 1.97748171 61.68476914 2.19490746 67.875 2.5 C68.63828613 2.53544922 69.40157227 2.57089844 70.18798828 2.60742188 C74.18780547 2.81779288 78.06359792 3.25961089 82 4 C82 4.33 82 4.66 82 5 C80.93471069 5.03758423 80.93471069 5.03758423 79.84790039 5.07592773 C76.58596536 5.19298472 73.32424278 5.31520746 70.0625 5.4375 C68.38704102 5.49647461 68.38704102 5.49647461 66.67773438 5.55664062 C61.08567311 5.76982771 55.57226151 6.10730732 50.01782227 6.78393555 C46.823138 7.12601608 43.64837765 7.1704752 40.4375 7.1875 C39.21933594 7.20167969 38.00117188 7.21585938 36.74609375 7.23046875 C33.34896159 7.02146896 30.39509235 6.39408497 27.12231445 5.5012207 C22.46585677 4.40151892 17.64796645 4.19298772 12.890625 3.7890625 C8.31927938 3.36279554 4.3208212 2.67798882 0 1 C0 0.67 0 0.34 0 0 Z " fill="#0D0D0D" transform="translate(176,236)"/>
<path d="M0 0 C5.60845067 -0.48769136 9.29773386 0.7501595 14.42578125 2.98828125 C17.66086532 4.25973311 20.86049713 4.87448901 24.28515625 5.41015625 C24.85105469 5.60480469 25.41695312 5.79945313 26 6 C26.33 6.99 26.66 7.98 27 9 C28.65 9 30.3 9 32 9 C32.33 7.68 32.66 6.36 33 5 C33.66 6.32 34.32 7.64 35 9 C29.56109064 11.60629616 24.51086808 12.81034338 18.5625 13.6875 C17.32209961 13.88182617 17.32209961 13.88182617 16.05664062 14.08007812 C14.0390302 14.3949653 12.0196769 14.69865138 10 15 C15.94 16.485 15.94 16.485 22 18 C16.61272204 20.69363898 13.99264382 19.61825814 8.38671875 17.87890625 C7.16597656 17.44449219 5.94523438 17.01007813 4.6875 16.5625 C2.83705078 15.91474609 2.83705078 15.91474609 0.94921875 15.25390625 C-2 14 -2 14 -3 12 C3.93 12 10.86 12 18 12 C18 11.34 18 10.68 18 10 C17.01 9.67 16.02 9.34 15 9 C15.99 8.67 16.98 8.34 18 8 C17.31292969 7.73445312 16.62585938 7.46890625 15.91796875 7.1953125 C15.01691406 6.84210938 14.11585938 6.48890625 13.1875 6.125 C12.29417969 5.77695313 11.40085938 5.42890625 10.48046875 5.0703125 C8 4 8 4 5 2 C3.34450469 1.61500109 1.6777567 1.27206865 0 1 C0 0.67 0 0.34 0 0 Z " fill="#2E2E2E" transform="translate(149,151)"/>
<path d="M0 0 C10.89 0 21.78 0 33 0 C26.15346535 7.98762376 26.15346535 7.98762376 22.125 8.3125 C14.20888767 8.23674773 6.8639427 4.7102393 0 1 C0 0.67 0 0.34 0 0 Z " fill="#414141" transform="translate(212,266)"/>
<path d="M0 0 C6.85166475 -0.19616218 13.14681349 0.48343551 19.875 1.75 C20.83937988 1.92756836 21.80375977 2.10513672 22.79736328 2.28808594 C29.4935907 3.5755174 35.76007081 5.19352467 42 8 C41 11 41 11 38.75 12.25 C35.71763271 13.07700926 33.98879276 12.85394079 31 12 C31.33 10.68 31.66 9.36 32 8 C31.17274414 7.88930176 30.34548828 7.77860352 29.49316406 7.66455078 C26.41358135 7.24901035 23.33495824 6.8270921 20.25683594 6.40087891 C18.27345573 6.12822445 16.28907291 5.86289588 14.3046875 5.59765625 C13.05429688 5.42363281 11.80390625 5.24960938 10.515625 5.0703125 C8.78747559 4.83465576 8.78747559 4.83465576 7.02441406 4.59423828 C4.30741214 4.06040048 2.37088883 3.38895418 0 2 C0 1.34 0 0.68 0 0 Z " fill="#212121" transform="translate(148,217)"/>
<path d="M0 0 C0.33 2.97 0.66 5.94 1 9 C2.98 8.67 4.96 8.34 7 8 C7.28875 7.05125 7.5775 6.1025 7.875 5.125 C9 2 9 2 11 0 C11.70125 0.39832031 12.4025 0.79664062 13.125 1.20703125 C18.65233247 4.29362587 24.00456853 6.96381573 30 9 C25.58852397 10.17254918 21.24202852 11.29278258 17.0625 8.8828125 C15.8446176 7.98462423 14.64845168 7.05593273 13.48046875 6.09375 C12.03867601 4.80192932 12.03867601 4.80192932 10 5 C9.71125 5.928125 9.4225 6.85625 9.125 7.8125 C8 11 8 11 6 14 C4.25 13.875 4.25 13.875 2 13 C1.360625 11.989375 0.72125 10.97875 0.0625 9.9375 C-0.618125 8.968125 -1.29875 7.99875 -2 7 C-4.6704053 6.49758678 -4.6704053 6.49758678 -7 7 C-6.22006468 2.47637516 -4.81844319 0 0 0 Z " fill="#232323" transform="translate(79,73)"/>
<path d="M0 0 C-0.33 0.99 -0.66 1.98 -1 3 C-3.41636538 3.45996803 -5.83306062 3.91806483 -8.25 4.375 C-8.97131104 4.51220459 -9.69262207 4.64940918 -10.43579102 4.79077148 C-15.88594291 5.81790854 -21.34773989 6.69651775 -26.83984375 7.47265625 C-27.90912109 7.73369141 -27.90912109 7.73369141 -29 8 C-29.33 8.66 -29.66 9.32 -30 10 C-31.27875 10.061875 -32.5575 10.12375 -33.875 10.1875 C-34.59429687 10.22230469 -35.31359375 10.25710937 -36.0546875 10.29296875 C-36.69664062 10.19628906 -37.33859375 10.09960938 -38 10 C-38.66 9.01 -39.32 8.02 -40 7 C-26.79748975 2.67612542 -13.95675624 0 0 0 Z " fill="#202020" transform="translate(273,176)"/>
<path d="M0 0 C1.66611905 -0.042721 3.33382885 -0.04063832 5 0 C5.33 0.33 5.66 0.66 6 1 C13.28194455 1.98639886 20.554152 2.31244394 27.890625 2.60546875 C32.02179612 2.78809674 35.96679238 3.00003117 40 4 C39.01 4.66 38.02 5.32 37 6 C36.34 6.66 35.68 7.32 35 8 C32.3642279 8.03610647 29.86961743 7.95194848 27.25 7.75 C26.11558472 7.66939331 26.11558472 7.66939331 24.95825195 7.5871582 C22.63673293 7.41075098 20.31862745 7.21087453 18 7 C17.30503418 6.93796387 16.61006836 6.87592773 15.89404297 6.81201172 C4.89941791 5.75810184 4.89941791 5.75810184 1.61328125 2.98828125 C0 1 0 1 0 0 Z " fill="#4E4E4E" transform="translate(119,145)"/>
<path d="M0 0 C7.75 0.875 7.75 0.875 10 2 C10 2.99 10 3.98 10 5 C4.67230361 6.68507221 -0.66163799 8.34903969 -6 10 C-6.79003418 10.24540527 -7.58006836 10.49081055 -8.39404297 10.74365234 C-10.71861201 11.46231137 -13.04621976 12.17012208 -15.375 12.875 C-16.10581787 13.1021167 -16.83663574 13.3292334 -17.58959961 13.56323242 C-22.77082252 15.11458874 -22.77082252 15.11458874 -25 14 C-25 13.01 -25 12.02 -25 11 C-22.18831904 10.20532858 -19.37571498 9.41420767 -16.5625 8.625 C-15.77939453 8.40328125 -14.99628906 8.1815625 -14.18945312 7.953125 C-0.06284467 4 -0.06284467 4 6 4 C6 3.34 6 2.68 6 2 C3.03 1.505 3.03 1.505 0 1 C0 0.67 0 0.34 0 0 Z " fill="#2D2D2D" transform="translate(158,172)"/>
<path d="M0 0 C1.75570312 0.02707031 1.75570312 0.02707031 3.546875 0.0546875 C4.88492188 0.08949219 4.88492188 0.08949219 6.25 0.125 C6.25 0.455 6.25 0.785 6.25 1.125 C4.27 1.125 2.29 1.125 0.25 1.125 C2.67195448 3.99755066 4.84742703 4.83338919 8.4375 5.8125 C9.33855469 6.06386719 10.23960937 6.31523437 11.16796875 6.57421875 C11.85503906 6.75597656 12.54210937 6.93773437 13.25 7.125 C12.26 7.62 12.26 7.62 11.25 8.125 C11.58 9.115 11.91 10.105 12.25 11.125 C4.43820837 10.74081353 -3.62424933 8.89660898 -9.5703125 3.4609375 C-9.95960938 3.02007812 -10.34890625 2.57921875 -10.75 2.125 C-7.15537669 -0.13498595 -4.18404325 -0.08368087 0 0 Z " fill="#767676" transform="translate(145.75,160.875)"/>
<path d="M0 0 C3 1 3 1 5.08984375 2 C9.9597959 3.67343322 15.03095063 3.7927162 20.13867188 4.2109375 C20.96044922 4.28570312 21.78222656 4.36046875 22.62890625 4.4375 C23.7437439 4.52837891 23.7437439 4.52837891 24.88110352 4.62109375 C27.21099853 5.03773127 28.94255637 5.85041464 31 7 C26.51888331 8.04025923 22.07685284 8.39107171 17.5 8.6875 C16.38044922 8.77741211 16.38044922 8.77741211 15.23828125 8.86914062 C9.7135749 9.22604643 6.0682493 8.73285752 1.6875 5.0625 C0 3 0 3 0 0 Z " fill="#6F6F6F" transform="translate(174,235)"/>
<path d="M0 0 C1.69897461 0.32958984 1.69897461 0.32958984 3.90234375 0.9609375 C4.70631592 1.18499268 5.51028809 1.40904785 6.33862305 1.63989258 C7.19625244 1.88247803 8.05388184 2.12506348 8.9375 2.375 C15.65692491 4.22047143 22.01116397 5.65628675 29 6 C27.68 6.33 26.36 6.66 25 7 C25.33 7.99 25.66 8.98 26 10 C16.66437641 8.82141629 7.98106425 6.77376197 -1 4 C-1 1 -1 1 0 0 Z " fill="#262626" transform="translate(123,210)"/>
<path d="M0 0 C13.45286981 -0.66041361 26.6837811 1.30580928 40 3 C40 3.33 40 3.66 40 4 C38.02 4 36.04 4 34 4 C34 4.66 34 5.32 34 6 C34.66 6.33 35.32 6.66 36 7 C35.42636719 6.87882813 34.85273438 6.75765625 34.26171875 6.6328125 C27.11526099 5.22304086 19.97731099 4.41733195 12.72729492 3.78564453 C8.21447517 3.3610725 4.26713426 2.64913401 0 1 C0 0.67 0 0.34 0 0 Z " fill="#161616" transform="translate(176,236)"/>
<path d="M0 0 C7.39424962 -0.24647499 16.24883661 -0.3755817 23 3 C23 3.66 23 4.32 23 5 C15.37685526 5.23576736 8.41430591 4.83717315 1 3 C0.67 2.01 0.34 1.02 0 0 Z " fill="#1A1A1A" transform="translate(148,217)"/>
<path d="M0 0 C0.66 2.97 1.32 5.94 2 9 C3.98 8.67 5.96 8.34 8 8 C7.67 9.65 7.34 11.3 7 13 C5.68 13.33 4.36 13.66 3 14 C2.69707031 13.4946875 2.39414063 12.989375 2.08203125 12.46875 C0.81585432 10.50520177 -0.41018649 8.71442051 -2 7 C-4.71471005 6.41231617 -4.71471005 6.41231617 -7 7 C-6.22006468 2.47637516 -4.81844319 0 0 0 Z " fill="#202020" transform="translate(79,73)"/>
<path d="M0 0 C2.05893621 0.22325814 4.12233653 0.40705759 6.1875 0.5625 C7.27417969 0.64628906 8.36085937 0.73007812 9.48046875 0.81640625 C10.72763672 0.90728516 10.72763672 0.90728516 12 1 C12 1.33 12 1.66 12 2 C7.69936967 2.1705249 3.39850123 2.33069558 -0.90283203 2.48217773 C-2.35931206 2.53482352 -3.815701 2.59006835 -5.27197266 2.64819336 C-14.945271 3.0320544 -24.34664073 2.91532248 -34 2 C-34 1.67 -34 1.34 -34 1 C-33.07102905 0.96241577 -33.07102905 0.96241577 -32.12329102 0.92407227 C-29.26955112 0.80677342 -26.41603559 0.68466414 -23.5625 0.5625 C-22.58861328 0.52318359 -21.61472656 0.48386719 -20.61132812 0.44335938 C-16.03259629 0.24428408 -11.51310545 -0.02347853 -6.96484375 -0.59765625 C-3 -1 -3 -1 0 0 Z " fill="#191919" transform="translate(152,272)"/>
<path d="M0 0 C5.50808397 0.59015185 10.64878069 1.56663769 16 3 C15.505 3.474375 15.01 3.94875 14.5 4.4375 C12.88457803 5.75923698 12.88457803 5.75923698 13 7 C5.57142857 7.28571429 5.57142857 7.28571429 2 5 C2 4.34 2 3.68 2 3 C1.34 3 0.68 3 0 3 C0 2.01 0 1.02 0 0 Z " fill="#171717" transform="translate(120,124)"/>
<path d="M0 0 C5.14595054 0.57618751 9.55078055 1.74743278 14.4375 3.5625 C15.67371094 4.01753906 16.90992188 4.47257813 18.18359375 4.94140625 C19.11300781 5.29074219 20.04242188 5.64007813 21 6 C20.01 6.99 19.02 7.98 18 9 C15.37020219 8.0744789 12.74673745 7.13535892 10.125 6.1875 C9.37863281 5.92646484 8.63226563 5.66542969 7.86328125 5.39648438 C7.14785156 5.13544922 6.43242188 4.87441406 5.6953125 4.60546875 C5.03547363 4.36981201 4.37563477 4.13415527 3.69580078 3.89135742 C2 3 2 3 0 0 Z " fill="#131313" transform="translate(102,204)"/>
<path d="M0 0 C-0.33 0.66 -0.66 1.32 -1 2 C-1.99 2.33 -2.98 2.66 -4 3 C-4.33 3.66 -4.66 4.32 -5 5 C-6.27875 5.061875 -7.5575 5.12375 -8.875 5.1875 C-9.59429687 5.22230469 -10.31359375 5.25710937 -11.0546875 5.29296875 C-11.69664062 5.19628906 -12.33859375 5.09960938 -13 5 C-13.66 4.01 -14.32 3.02 -15 2 C-13.44240657 1.46467177 -11.87861955 0.94734622 -10.3125 0.4375 C-9.44238281 0.14746094 -8.57226562 -0.14257812 -7.67578125 -0.44140625 C-4.75368926 -1.05141961 -2.85599447 -0.77703633 0 0 Z " fill="#0F0F0F" transform="translate(248,181)"/>
<path d="M0 0 C1.41623216 -0.05447047 2.83308191 -0.09300508 4.25 -0.125 C5.03890625 -0.14820313 5.8278125 -0.17140625 6.640625 -0.1953125 C9.20731941 0.0171622 10.7916067 0.71345895 13 2 C12.45773019 5.79588866 10.79872437 7.47211993 8 10 C7.01 9.67 6.02 9.34 5 9 C5.33 8.01 5.66 7.02 6 6 C6.66 6 7.32 6 8 6 C8 5.34 8 4.68 8 4 C5.36 3.01 2.72 2.02 0 1 C0 0.67 0 0.34 0 0 Z " fill="#1E1E1E" transform="translate(167,170)"/>
<path d="M0 0 C2.20927044 0.2844814 4.41738979 0.5779096 6.625 0.875 C8.46964844 1.11863281 8.46964844 1.11863281 10.3515625 1.3671875 C13.73961517 1.95483689 16.77698651 2.81988122 20 4 C20 4.66 20 5.32 20 6 C18.35 6.66 16.7 7.32 15 8 C15.33 6.68 15.66 5.36 16 4 C15.34773438 4.01160156 14.69546875 4.02320313 14.0234375 4.03515625 C9.2238086 4.08470994 4.72215315 3.99413751 0 3 C0 2.01 0 1.02 0 0 Z " fill="#232323" transform="translate(267,128)"/>
<path d="M0 0 C0.99 0.33 1.98 0.66 3 1 C3 1.66 3 2.32 3 3 C4.78857422 3.07347656 4.78857422 3.07347656 6.61328125 3.1484375 C8.17971068 3.22347604 9.74611579 3.2990234 11.3125 3.375 C12.09818359 3.4059375 12.88386719 3.436875 13.69335938 3.46875 C14.8293457 3.52675781 14.8293457 3.52675781 15.98828125 3.5859375 C17.03302612 3.63306885 17.03302612 3.63306885 18.09887695 3.68115234 C20 4 20 4 23 6 C7.20052929 6.21977625 7.20052929 6.21977625 1 5 C-0.23828125 2.953125 -0.23828125 2.953125 -1 1 C-0.67 0.67 -0.34 0.34 0 0 Z " fill="#262626" transform="translate(124,142)"/>
<path d="M0 0 C7.75 0.875 7.75 0.875 10 2 C10 2.99 10 3.98 10 5 C6.49223216 6.60355101 3.85645121 7.22036864 0 7 C0.66 6.01 1.32 5.02 2 4 C3.32 4 4.64 4 6 4 C6 3.34 6 2.68 6 2 C3.03 1.505 3.03 1.505 0 1 C0 0.67 0 0.34 0 0 Z " fill="#262626" transform="translate(158,172)"/>
<path d="M0 0 C5.61 0.33 11.22 0.66 17 1 C17 1.33 17 1.66 17 2 C15.02 2 13.04 2 11 2 C11 2.66 11 3.32 11 4 C11.66 4.33 12.32 4.66 13 5 C11.20767663 4.69128878 9.41615679 4.37790936 7.625 4.0625 C6.62726563 3.88847656 5.62953125 3.71445313 4.6015625 3.53515625 C2 3 2 3 0 2 C0 1.34 0 0.68 0 0 Z " fill="#1F1F1F" transform="translate(199,238)"/>
<path d="M0 0 C1.76923828 0.01353516 1.76923828 0.01353516 3.57421875 0.02734375 C4.47785156 0.03894531 5.38148438 0.05054688 6.3125 0.0625 C6.3125 0.3925 6.3125 0.7225 6.3125 1.0625 C-0.1225 1.5575 -0.1225 1.5575 -6.6875 2.0625 C-6.6875 2.7225 -6.6875 3.3825 -6.6875 4.0625 C-4.7075 4.7225 -2.7275 5.3825 -0.6875 6.0625 C-3.6875 7.0625 -3.6875 7.0625 -5.51171875 6.28515625 C-7.23697917 5.2109375 -8.96223958 4.13671875 -10.6875 3.0625 C-8.63221196 -1.04807609 -4.03316787 -0.03993236 0 0 Z " fill="#343434" transform="translate(145.6875,160.9375)"/>
<path d="M0 0 C7.1191234 -0.8089913 12.62116486 2.06720223 19 5 C19 5.33 19 5.66 19 6 C13.49228179 5.6520178 9.67730954 5.11820636 5 2 C2.30745009 1.29329272 2.30745009 1.29329272 0 1 C0 0.67 0 0.34 0 0 Z " fill="#0D0D0D" transform="translate(149,151)"/>
<path d="M0 0 C0 2.83967231 -0.40267181 5.23735711 -1 8 C-1.99 8 -2.98 8 -4 8 C-4 7.34 -4 6.68 -4 6 C-4.66 6 -5.32 6 -6 6 C-6 5.34 -6 4.68 -6 4 C-6.66 3.67 -7.32 3.34 -8 3 C-5.36 2.01 -2.72 1.02 0 0 Z " fill="#404040" transform="translate(119,131)"/>
<path d="M0 0 C1.98 0 3.96 0 6 0 C5.67 2.97 5.34 5.94 5 9 C3.68 9 2.36 9 1 9 C1.391875 8.2575 1.78375 7.515 2.1875 6.75 C2.455625 5.8425 2.72375 4.935 3 4 C1.73647948 1.67488528 1.73647948 1.67488528 0 0 Z " fill="#B2B2B2" transform="translate(116,127)"/>
<path d="M0 0 C1.45823212 -0.0270043 2.91660675 -0.04639787 4.375 -0.0625 C5.18710938 -0.07410156 5.99921875 -0.08570313 6.8359375 -0.09765625 C9 0 9 0 11 1 C11 1.66 11 2.32 11 3 C7.7 3 4.4 3 1 3 C0.67 2.01 0.34 1.02 0 0 Z " fill="#090909" transform="translate(160,219)"/>
<path d="M0 0 C1.43791516 0.14168137 2.8753237 0.28851043 4.3125 0.4375 C5.11300781 0.51871094 5.91351563 0.59992188 6.73828125 0.68359375 C9 1 9 1 12 2 C12 2.66 12 3.32 12 4 C7.01137151 4.29344873 4.03770942 4.05887078 0 1 C0 0.67 0 0.34 0 0 Z " fill="#939393" transform="translate(157,151)"/>
<path d="M0 0 C2.31 0 4.62 0 7 0 C7.33 0.99 7.66 1.98 8 3 C5.35261084 4.4606285 4.10551666 5 1 5 C0.67 3.35 0.34 1.7 0 0 Z " fill="#BCBCBC" transform="translate(111,116)"/>
<path d="M0 0 C1.423125 0.2784375 1.423125 0.2784375 2.875 0.5625 C5.89868793 1.28686632 5.89868793 1.28686632 8 0 C7.67 1.65 7.34 3.3 7 5 C5.68 5.33 4.36 5.66 3 6 C0 2.25 0 2.25 0 0 Z " fill="#0F0F0F" transform="translate(79,81)"/>
<path d="M0 0 C1.67542976 0.28604898 3.34385343 0.61781233 5 1 C4.67 1.99 4.34 2.98 4 4 C2.02 4.33 0.04 4.66 -2 5 C-1.125 1.125 -1.125 1.125 0 0 Z " fill="#0E0E0E" transform="translate(185,224)"/>
<path d="M0 0 C0.99 0.66 1.98 1.32 3 2 C-0.96 2.66 -4.92 3.32 -9 4 C-9.33 3.01 -9.66 2.02 -10 1 C-3.375 -1.125 -3.375 -1.125 0 0 Z " fill="#1F1F1F" transform="translate(201,81)"/>
<path d="M0 0 C6.625 0.625 6.625 0.625 10 4 C6.7 3.67 3.4 3.34 0 3 C0 2.01 0 1.02 0 0 Z " fill="#919191" transform="translate(206,281)"/>
<path d="M0 0 C1.98 0.66 3.96 1.32 6 2 C6 2.66 6 3.32 6 4 C3.36 4.33 0.72 4.66 -2 5 C-1.34 3.35 -0.68 1.7 0 0 Z " fill="#070707" transform="translate(275,172)"/>
<path d="M0 0 C0.66 0.66 1.32 1.32 2 2 C-4.625 3.25 -4.625 3.25 -8 1 C-5.23749964 -0.38125018 -3.05268901 -0.19079306 0 0 Z " fill="#3A3A3A" transform="translate(169,168)"/>
<path d="M0 0 C2.31 0.33 4.62 0.66 7 1 C6.67 1.99 6.34 2.98 6 4 C4.02 3.34 2.04 2.68 0 2 C0 1.34 0 0.68 0 0 Z " fill="#9C9C9C" transform="translate(157,169)"/>
</svg>
