<?xml version="1.0" encoding="utf-8" standalone="yes"?>
<!DOCTYPE svg PUBLIC "-//W3C//DTD SVG 1.1//EN" "http://www.w3.org/Graphics/SVG/1.1/DTD/svg11.dtd">
<svg width="819" height="336" viewBox="0 0 819 336" style="fill:none;stroke:none;fill-rule:evenodd;clip-rule:evenodd;stroke-linecap:round;stroke-linejoin:round;stroke-miterlimit:1.5;" version="1.1" xmlns="http://www.w3.org/2000/svg" xmlns:xlink="http://www.w3.org/1999/xlink"><style class="text-font-style fontImports" data-font-family="Roboto">@import url('https://fonts.googleapis.com/css2?family=Roboto:wght@400;700&amp;display=block');</style><rect id="" x="0" y="0" width="819" height="336" style="fill: #ffffff;"></rect><g id="items" style="isolation: isolate"><g id="blend" style="mix-blend-mode: normal"><g id="g-root-tf_1hi78l61qgtszz-fill" data-item-order="-275184"><g id="tf_1hi78l61qgtszz-fill" stroke="none" fill="#ffffff"><g><path d="M 0 0L 819 0L 819 336L 0 336Z"></path></g></g></g><g id="g-root-ro_8ydxkq1qgsfm0-fill" data-item-order="-33408" transform="translate(310, 71)"><g id="ro_8ydxkq1qgsfm0-fill" stroke="none" fill="#545454"><g><path d="M 34 10L 178 10C 178 10 202 10 202 34L 202 160C 202 160 202 184 178 184L 34 184C 34 184 10 184 10 160L 10 34C 10 34 10 10 34 10"></path></g></g></g><g id="g-root-ro_4nk8561qgtt71-fill" data-item-order="-14256" transform="translate(4, 38)"><g id="ro_4nk8561qgtt71-fill" stroke="none" fill="#54502f"><g><path d="M 22 10L 262 10C 262 10 274 10 274 22L 274 52C 274 52 274 64 262 64L 22 64C 22 64 10 64 10 52L 10 22C 10 22 10 10 22 10"></path></g></g></g><g id="g-root-ro_1cy0c1l185huyq-fill" data-item-order="-12312" transform="translate(574, 203)"><g id="ro_1cy0c1l185huyq-fill" stroke="none" fill="#3b5649"><g><path d="M 22 10L 226 10C 226 10 238 10 238 22L 238 52C 238 52 238 64 226 64L 22 64C 22 64 10 64 10 52L 10 22C 10 22 10 10 22 10"></path></g></g></g><g id="g-root-ro_1qbcchm1qgtvke-fill" data-item-order="-12312" transform="translate(568, 59)"><g id="ro_1qbcchm1qgtvke-fill" stroke="none" fill="#60436d"><g><path d="M 22 10L 226 10C 226 10 238 10 238 22L 238 52C 238 52 238 64 226 64L 22 64C 22 64 10 64 10 52L 10 22C 10 22 10 10 22 10"></path></g></g></g><g id="g-root-cu_1ut19ve1qgtukn-fill" data-item-order="0" transform="translate(206.14999389648438, 92)"></g><g id="g-root-cu_7qq0q1qgttzg-fill" data-item-order="0" transform="translate(225.60000610351562, 92)"></g><g id="g-root-tx_adjustfo_18gyed61rkquiq-fill" data-item-order="0" transform="translate(100, 206)"><g id="tx_adjustfo_18gyed61rkquiq-fill" stroke="none" fill="#2c2c2c"><g><text style="font: 20px Roboto, sans-serif; white-space: pre;" font-size="20px" font-family="Roboto, sans-serif"><tspan x="12.77" y="33.5" dominant-baseline="ideographic">Forcing</tspan></text></g></g></g><g id="g-root-tx_selectsi_1qbcchm1qgtvkf-fill" data-item-order="0" transform="translate(52, 125)"><g id="tx_selectsi_1qbcchm1qgtvkf-fill" stroke="none" fill="#2c2c2c"><g><text style="font: 20px Roboto, sans-serif; white-space: pre;" font-size="20px" font-family="Roboto, sans-serif"><tspan x="15.06" y="33.5" dominant-baseline="ideographic">GPKG Sub-setting</tspan></text></g></g></g><g id="g-root-tx_adjustfo_1lw5bga1qgtt6w-fill" data-item-order="0" transform="translate(94, 161)"><g id="tx_adjustfo_1lw5bga1qgtt6w-fill" stroke="none" fill="#2c2c2c"><g><text style="font: 20px Roboto, sans-serif; white-space: pre;" font-size="20px" font-family="Roboto, sans-serif"><tspan x="14.9" y="33.5" dominant-baseline="ideographic">Realization</tspan></text></g></g></g><g id="g-root-cu_vcco561rkwf0s-fill" data-item-order="0" transform="translate(184, 169)"></g><g id="g-root-cu_7qq0q1qgttzd-fill" data-item-order="2" transform="translate(502, 86)"></g><g id="g-root-cu_1uo20ay14a1kwb-fill" data-item-order="2" transform="translate(502, 158)"></g><g id="g-root-cu_4nk8561qgtt72-fill" data-item-order="2" transform="translate(268, 65)"></g><g id="g-root-imag_m97yuy1qgsh6v-fill" data-item-order="1000000000" transform="translate(382, 95)"></g><g id="g-root-tx_stylecon_4losvu1qgtu6k-fill" data-item-order="1000000000" transform="translate(598, 74)"><g id="tx_stylecon_4losvu1qgtu6k-fill" stroke="none" fill="#ffffff"><g><text style="font: 20px Roboto, sans-serif; white-space: pre;" font-size="20px" font-family="Roboto, sans-serif"><tspan x="14.81" y="33.5" dominant-baseline="ideographic">TEEHR Evaluation</tspan></text></g></g></g><g id="g-root-tx_18i7g1l185j956-fill" data-item-order="1000000000" transform="translate(616, 218)"><g id="tx_18i7g1l185j956-fill" stroke="none" fill="#ffffff"><g><text style="font: 20px Roboto, sans-serif; white-space: pre;" font-size="20px" font-family="Roboto, sans-serif"><tspan x="15.45" y="34" dominant-baseline="ideographic">Data Visualizer</tspan></text></g></g></g><g id="g-root-tx_imagemod_zkoh8a1qgsfly-fill" data-item-order="1000000000" transform="translate(358, 149)"><g id="tx_imagemod_zkoh8a1qgsfly-fill" stroke="none" fill="#ffffff"><g><text style="font: 20px Roboto, sans-serif; white-space: pre;" font-size="20px" font-family="Roboto, sans-serif"><tspan x="28.48" y="34" dominant-baseline="ideographic">NGIAB </tspan><tspan x="30.19" y="58" dominant-baseline="ideographic">Model </tspan><tspan x="14.47" y="82" dominant-baseline="ideographic">Execution</tspan></text></g></g></g><g id="g-root-tx_1hapq1614twj5t-fill" data-item-order="1000000000" transform="translate(58, 53)"><g id="tx_1hapq1614twj5t-fill" stroke="none" fill="#ffffff"><g><text style="font: 20px Roboto, sans-serif; white-space: pre;" font-size="20px" font-family="Roboto, sans-serif"><tspan x="14.43" y="34" dominant-baseline="ideographic">Data Preprocess</tspan></text></g></g></g><g id="g-root-tf_1hi78l61qgtszz-stroke" data-item-order="-275184"></g><g id="g-root-ro_8ydxkq1qgsfm0-stroke" data-item-order="-33408" transform="translate(310, 71)"><g id="ro_8ydxkq1qgsfm0-stroke" fill="none" stroke-linecap="round" stroke-linejoin="round" stroke-miterlimit="4" stroke="#f4f4f4" stroke-width="2"><g><path d="M 34 10L 178 10C 178 10 202 10 202 34L 202 160C 202 160 202 184 178 184L 34 184C 34 184 10 184 10 160L 10 34C 10 34 10 10 34 10"></path></g></g></g><g id="g-root-ro_4nk8561qgtt71-stroke" data-item-order="-14256" transform="translate(4, 38)"><g id="ro_4nk8561qgtt71-stroke" fill="none" stroke-linecap="round" stroke-linejoin="round" stroke-miterlimit="4" stroke="#ffe711" stroke-width="2"><g><path d="M 22 10L 262 10C 262 10 274 10 274 22L 274 52C 274 52 274 64 262 64L 22 64C 22 64 10 64 10 52L 10 22C 10 22 10 10 22 10"></path></g></g></g><g id="g-root-ro_1cy0c1l185huyq-stroke" data-item-order="-12312" transform="translate(574, 203)"><g id="ro_1cy0c1l185huyq-stroke" fill="none" stroke-linecap="round" stroke-linejoin="round" stroke-miterlimit="4" stroke="#43dd93" stroke-width="2"><g><path d="M 22 10L 226 10C 226 10 238 10 238 22L 238 52C 238 52 238 64 226 64L 22 64C 22 64 10 64 10 52L 10 22C 10 22 10 10 22 10"></path></g></g></g><g id="g-root-ro_1qbcchm1qgtvke-stroke" data-item-order="-12312" transform="translate(568, 59)"><g id="ro_1qbcchm1qgtvke-stroke" fill="none" stroke-linecap="round" stroke-linejoin="round" stroke-miterlimit="4" stroke="#cb68f9" stroke-width="2"><g><path d="M 22 10L 226 10C 226 10 238 10 238 22L 238 52C 238 52 238 64 226 64L 22 64C 22 64 10 64 10 52L 10 22C 10 22 10 10 22 10"></path></g></g></g><g id="g-root-cu_1ut19ve1qgtukn-stroke" data-item-order="0" transform="translate(206.14999389648438, 92)"><g id="cu_1ut19ve1qgtukn-stroke" fill="none" stroke-linecap="round" stroke-linejoin="round" stroke-miterlimit="4" stroke="#b7b7b7" stroke-width="2" stroke-dasharray="5.0, 7.0"><g><path d="M 42.5 10L 42.5 20.1L 42.5 79C 42.499999 85.627414 37.127416 90.999997 30.499999 90.999997L 30.4 91L 10 91"></path></g></g></g><g id="g-root-cu_7qq0q1qgttzg-stroke" data-item-order="0" transform="translate(225.60000610351562, 92)"><g id="cu_7qq0q1qgttzg-stroke" fill="none" stroke-linecap="round" stroke-linejoin="round" stroke-miterlimit="4" stroke="#b7b7b7" stroke-width="2" stroke-dasharray="5.0, 7.0"><g><path d="M 23.099969 10L 23.099969 32.5L 23.099969 55L 16.499969 55L 9.999969 55"></path></g></g></g><g id="g-root-tx_adjustfo_18gyed61rkquiq-stroke" data-item-order="0" transform="translate(100, 206)"></g><g id="g-root-tx_selectsi_1qbcchm1qgtvkf-stroke" data-item-order="0" transform="translate(52, 125)"></g><g id="g-root-tx_adjustfo_1lw5bga1qgtt6w-stroke" data-item-order="0" transform="translate(94, 161)"></g><g id="g-root-cu_vcco561rkwf0s-stroke" data-item-order="0" transform="translate(184, 169)"><g id="cu_vcco561rkwf0s-stroke" fill="none" stroke-linecap="round" stroke-linejoin="round" stroke-miterlimit="4" stroke="#b7b7b7" stroke-width="2" stroke-dasharray="5.0, 7.0"><g><path d="M 63.2 10L 63.2 16.4L 63.2 49C 63.199998 55.627415 57.827415 60.999998 51.199998 60.999998L 51.1 61L 10 61"></path></g></g></g><g id="g-root-cu_7qq0q1qgttzd-stroke" data-item-order="2" transform="translate(502, 86)"><g id="cu_7qq0q1qgttzd-stroke" fill="none" stroke-linecap="round" stroke-linejoin="round" stroke-miterlimit="4" stroke="#b7b7b7" stroke-width="2" stroke-dasharray="5.0, 7.0"><style>.fillAsStrokeColor-4kgbb21k3sglq { fill:#b7b7b7; }</style><g><path d="M 10 82L 14.1 82L 19 82C 32.25 82 43 71.25 43 58L 43 57.9L 43 34C 43 20.75 53.75 10 67 10L 67.1 10L 72 10"></path><path d="M 74 10L 67 14L 67 6Z" stroke-dasharray="none" class="fillAsStrokeColor-4kgbb21k3sglq"></path></g></g></g><g id="g-root-cu_1uo20ay14a1kwb-stroke" data-item-order="2" transform="translate(502, 158)"><g id="cu_1uo20ay14a1kwb-stroke" fill="none" stroke-linecap="round" stroke-linejoin="round" stroke-miterlimit="4" stroke="#b7b7b7" stroke-width="2" stroke-dasharray="5.0, 7.0"><style>.fillAsStrokeColor-dg3bjy1k3sft0 { fill:#b7b7b7; }</style><g><path d="M 10 10L 14.5 10L 22 10C 35.25 10 46 20.75 46 34L 46 34.1L 46 58C 46 71.25 56.75 82 70 82L 70.1 82L 78 82"></path><path d="M 80 82L 73 86L 73 78Z" stroke-dasharray="none" class="fillAsStrokeColor-dg3bjy1k3sft0"></path></g></g></g><g id="g-root-cu_4nk8561qgtt72-stroke" data-item-order="2" transform="translate(268, 65)"><g id="cu_4nk8561qgtt72-stroke" fill="none" stroke-linecap="round" stroke-linejoin="round" stroke-miterlimit="4" stroke="#b7b7b7" stroke-width="2" stroke-dasharray="5.0, 7.0"><style>.fillAsStrokeColor-4kgbb21k3sglp { fill:#b7b7b7; }</style><g><path d="M 48.04 73.99C 35.82 73.61 26.01 63.58 26 51.3L 26 51.3L 26 23.9C 26 16.22 19.78 10 12.1 10L 12 10L 10 10"></path><path d="M 50 74L 43 78L 43 70Z" stroke-dasharray="none" class="fillAsStrokeColor-4kgbb21k3sglp"></path></g></g></g><g id="g-root-imag_m97yuy1qgsh6v-stroke" data-item-order="1000000000" transform="translate(382, 95)"><g id="imag_m97yuy1qgsh6v-stroke" fill="none" stroke-linecap="round" stroke-linejoin="round" stroke-miterlimit="4" stroke="#ffffff" stroke-width="2"><g><path d="M 18 38C 19.104568 38 20 38.895432 20 40C 20 41.104568 19.104568 42 18 42C 16.895432 42 16 41.104568 16 40C 16 38.895432 16.895432 38 18 38M 14 33L 38 33C 38 33 41 33 41 36L 41 54C 41 54 41 57 38 57L 14 57C 14 57 11 57 11 54L 11 36C 11 36 11 33 14 33M 17 14L 20 17L 17 20M 20 17L 14 17C 12.343145 17 11 18.343147 11 20L 11 24M 50 54L 47 51L 50 48M 47 51L 53 51C 54.656857 51 56 49.656857 56 48L 56 44M 40.200001 56.034L 33.316002 43.562C 32.927933 42.845741 32.192635 42.385502 31.378803 42.349457C 30.564972 42.313416 29.791866 42.706852 29.341999 43.385998L 23.702 51.872002L 20.232 48.821999C 19.741238 48.391033 19.09178 48.186474 18.442621 48.258389C 17.793465 48.330307 17.204531 48.672066 16.82 49.199997L 11.8 56.034M 46.717999 35L 54 35C 55.656857 35 57 33.656853 57 32L 57 14C 57 12.343145 55.656857 11 54 11L 30 11C 28.343145 11 27 12.343145 27 14L 27 27.200001M 34 16C 35.104568 16 36 16.895432 36 18C 36 19.104568 35.104568 20 34 20C 32.895432 20 32 19.104568 32 18C 32 16.895432 32.895432 16 34 16M 56.200001 34.034L 49.318001 21.562C 48.929932 20.845743 48.194633 20.385502 47.380802 20.349457C 46.566971 20.313416 45.793865 20.706854 45.343998 21.386L 39.704002 29.872L 36.232002 26.822001C 35.741234 26.391035 35.091782 26.186472 34.442619 26.25839C 33.793465 26.330307 33.204529 26.672066 32.82 27.199999L 32.194 28.052"></path></g></g></g><g id="g-root-tx_stylecon_4losvu1qgtu6k-stroke" data-item-order="1000000000" transform="translate(598, 74)"></g><g id="g-root-tx_18i7g1l185j956-stroke" data-item-order="1000000000" transform="translate(616, 218)"></g><g id="g-root-tx_imagemod_zkoh8a1qgsfly-stroke" data-item-order="1000000000" transform="translate(358, 149)"></g><g id="g-root-tx_1hapq1614twj5t-stroke" data-item-order="1000000000" transform="translate(58, 53)"></g></g></g></svg>